<?xml version="1.0" encoding="UTF-8" standalone="no" ?>
<!DOCTYPE svg PUBLIC "-//W3C//DTD SVG 1.1//EN" "http://www.w3.org/Graphics/SVG/1.1/DTD/svg11.dtd">
<svg xmlns="http://www.w3.org/2000/svg" xmlns:xlink="http://www.w3.org/1999/xlink" version="1.1" width="1280" height="1024" viewBox="0 0 1280 1024" xml:space="preserve">
<desc>Created with Fabric.js 4.4.0</desc>
<defs>
</defs>
<g transform="matrix(1 0 0 1 640 512)" id="background-logo"  >
<rect style="stroke: none; stroke-width: 0; stroke-dasharray: none; stroke-linecap: butt; stroke-dashoffset: 0; stroke-linejoin: miter; stroke-miterlimit: 4; fill: rgb(255,255,255); fill-opacity: 0; fill-rule: nonzero; opacity: 1;"  paint-order="stroke"  x="-640" y="-512" rx="0" ry="0" width="1280" height="1024" />
</g>
<g transform="matrix(1.9211538461538462 0 0 1.9211538461538462 640 408.2274742131904)" id="logo-logo"  >
<g style=""  paint-order="stroke"   >
		<g transform="matrix(0.5394243097119024 0 0 0.5394243097119024 -37.7602284546428 0.00044445866001296963)"  >
<path style="stroke: none; stroke-width: 1; stroke-dasharray: none; stroke-linecap: butt; stroke-dashoffset: 0; stroke-linejoin: miter; stroke-miterlimit: 4; fill: rgb(101,235,228); fill-rule: nonzero; opacity: 1;"  paint-order="stroke"  transform=" translate(-444.5044251, -521.84085085)" d="M 370.0418396 521.8409424 C 370.0418396 576.0403443 391.3494568 625.2642212000001 426.0644226 661.5744629000001 L 394.2549744 693.3838501 C 350.36749269999996 649.477356 323.21081549999997 588.8210449000001 323.21081549999997 521.8409424 C 323.21081549999997 454.8606568 350.36749269999996 394.20434570000003 394.2549744 350.29785160000006 L 426.0644226 382.10726930000004 C 391.3494568 418.417511 370.0418396 467.6413574 370.0418396 521.8409424 z M 480.5867615 436.6295166 C 458.7474671 458.4499512 445.2260742 488.5881653 445.2260742 521.8409424 C 445.2260742 555.0935669 458.74746700000003 585.2318115 480.5867615 607.0521851 L 565.7980347 521.8409424 L 480.5867615 436.6295166 z" stroke-linecap="round" />
</g>
		<g transform="matrix(0.5394243097119024 0 0 0.5394243097119024 19.0144929007497 0)"  >
<g style=""  paint-order="stroke"   >
		<g transform="matrix(1 0 0 1 16.044982900000036 0)"  >
<path style="stroke: none; stroke-width: 1; stroke-dasharray: none; stroke-linecap: butt; stroke-dashoffset: 0; stroke-linejoin: miter; stroke-miterlimit: 4; fill: rgb(11,188,220); fill-rule: nonzero; opacity: 1;"  paint-order="stroke"  transform=" translate(-565.7999878, -521.8400269)" d="M 689.3400269 645.3800049 C 657.9500122 676.0599976 615.0200195 695.0100098 567.75 695.0100098 C 519.5 695.0100098 475.7700195 675.2700196000001 444.2000122 643.4400025 L 425.7999878 661.8400269 C 461.6300049 697.6799927 511.1199951 719.8400269 565.7999878 719.8400269 C 620.4699707000001 719.8400269 669.9600220000001 697.6799927 705.7999878 661.8400269 L 689.3400269 645.3800049 z M 671.3400269 627.3800049 L 651.0100098 607.0499878 C 629.1900025 628.8900147 599.0300293 642.4099732000001 565.7999878 642.4099732000001 C 532.5599976000001 642.4099732000001 502.4099732000001 628.8900147 480.59002690000005 607.0499878 L 462.2000123 625.4400024 C 489.15002450000003 652.6699829 526.5200196000001 669.5499878 567.7500001000001 669.5499878 C 608 669.5499878 644.5499878 653.4699707 671.3400269 627.3800049 z M 567.75 372.4099731 C 526.0800171 372.4099731 488.3599854 389.6599731 461.3499756 417.3900146 L 480.5900269 436.6300048 C 502.4099732 414.7899779 532.5599976 401.2700194 565.7999878 401.2700194 C 599.0300293 401.2700194 629.1900024 414.7899779 651.0100098 436.63000480000005 L 672.210022 415.42999260000005 C 645.3499756 388.8499756 608.4299927 372.4099731 567.75 372.4099731 z M 565.7999878 323.8400269 C 511.11999510000004 323.8400269 461.6300049000001 346.0100098 425.79998780000005 381.8400269 L 426.05999760000003 382.10998539999997 L 443.34997560000005 399.3900147 C 474.96997070000003 367.0399781 519.0599976000001 346.9400025 567.75 346.9400025 C 615.4500122 346.9400025 658.7399902 366.2399903 690.2000122 397.4400025 L 705.7999877999999 381.8400269 C 669.960022 346.0100098 620.4699707 323.8400269 565.7999878 323.8400269 z" stroke-linecap="round" />
</g>
		<g transform="matrix(1 0 0 1 -121.79998780000005 -0.425018399999999)"  >
<path style="stroke: none; stroke-width: 1; stroke-dasharray: none; stroke-linecap: butt; stroke-dashoffset: 0; stroke-linejoin: miter; stroke-miterlimit: 4; fill: rgb(11,188,220); fill-rule: nonzero; opacity: 1;"  paint-order="stroke"  transform=" translate(-427.95501709999996, -521.4150085)" d="M 462.2000122 625.4400024 L 444.2000122 643.4400024 C 413.0100098 611.9799804 393.710022 568.6900024 393.710022 520.9799804 C 393.710022 473.7100219 412.65997319999997 430.78002920000006 443.3499756 399.39001460000003 L 461.3499756 417.39001460000003 C 435.2700195 444.16998290000004 419.1799927 480.72998040000004 419.1799927 520.9799804 C 419.1799927 561.6699829 435.6199951 598.5900269 462.2000122 625.4400024 z" stroke-linecap="round" />
</g>
</g>
</g>
</g>
</g>
<g transform="matrix(1.9211538461538462 0 0 1.9211538461538462 639.8078846153848 710.260683392778)" id="text-logo-path-group"  >
<g style=""  paint-order="stroke"   >
		<g transform="matrix(1 0 0 1 -5.684342e-14 0)" id="text-logo-path-0"  >
<path style="stroke: none; stroke-width: 0; stroke-dasharray: none; stroke-linecap: butt; stroke-dashoffset: 0; stroke-linejoin: miter; stroke-miterlimit: 4; fill: rgb(11,188,220); fill-rule: nonzero; opacity: 1;"  paint-order="stroke"  transform=" translate(-207.9, 17.5)" d="M 20.4 0.8 C 27.65 0.8 33.6 -2.65 36.55 -8.4 L 29.65 -12.6 C 28.1 -9.55 24.45 -7.1 20.4 -7.1 C 14.7 -7.1 10.5 -11.55 10.5 -17.45 C 10.5 -23.25 14.4 -27.9 20.4 -27.9 C 24.55 -27.9 28.4 -25.3 29.9 -21.85 L 36.8 -26.15 C 33.95 -32.05 28.15 -35.8 20.4 -35.8 C 9.85 -35.8 2.15 -28.5 2.15 -17.45 C 2.15 -6.9 9.4 0.8 20.4 0.8 Z M 46.3 -35 L 46.3 0 L 54.3 0 L 54.3 -18.4 L 62.6 0 L 71.3 0 L 79.6 -18.4 L 79.6 0 L 87.6 0 L 87.6 -35 L 79.1 -35 L 66.95 -8.9 L 54.8 -35 Z M 99.25 -35 L 99.25 0 L 125.15 0 L 125.15 -7.5 L 107.25 -7.5 L 107.25 -35 Z M 179.15 -35 L 148.2 -35 L 148.2 -27.5 L 159.65 -27.5 L 159.65 0 L 167.65 0 L 167.65 -27.5 L 179.15 -27.5 Z M 188.85 0 L 196.85 0 L 196.85 -7.65 L 203.65 -7.65 L 208.35 0 L 217.85 0 L 211.35 -9.9 C 214.95 -12.25 217.25 -16.35 217.25 -21.4 C 217.25 -29.1 211.65 -35 203.65 -35 L 188.85 -35 Z M 196.85 -15.15 L 196.85 -27.5 L 202.55 -27.5 C 206.1 -27.5 208.75 -25 208.75 -21.35 C 208.75 -17.75 206.3 -15.15 202.55 -15.15 Z M 225.8 0 L 234.55 0 L 236.75 -5.15 L 253.6 -5.15 L 255.8 0 L 264.55 0 L 249.55 -35 L 240.8 -35 Z M 239.75 -12.15 L 245.2 -24.8 L 250.6 -12.15 Z M 274.2 -35 L 274.2 0 L 289.6 0 C 299.7 0 307.1 -7 307.1 -17.5 C 307.1 -27.6 300.1 -35 289.6 -35 Z M 282.2 -7.5 L 282.2 -27.5 L 288.6 -27.5 C 294.4 -27.5 298.6 -23.55 298.6 -17.5 C 298.6 -11.7 294.65 -7.5 288.6 -7.5 Z M 316.95 -35 L 316.95 0 L 324.95 0 L 324.95 -35 Z M 336.15 -35 L 336.15 0 L 344.15 0 L 344.15 -21.6 L 361.65 0 L 369.65 0 L 369.65 -35 L 361.65 -35 L 361.65 -13.4 L 344.15 -35 Z M 413.65 -7.3 L 413.65 -19.5 L 395.95 -19.5 L 395.95 -13.5 L 405.65 -13.5 L 405.65 -10.25 C 403.3 -8.05 400.6 -7.1 397.5 -7.1 C 391.8 -7.1 387.6 -11.55 387.6 -17.45 C 387.6 -23.25 391.5 -27.9 397.5 -27.9 C 401.05 -27.9 404.3 -26.1 406.15 -23.35 L 413.2 -27.5 C 410.15 -32.6 404.65 -35.8 397.5 -35.8 C 386.95 -35.8 379.25 -28.5 379.25 -17.45 C 379.25 -6.9 386.5 0.8 397.5 0.8 C 404.35 0.8 410.15 -2.15 413.65 -7.3 Z" stroke-linecap="round" />
</g>
</g>
</g>
<g transform="matrix(1.9211538461538462 0 0 1.9211538461538462 639.8559134615384 786.9087672336073)" id="tagline-ef20d6cb-97f6-42f6-9753-b896eb123f16-logo-path-group"  >
<g style=""  paint-order="stroke"   >
		<g transform="matrix(1 0 0 1 0 0)" id="tagline-ef20d6cb-97f6-42f6-9753-b896eb123f16-logo-path-0"  >
<path style="stroke: none; stroke-width: 0; stroke-dasharray: none; stroke-linecap: butt; stroke-dashoffset: 0; stroke-linejoin: miter; stroke-miterlimit: 4; fill: rgb(23,59,129); fill-rule: nonzero; opacity: 1;"  paint-order="stroke"  transform=" translate(-171.375, 10.47)" d="M 2.85 -17.7 L 3.48 -17.7 L 3.48 -3.3 L 2.85 -3.3 C 1.92 -3.3 1.2 -2.55 1.2 -1.65 C 1.2 -0.75 1.92 0 2.85 0 L 7.41 0 C 8.31 0 9.06 -0.75 9.06 -1.65 C 9.06 -2.55 8.31 -3.3 7.41 -3.3 L 6.78 -3.3 L 6.78 -17.7 L 7.41 -17.7 C 8.31 -17.7 9.06 -18.45 9.06 -19.35 C 9.06 -20.25 8.31 -21 7.41 -21 L 2.85 -21 C 1.92 -21 1.2 -20.25 1.2 -19.35 C 1.2 -18.45 1.92 -17.7 2.85 -17.7 Z M 15.21 -1.5 L 15.15 -14.97 L 26.52 -0.69 C 27.66 0.66 29.91 -0.09 29.91 -1.89 L 29.91 -19.53 C 29.91 -20.43 29.16 -21.18 28.26 -21.18 C 27.36 -21.18 26.61 -20.43 26.61 -19.53 L 26.61 -5.88 L 15.09 -20.34 C 14.04 -21.72 11.85 -20.82 11.85 -19.14 L 11.91 -1.47 C 11.91 -0.57 12.66 0.18 13.56 0.18 C 14.46 0.18 15.21 -0.57 15.21 -1.5 Z M 32.88 -18.66 L 40.05 -1.17 C 40.71 0.39 42.87 0.39 43.53 -1.17 L 50.7 -18.66 C 50.79 -18.87 50.82 -19.08 50.82 -19.32 C 50.82 -20.25 50.1 -20.97 49.17 -20.97 C 48.51 -20.97 47.91 -20.58 47.67 -19.98 L 41.79 -5.64 L 35.91 -19.98 C 35.67 -20.58 35.07 -20.97 34.41 -20.97 C 33.48 -20.97 32.76 -20.25 32.76 -19.32 C 32.76 -19.08 32.79 -18.87 32.88 -18.66 Z M 66.18 -3.3 L 56.97 -3.3 L 56.97 -8.85 L 64.08 -8.85 C 64.98 -8.85 65.73 -9.6 65.73 -10.5 C 65.73 -11.4 64.98 -12.15 64.08 -12.15 L 56.97 -12.15 L 56.97 -17.7 L 66.18 -17.7 C 67.08 -17.7 67.83 -18.45 67.83 -19.35 C 67.83 -20.25 67.08 -21 66.18 -21 L 55.47 -21 C 54.48 -21 53.67 -20.19 53.67 -19.2 L 53.67 -1.8 C 53.67 -0.81 54.48 0 55.47 0 L 66.18 0 C 67.08 0 67.83 -0.75 67.83 -1.65 C 67.83 -2.55 67.08 -3.3 66.18 -3.3 Z M 70.98 -2.88 C 72.3 -1.02 74.61 0.21 77.25 0.21 C 81.3 0.21 84.69 -2.82 84.69 -6.39 C 84.69 -11.07 80.97 -12 78.63 -12.9 C 76.14 -13.77 74.43 -14.04 74.43 -15.6 C 74.43 -17.13 75.48 -17.91 77.58 -17.91 C 78.87 -17.91 79.68 -17.49 80.31 -16.59 C 80.61 -16.17 81.12 -15.9 81.66 -15.9 C 82.56 -15.9 83.31 -16.65 83.31 -17.55 C 83.31 -17.91 83.19 -18.24 83.01 -18.51 C 81.84 -20.13 79.83 -21.21 77.58 -21.21 C 74.07 -21.21 71.13 -18.93 71.13 -15.6 C 71.13 -11.7 74.52 -10.86 77.49 -9.78 C 80.01 -8.82 81.39 -8.55 81.39 -6.39 C 81.39 -4.53 79.8 -3.09 77.25 -3.09 C 75.57 -3.09 74.46 -3.66 73.68 -4.8 C 73.38 -5.22 72.9 -5.49 72.33 -5.49 C 71.43 -5.49 70.68 -4.74 70.68 -3.84 C 70.68 -3.48 70.8 -3.15 70.98 -2.88 Z M 95.22 -1.5 L 95.22 -17.7 L 99.45 -17.7 C 100.35 -17.7 101.1 -18.45 101.1 -19.35 C 101.1 -20.25 100.35 -21 99.45 -21 L 87.69 -21 C 86.76 -21 86.04 -20.25 86.04 -19.35 C 86.04 -18.45 86.76 -17.7 87.69 -17.7 L 91.92 -17.7 L 91.92 -1.5 C 91.92 -0.57 92.67 0.15 93.57 0.15 C 94.47 0.15 95.22 -0.57 95.22 -1.5 Z M 105.6 -17.7 L 106.23 -17.7 L 106.23 -3.3 L 105.6 -3.3 C 104.67 -3.3 103.95 -2.55 103.95 -1.65 C 103.95 -0.75 104.67 0 105.6 0 L 110.16 0 C 111.06 0 111.81 -0.75 111.81 -1.65 C 111.81 -2.55 111.06 -3.3 110.16 -3.3 L 109.53 -3.3 L 109.53 -17.7 L 110.16 -17.7 C 111.06 -17.7 111.81 -18.45 111.81 -19.35 C 111.81 -20.25 111.06 -21 110.16 -21 L 105.6 -21 C 104.67 -21 103.95 -20.25 103.95 -19.35 C 103.95 -18.45 104.67 -17.7 105.6 -17.7 Z M 117.96 -1.5 L 117.9 -14.97 L 129.27 -0.69 C 130.41 0.66 132.66 -0.09 132.66 -1.89 L 132.66 -19.53 C 132.66 -20.43 131.91 -21.18 131.01 -21.18 C 130.11 -21.18 129.36 -20.43 129.36 -19.53 L 129.36 -5.88 L 117.84 -20.34 C 116.79 -21.72 114.6 -20.82 114.6 -19.14 L 114.66 -1.47 C 114.66 -0.57 115.41 0.18 116.31 0.18 C 117.21 0.18 117.96 -0.57 117.96 -1.5 Z M 149.49 -8.85 L 152.1 -8.85 L 152.1 -5.07 C 150.69 -3.78 148.95 -3.09 146.85 -3.09 C 142.05 -3.09 138.81 -5.88 138.81 -10.53 C 138.81 -15.12 142.05 -17.91 146.85 -17.91 C 148.32 -17.91 149.55 -17.58 150.72 -16.92 C 150.96 -16.8 151.23 -16.71 151.53 -16.71 C 152.43 -16.71 153.18 -17.46 153.18 -18.36 C 153.18 -18.99 152.82 -19.53 152.31 -19.8 C 150.69 -20.7 148.83 -21.21 146.85 -21.21 C 140.58 -21.21 135.51 -16.83 135.51 -10.53 C 135.51 -4.17 140.58 0.21 146.85 0.21 C 150.06 0.21 153.06 -1.17 155.1 -3.36 C 155.16 -3.48 155.4 -3.93 155.4 -4.41 L 155.4 -10.35 C 155.4 -11.34 154.59 -12.15 153.6 -12.15 L 149.49 -12.15 C 148.56 -12.15 147.84 -11.4 147.84 -10.5 C 147.84 -9.6 148.56 -8.85 149.49 -8.85 Z M 184.5 -1.5 L 184.5 -19.14 C 184.5 -21.06 181.95 -21.72 180.96 -20.13 L 174.6 -10.11 L 168.24 -20.13 C 167.25 -21.72 164.7 -21.06 164.7 -19.14 L 164.7 -1.5 C 164.7 -0.57 165.45 0.15 166.35 0.15 C 167.25 0.15 168 -0.57 168 -1.5 L 168 -14.34 L 173.04 -6.45 C 173.73 -5.25 175.47 -5.25 176.16 -6.45 L 181.2 -14.37 L 181.2 -1.5 C 181.2 -0.57 181.95 0.15 182.85 0.15 C 183.75 0.15 184.5 -0.57 184.5 -1.5 Z M 175.83 -8.19 C 175.86 -8.16 175.89 -8.13 175.89 -8.1 Z M 205.29 -2.04 L 198.12 -19.83 C 197.46 -21.39 195.3 -21.39 194.64 -19.83 L 187.47 -2.04 C 187.38 -1.83 187.35 -1.62 187.35 -1.38 C 187.35 -0.48 188.07 0.27 189 0.27 C 189.66 0.27 190.26 -0.15 190.5 -0.72 L 192.33 -5.25 L 200.43 -5.25 L 202.26 -0.72 C 202.5 -0.15 203.1 0.27 203.76 0.27 C 204.69 0.27 205.41 -0.48 205.41 -1.38 C 205.41 -1.62 205.38 -1.83 205.29 -2.04 Z M 193.65 -8.55 L 196.38 -15.3 L 199.11 -8.55 Z M 214.29 -21 L 210.06 -21 C 209.07 -21 208.26 -20.19 208.26 -19.2 L 208.26 -1.8 C 208.26 -0.81 209.07 0 210.06 0 L 214.29 0 C 220.35 0 225.36 -4.59 225.36 -10.53 C 225.36 -16.41 220.35 -21 214.29 -21 Z M 211.56 -3.3 L 211.56 -17.7 L 214.29 -17.7 C 218.85 -17.7 222.06 -14.73 222.06 -10.53 C 222.06 -6.27 218.85 -3.3 214.29 -3.3 Z M 240.72 -3.3 L 231.51 -3.3 L 231.51 -8.85 L 238.62 -8.85 C 239.52 -8.85 240.27 -9.6 240.27 -10.5 C 240.27 -11.4 239.52 -12.15 238.62 -12.15 L 231.51 -12.15 L 231.51 -17.7 L 240.72 -17.7 C 241.62 -17.7 242.37 -18.45 242.37 -19.35 C 242.37 -20.25 241.62 -21 240.72 -21 L 230.01 -21 C 229.02 -21 228.21 -20.19 228.21 -19.2 L 228.21 -1.8 C 228.21 -0.81 229.02 0 230.01 0 L 240.72 0 C 241.62 0 242.37 -0.75 242.37 -1.65 C 242.37 -2.55 241.62 -3.3 240.72 -3.3 Z M 264.18 -3.3 L 254.97 -3.3 L 254.97 -8.85 L 262.08 -8.85 C 262.98 -8.85 263.73 -9.6 263.73 -10.5 C 263.73 -11.4 262.98 -12.15 262.08 -12.15 L 254.97 -12.15 L 254.97 -17.7 L 264.18 -17.7 C 265.08 -17.7 265.83 -18.45 265.83 -19.35 C 265.83 -20.25 265.08 -21 264.18 -21 L 253.47 -21 C 252.48 -21 251.67 -20.19 251.67 -19.2 L 251.67 -1.8 C 251.67 -0.81 252.48 0 253.47 0 L 264.18 0 C 265.08 0 265.83 -0.75 265.83 -1.65 C 265.83 -2.55 265.08 -3.3 264.18 -3.3 Z M 286.62 -2.04 L 279.45 -19.83 C 278.79 -21.39 276.63 -21.39 275.97 -19.83 L 268.8 -2.04 C 268.71 -1.83 268.68 -1.62 268.68 -1.38 C 268.68 -0.48 269.4 0.27 270.33 0.27 C 270.99 0.27 271.59 -0.15 271.83 -0.72 L 273.66 -5.25 L 281.76 -5.25 L 283.59 -0.72 C 283.83 -0.15 284.43 0.27 285.09 0.27 C 286.02 0.27 286.74 -0.48 286.74 -1.38 C 286.74 -1.62 286.71 -1.83 286.62 -2.04 Z M 274.98 -8.55 L 277.71 -15.3 L 280.44 -8.55 Z M 289.89 -2.88 C 291.21 -1.02 293.52 0.21 296.16 0.21 C 300.21 0.21 303.6 -2.82 303.6 -6.39 C 303.6 -11.07 299.88 -12 297.54 -12.9 C 295.05 -13.77 293.34 -14.04 293.34 -15.6 C 293.34 -17.13 294.39 -17.91 296.49 -17.91 C 297.78 -17.91 298.59 -17.49 299.22 -16.59 C 299.52 -16.17 300.03 -15.9 300.57 -15.9 C 301.47 -15.9 302.22 -16.65 302.22 -17.55 C 302.22 -17.91 302.1 -18.24 301.92 -18.51 C 300.75 -20.13 298.74 -21.21 296.49 -21.21 C 292.98 -21.21 290.04 -18.93 290.04 -15.6 C 290.04 -11.7 293.43 -10.86 296.4 -9.78 C 298.92 -8.82 300.3 -8.55 300.3 -6.39 C 300.3 -4.53 298.71 -3.09 296.16 -3.09 C 294.48 -3.09 293.37 -3.66 292.59 -4.8 C 292.29 -5.22 291.81 -5.49 291.24 -5.49 C 290.34 -5.49 289.59 -4.74 289.59 -3.84 C 289.59 -3.48 289.71 -3.15 289.89 -2.88 Z M 306.75 -18.48 L 312.69 -9.69 L 312.69 -1.5 C 312.69 -0.57 313.44 0.15 314.34 0.15 C 315.24 0.15 315.99 -0.57 315.99 -1.5 L 315.99 -9.78 L 321.9 -18.48 C 322.08 -18.72 322.2 -19.05 322.2 -19.41 C 322.2 -20.31 321.48 -21.06 320.55 -21.06 C 320.01 -21.06 319.5 -20.79 319.2 -20.37 L 314.31 -13.17 L 309.45 -20.34 C 309.15 -20.79 308.64 -21.06 308.1 -21.06 C 307.17 -21.06 306.45 -20.31 306.45 -19.41 C 306.45 -19.05 306.54 -18.72 306.75 -18.48 Z M 326.85 0 C 327.84 0 328.65 -0.81 328.65 -1.8 C 328.65 -2.79 327.84 -3.6 326.85 -3.6 C 325.86 -3.6 325.05 -2.79 325.05 -1.8 C 325.05 -0.81 325.86 0 326.85 0 Z M 333.3 0 C 334.29 0 335.1 -0.81 335.1 -1.8 C 335.1 -2.79 334.29 -3.6 333.3 -3.6 C 332.31 -3.6 331.5 -2.79 331.5 -1.8 C 331.5 -0.81 332.31 0 333.3 0 Z M 339.75 0 C 340.74 0 341.55 -0.81 341.55 -1.8 C 341.55 -2.79 340.74 -3.6 339.75 -3.6 C 338.76 -3.6 337.95 -2.79 337.95 -1.8 C 337.95 -0.81 338.76 0 339.75 0 Z" stroke-linecap="round" />
</g>
</g>
</g>
</svg>