<svg xmlns="http://www.w3.org/2000/svg" width="256" height="257" preserveAspectRatio="xMidYMid"><path d="M201.685 25.373C170.902-1.2 102.8-14.364 51.748 23.787c-47.885 32.1-50.253 90.77-50.253 90.77 8.156 32.1 40.518 62.883 102.873 47.886-7.367-43.15 7.072-152.33 97.317-137.07z" fill="#00acd2"/><path d="M169.62 129.733C135.935 157.688 33.402 200.345 1.495 114.56c-7.622 39.946 13.53 106.43 72.09 131.56 51.742 25.42 105.664-4.02 105.664-4.02 23.72-23.113 34.538-65.864-9.628-112.367" fill="#c8e9eb"/><path d="M108.78 90.524c41.052 15.195 128.807 81.05 70.47 151.576 38.405-13.373 83.44-64.54 75.922-127.818-3.856-57.52-53.484-88.907-53.484-88.907-31.876-8.986-74.717 3.65-92.907 65.15" fill="#662d91"/></svg>