<svg version="1.2" xmlns="http://www.w3.org/2000/svg" viewBox="0 0 172 30" width="172" height="30">
	<title>in-logo-1-svg</title>
	<style>
		.s0 { fill: #00deff } 
	</style>
	<path id="Layer copy" fill-rule="evenodd" class="s0" d="m36.3 43.6c0.4 0 1-0.2 1.7-0.3l0.5-0.2v1.3l-0.4 0.1c-0.8 0.2-1.4 0.4-2 0.4-1.9 0-3.3-1.2-3.3-3.6 0-2.4 1.4-3.5 3.3-3.5 0.5 0 1.2 0.1 2 0.3h0.4v1.4l-0.5-0.2c-0.7-0.1-1.3-0.3-1.7-0.3q-1.8 0-1.8 2.3c0 1.5 0.6 2.3 1.8 2.3zm-16.4-0.4l0.5-0.2v1.3l-0.4 0.1c-0.7 0.3-1.4 0.4-2 0.4-1.9 0-3.2-1.1-3.2-3.6 0-2.3 1.3-3.5 3.2-3.5 0.7 0 1.3 0.1 2 0.3l0.4 0.1v1.3l-0.5-0.2c-0.6-0.1-1.2-0.3-1.6-0.3q-1.9 0-1.9 2.3 0 2.4 1.9 2.4c0.4 0 1-0.2 1.6-0.4zm3.5-4v5.6h-1.5v-5.7c0-0.6 0.3-1 0.9-1.1 0.8-0.2 1.4-0.3 2.1-0.3 0.8 0 1.4 0.1 1.8 0.5 0.7-0.3 1.6-0.5 2.3-0.5 1.9 0 2.6 1 2.6 2.5v4.6h-1.5v-4.6c0-0.7-0.3-1.2-1.2-1.2-0.6 0-1 0.2-1.5 0.3 0.1 0.2 0.2 0.5 0.2 0.9v4.6h-1.5v-4.6c0-0.7-0.3-1.2-1.2-1.2-0.4 0-0.8 0-1.4 0.2zm20.3 0v5.6h-1.5v-5.7c0-0.6 0.3-1 0.9-1.1 0.8-0.2 1.4-0.3 2-0.3 0.9 0 1.5 0.1 1.9 0.5 0.7-0.3 1.6-0.5 2.3-0.5 1.9 0 2.6 1 2.6 2.5v4.6h-1.5v-4.6c0-0.7-0.3-1.2-1.2-1.2-0.6 0-1 0.2-1.5 0.3 0.1 0.2 0.2 0.5 0.2 0.9v4.6h-1.5v-4.6c0-0.7-0.3-1.2-1.3-1.2-0.3 0-0.7 0-1.3 0.2zm15.5 3.6c0 0 0 0.2 0 0.6 0 0.5-0.2 0.8-0.6 1.1-0.4 0.4-2.1 0.4-2.1 0.4-0.6 0-3.4 0.1-3.4-2.2 0-1.7 1.5-2.2 3.2-2.2h1.5v-0.4c0-0.9-0.3-1.2-1.4-1.2-0.6 0-1.4 0.2-2.2 0.4h-0.1v-1.3c0.9-0.2 1.7-0.4 2.3-0.4 1.9 0 2.8 0.7 2.8 2.4v2.8zm-1.5 0.5c0-0.1 0-1.7 0-1.7h-1.7c-0.9 0-1.6 0.3-1.6 1.1 0 1.1 1.4 1 2 1 0 0 0.9-0.1 1.1-0.1 0.2-0.1 0.2-0.2 0.2-0.3zm6.3-5.6v1.2c-0.2-0.1-0.4-0.1-0.7-0.1-1 0-1.3 0.4-1.3 1.2v4.7h-1.4v-4.7c0-1.7 0.8-2.4 2.7-2.4 0.3 0 0.6 0.1 0.9 0.1zm6.1 7.1l-2.1-3.4-0.6 0.7c-0.4 0.5-0.3 0.8-0.3 1.5v1.2h-1.5v-9.2h1.5v4.9l2.4-2.7h1.9l-2.2 2.4 2.7 4.6zm13.9-0.2c-0.3 0.1-0.8 0.3-1.5 0.3-1.5 0-2.2-0.9-2.2-2.5v-3.4h-1v-1.2h1v-2.1h1.5v2.1h2v1.2h-2v3.5c0 0.7 0.3 1.1 1 1.1 0.5 0 1-0.1 1.2-0.3zm-6.1 0c-0.9 0.3-1.4 0.3-2.3 0.3-2.1 0-3.5-1.2-3.5-3.6 0-2.6 1.6-3.6 3.3-3.6 1.9 0 3.2 1 3.2 3.4q0 0.7-0.7 0.7h-4.4c0.1 1.2 1 1.8 2.1 1.8 0.6 0 1.2 0 2-0.2l0.3-0.1v1.3zm-2.6-5.8c-1.1 0-1.7 0.7-1.8 2h3.6c0-1.1-0.5-2-1.8-2zm9.6 1c0-1.4 1.3-2.2 2.7-2.2 0.9 0 1.5 0.1 2.4 0.4v1.3h-0.1c-0.8-0.2-1.5-0.4-2.3-0.4-0.6 0-1.1 0.3-1.1 0.9 0 0.4 0.3 0.7 1 0.8l1.3 0.2c1.2 0.2 1.9 0.8 1.9 1.9 0 1.5-1.2 2.2-2.8 2.2-0.8 0-1.5-0.1-2.4-0.3l-0.3-0.1v-1.3l0.4 0.2c1.1 0.3 1.6 0.3 2.3 0.3 0.7 0 1.4-0.2 1.4-0.9 0-0.5-0.3-0.8-1-0.9l-1.3-0.1c-1.2-0.2-1.9-0.8-2.1-2zm-48.9-11.8l-1.3 0.4c-3 0.8-5.6 1.4-7.9 1.4-7.8 0-13.1-4.6-13.1-14.4 0-9.5 5.3-14.3 13.1-14.3 2.2 0 4.9 0.5 7.9 1.4l1.3 0.3v5.3l-2.1-0.6c-2.7-0.8-4.9-1.3-6.6-1.3-5 0-7.4 2.9-7.4 9.2 0 6.2 2.5 9.2 7.4 9.2 1.7 0 3.9-0.5 6.6-1.3l2.1-0.6zm54.5 0l-1.3 0.4c-3 0.8-5.6 1.4-7.9 1.4-7.8 0-13-4.6-13-14.4 0-9.4 5.2-14.3 13-14.3 2.2 0 4.9 0.5 7.9 1.4l1.3 0.4v5.2l-2.1-0.6c-2.7-0.8-4.9-1.3-6.6-1.3-4.9 0-7.4 3-7.4 9.2 0 6.2 2.5 9.2 7.4 9.2 1.7 0 3.9-0.5 6.6-1.3l2.1-0.6zm-27.4 1.4h-4.6v-23.1c0-2.5 1.2-3.6 3.5-4.4 1-0.3 1.8-0.6 2.7-0.7v26.7c0 0.8-0.7 1.6-1.6 1.5zm-9.1 0h-4.6v-25.5c0.9 0.2 1.7 0.4 2.6 0.7 2.4 0.8 3.6 1.9 3.6 4.4v18.9c0 0.9-0.8 1.6-1.6 1.6zm-9.1 0h-4.6v-25.5c0.9 0.1 1.7 0.4 2.7 0.7 2.3 0.8 3.5 1.9 3.5 4.4v18.8c0 1-0.7 1.7-1.6 1.7z"/>
</svg>