<svg version="1.1" id="Layer_1" xmlns="http://www.w3.org/2000/svg" x="0" y="0" width="172" height="30" xml:space="preserve"><linearGradient id="SVGID_1_" gradientUnits="userSpaceOnUse" x1="13.67" y1="3.316" x2="61.24" y2="38.604" gradientTransform="matrix(1 0 0 -1 0 32.13)"><stop offset=".25" stop-color="#b08529"/><stop offset=".81" stop-color="#c99d3d"/><stop offset="1" stop-color="#b88d31"/></linearGradient><path d="M33.1 29.8C19.9 29.1 7.8 22.1.6 11.1c3.5 5.3 12.4 7.6 18.2 7 7.2-.7 13.7-5.5 19.5-9.6C45 3.6 52.1 0 60.5.1c4.7.1 12 4 9.6 10.7-.4.9-.8 1.8-1.4 2.5C60.3 24.4 47 30.6 33.1 29.8z" fill="url(#SVGID_1_)"/><linearGradient id="SVGID_2_" gradientUnits="userSpaceOnUse" x1="57.695" y1="2.952" x2="10.114" y2="38.247" gradientTransform="matrix(1 0 0 -1 0 32.13)"><stop offset="0" stop-color="#b08529" stop-opacity=".9"/><stop offset=".32" stop-color="#efd08e" stop-opacity=".65"/><stop offset=".72" stop-color="#f4d48e" stop-opacity=".9"/><stop offset=".8" stop-color="#f5d692" stop-opacity=".9"/><stop offset=".91" stop-color="#f7db9e" stop-opacity=".95"/><stop offset="1" stop-color="#fae1ad"/></linearGradient><path d="M37.8 29.9c13.2-.8 25.3-7.7 32.5-18.8-3.5 5.3-12.3 7.6-18.2 7-7.2-.7-13.7-5.6-19.5-9.7C25.9 3.7 18.8 0 10.4.1 5.7.2-1.7 4.1.8 10.8c.3.9.8 1.8 1.4 2.5 8.4 11.2 21.7 17.4 35.6 16.6z" fill="url(#SVGID_2_)"/><path d="M87.2 24.9L81.9 7.8v-.3c0-.2.1-.4.2-.6.1-.2.3-.2.6-.2h2.8c.2 0 .5.1.7.2.2.1.3.3.3.5l3.6 12.2 3.8-12.1c.1-.2.2-.4.4-.6.2-.2.5-.3.7-.2h1.9c.3 0 .5.1.7.2.2.1.3.3.4.5l3.8 12.1 3.6-12.2c.1-.2.2-.4.3-.5.2-.1.4-.2.7-.2h2.8c.2 0 .4.1.6.2.2.2.2.4.2.6l-.1.3-5.3 17.2c-.1.3-.2.5-.4.7-.2.2-.5.3-.8.2H101c-.6 0-1.1-.4-1.2-.9l-3.9-11.6-3.8 11.6c-.1.6-.7 1-1.3.9h-2.4c-.6.1-1.1-.3-1.2-.9zm27.9.6c-1-.5-1.8-1.2-2.5-2.1-.6-.8-.9-1.8-.9-2.8 0-1.6.7-3.1 2-4.1 1.7-1.2 3.6-1.9 5.6-2.1l5.1-.7v-.8c.1-.9-.2-1.7-.8-2.4-.7-.6-1.7-.9-2.6-.8-.7 0-1.4.1-2 .4l-1.2.9-.6.6c-.1.3-.3.5-.6.4h-2.9c-.2 0-.4-.1-.6-.2-.2-.2-.3-.4-.2-.6.1-.8.4-1.5.9-2.1.7-.9 1.6-1.6 2.7-2 1.4-.6 2.9-.9 4.5-.9 2.9 0 5 .7 6.4 2 1.4 1.4 2.1 3.2 2 5.1V25c0 .2-.1.5-.2.6-.2.2-.4.3-.6.3h-3.1c-.2 0-.5-.1-.6-.3-.2-.2-.3-.4-.3-.6v-1.5c-.6.8-1.4 1.5-2.3 2-1.2.5-2.4.8-3.7.8-1.3 0-2.5-.3-3.5-.8zm8-4.1c.9-1.1 1.4-2.4 1.3-3.8v-.7l-3.7.6c-2.8.4-4.2 1.4-4.3 2.8 0 .7.4 1.5 1 1.8.7.4 1.5.7 2.3.6 1.3.1 2.6-.4 3.4-1.3zm16.5 4.2c-.2-.2-.4-.4-.5-.7l-7-17.2v-.3c0-.2.1-.4.2-.6.1-.2.3-.2.5-.2h3.1c.5 0 .9.3 1 .7l4.9 12.9 4.9-12.9c.1-.2.2-.4.3-.5.2-.1.4-.2.6-.2h3.1c.2 0 .4.1.6.2.1.2.2.4.2.6v.3l-7 17.2c-.2.6-.7.9-1.3.9h-2.8c-.2.1-.5 0-.8-.2zm16.4-1.7c-1.7-1.8-2.6-4.2-2.6-6.7v-.9c-.1-2.7.7-5.3 2.4-7.3 3.8-3.6 9.7-3.6 13.5 0 1.7 2 2.5 4.6 2.3 7.2v.8c0 .2-.1.5-.3.6-.2.2-.4.3-.7.3h-12.3v.1c0 1.2.4 2.4 1.1 3.4.7.9 1.8 1.4 2.9 1.4 1.4 0 2.6-.6 3.4-1.7.1-.2.3-.4.5-.5.2-.1.4-.1.6-.1h3.3c.2 0 .4.1.6.2.2.1.3.3.3.5-.1.8-.5 1.5-1.1 2.1-.8.9-1.9 1.6-3 2.1-1.4.6-3 .9-4.6.9-2.1.1-4.5-.8-6.3-2.4zm10.6-9.4c.1-1.3-.3-2.6-1.1-3.6-.7-.9-1.9-1.4-3-1.3-1.2-.1-2.3.4-3 1.3-.8 1-1.1 2.2-1.1 3.5v.1h8.2z" fill="#fff"/></svg>