<svg xmlns="http://www.w3.org/2000/svg" height="640" viewBox="-52 0 480 480" width="640"><path d="M183.996 480v-80h-112V296h-64l104-288h256v472zm0 0" fill="#eecfb1"/><path d="M219.598 32h16v16h-16zm-52.903 18.594L180.56 42.6l7.992 13.844-13.863 8.004zm-36.62 42.328l8-13.844 13.848 8-8 13.848zm173.203 100.012l8-13.848 13.848 8.004-8.004 13.844zM119.598 132h16v16h-16zm200 0h16v16h-16zm-189.524 55.07l13.848-8 7.996 13.848-13.848 8zm173.2-100l13.848-7.996 7.996 13.848-13.848 7.996zm-36.6-30.75l7.996-13.84 13.863 8.012-8 13.84zm0 0" fill="#e6a71e"/><path d="M353.703 8l-8.395 41.207A556.74 556.74 0 01110.516 400h73.48v80h184V8zm0 0" fill="#f2c8a0"/><path d="M259.598 208.398h-.64l-63.36-.398-.16.32a71.87 71.87 0 01-39.84-64.082C155.863 105.4 186.56 73.62 225.355 72c33.785-.988 63.71 21.656 71.94 54.438s-7.453 66.88-37.7 81.96zm0 0" fill="#ffcb5a"/><path d="M195.598 208.398c-.082 0-.082-.078-.16-.078l.16-.32 63.36.398L195.598 248zm0 0" fill="#4e4e4e"/><path d="M195.598 248l63.36-39.602h.64V248c-.027 8.824-7.176 15.973-16 16h-32c-8.824-.027-15.973-7.176-16-16zm0 0" fill="#adabac"/><path d="M219.598 32h16v16h-16zm-52.903 18.594L180.56 42.6l7.992 13.844-13.863 8.004zm-36.62 42.328l8-13.844 13.848 8-8 13.848zm173.203 100.012l8-13.848 13.848 8.004-8.004 13.844zM119.598 132h16v16h-16zm200 0h16v16h-16zm-189.524 55.07l13.848-8 7.996 13.848-13.848 8zm173.2-100l13.848-7.996 7.996 13.848-13.848 7.996zm-36.6-30.75l7.996-13.84 13.863 8.012-8 13.84zm0 0" fill="#e6a71e"/><path d="M1.453 300.602A8 8 0 007.996 304h56v96a8 8 0 008 8h104v72h16v-80a8 8 0 00-8-8h-104v-96a8 8 0 00-8-8H19.4l98.207-272h242.398v464h16V8a8 8 0 00-8-8h-256a8 8 0 00-7.52 5.281l-104 288a8 8 0 00.977 7.32zm282.25-214.016a78.95 78.95 0 00-58.168-22.547c-43.2 1.598-77.426 37.023-77.54 80.25.03 28.477 15.3 54.766 40 68.918V248c0 13.254 10.746 24 24 24h32c13.258 0 24-10.746 24-24v-34.793a79.94 79.94 0 0039.395-59.398 79.92 79.92 0 00-23.687-67.223zm-79.707 129.47l27.73.184-27.73 17.363zm40 39.945h-32a7.935 7.935 0 01-6.926-4.23l46.926-29.37V248a8 8 0 01-8 8zm13.9-55.594L197.422 200a63.57 63.57 0 01-33.426-55.77c.066-34.6 27.45-62.95 62.016-64.23h2c29.395-.04 55.02 19.977 62.098 48.504s-6.223 58.203-32.223 71.902zm0 0"/><path d="M219.996 32h16v16h-16zm-52.922 18.47l13.855-8 8 13.855-13.855 8.004zm-36.61 42.464l8-13.86 13.855 8.004-8 13.855zm173.207 100.004l8.004-13.86 13.855 8-8 13.86zM119.996 132h16v16h-16zm200 0h16v16h-16zm-189.523 55.066l13.855-7.996 8 13.855-13.86 8zm173.19-99.992l13.86-8 8 13.86-13.86 7.996zm-36.594-30.75l8-13.855 13.855 8-8 13.855zm0 0"/></svg>