<svg xmlns="http://www.w3.org/2000/svg" viewBox="0 0 512.073 512.073"><path d="M489.106 8.475V322.06H217.898l25.425-25.426 42.377-8.476v-33.9h-50.852L183.996 305.1V8.475z" fill="#daeff6"/><path d="M489.106 330.536H192.972v-16.95h287.66V16.95h-288.16v305.1h-16.95V8.475A8.48 8.48 0 01183.996 0h305.1a8.48 8.48 0 018.475 8.475V322.06a8.48 8.48 0 01-8.475 8.476z" fill="#454545"/><path d="M285.7 254.258v33.9l-42.377 8.476-8.475 8.475-25.426-25.426 25.426-25.426z" fill="#f5d0c7"/><path d="M234.848 305.1l-84.753 84.753-33.9-33.9V305.1l33.9 33.9 59.327-59.327zM22.966 440.714h93.228v59.327H22.966z" fill="#62beff"/><path d="M116.194 404.27v36.444H22.966V254.258h42.376c28.087 0 50.852 22.765 50.852 50.852v50.852L77.97 317.738a17.87 17.87 0 00-25.256.169c-6.924 7.017-6.848 18.332.17 25.256l63.3 61.108z" fill="#00448f"/><path d="M116.194 364.437v39.834l-63.3-61.107c-7.018-6.924-7.094-18.24-.17-25.256s18.24-7.094 25.256-.17l38.224 38.223v8.475z" fill="#62beff"/><path d="M116.194 144.08v42.376c0 23.4-18.976 42.376-42.376 42.376H22.966V144.08h93.228z" fill="#f5d0c7"/><path d="M116.194 110.18v33.9H22.966c0-18.722 15.18-33.9 33.9-33.9h59.327z" fill="#ffcb5a"/><path d="M328.076 322.06h16.95v135.604h-16.95zM496.844 505.1l-15.444 6.97-84.173-186.495 15.444-6.97zM275.866 325.546l-84.15 186.487-15.443-6.968 84.15-186.487z" fill="#454545"/><path d="M56.867 186.456h-16.95v-16.95a8.48 8.48 0 018.475-8.475h16.95v16.95h-8.475v8.475z" fill="#e3baaf"/><path d="M455.205 101.703h-33.9v16.95h13.442l-38.868 38.868-19.434-19.434c-3.305-3.305-8.68-3.305-11.984 0l-61.8 61.8-36.384-36.384c-3.305-3.305-8.68-3.305-11.984 0L211.906 205.9l11.984 11.984 36.384-36.384 36.384 36.384c3.305 3.305 8.68 3.305 11.984 0l61.8-61.8 19.434 19.434c3.305 3.305 8.68 3.305 11.984 0l44.86-44.86V144.1h16.95v-33.9a8.48 8.48 0 00-8.476-8.476z" fill="#fb5968"/><path d="M294.175 423.764l-33.9 33.9-33.9-33.9h-4.153l15.34-33.9h22.714z" fill="#f5d0c7"/><path d="M237.56 389.863l-15.34 33.9h-84.922c-.51 0-9.153-8.052-21.103-19.493v-48.31l33.9 33.9h87.464z" fill="#62beff"/><path d="M418.058 330.536h71.048a8.48 8.48 0 008.475-8.475V8.475A8.48 8.48 0 00489.106 0h-305.1a8.48 8.48 0 00-8.475 8.475V301.6l-25.426 25.426-25.612-25.612c-1.95-31.24-27.84-55.598-59.14-55.632H22.966a8.48 8.48 0 00-8.475 8.475V500.04a8.48 8.48 0 008.475 8.475h93.228a8.48 8.48 0 008.475-8.475V424c9.136 8.22 10.382 8.238 12.586 8.238h71.88l-32.86 72.794L191.717 512l34.494-76.413 28.07 28.07c3.305 3.305 8.68 3.305 11.984 0l33.9-33.9c3.305-3.305 3.305-8.68 0-11.984l-33.9-33.9a8.47 8.47 0 00-5.992-2.483h-9.594l22.95-50.852h54.445v127.13h16.95v-127.13h54.445L481.385 512l15.442-6.967-78.77-174.497zM192.472 16.95h288.16v296.635H238.357l9.145-9.145 39.834-7.975a8.487 8.487 0 006.84-8.306v-33.9a8.48 8.48 0 00-8.475-8.475H234.85c-2.246 0-4.407.9-5.992 2.483l-36.384 36.384-.001-267.7zm44.86 273.692l-2.483 2.483-13.442-13.442 16.95-16.95h38.868v18.485l-35.596 7.11a8.42 8.42 0 00-4.298 2.314zm-81.244 54.36l53.335-53.335 13.442 13.442-72.77 72.77-25.426-25.426V325.57l19.434 19.434c3.306 3.306 8.67 3.306 11.984 0zm-48.368 39.46L58.774 337.07a9.373 9.373 0 01-.153-13.255l.085-.085a9.41 9.41 0 0113.272 0l35.74 35.74v24.994zm0 107.102H31.44V449.2h76.278v42.376zm0-59.327H31.44V262.734h33.9c23.392.025 42.35 18.985 42.376 42.376v30.392l-23.73-23.73c-10.272-10.297-26.95-10.314-37.25-.042a26.317 26.317 0 00-7.738 18.807 26.078 26.078 0 007.95 18.646l60.768 58.886v24.17zm32.528-16.95c-2.543-2.263-7.568-6.958-15.578-14.586V376.42l19.434 19.434a8.155 8.155 0 002.77 1.84 8.43 8.43 0 003.221.644h74.337l-7.628 16.95h-76.557zm116.518-16.95l25.426 25.426-21.917 21.917-26.604-26.612 9.357-20.73h13.738zm-24.68-16.95h-61.53l50.852-50.852h33.638l-22.96 50.852z"/><path d="M22.966 237.308h50.852c28.07-.025 50.826-22.782 50.852-50.852v-76.278a8.48 8.48 0 00-8.475-8.475H56.867c-23.392.025-42.35 18.985-42.376 42.376v84.753a8.472 8.472 0 008.475 8.476zm50.852-16.95H31.44v-67.802h76.278v33.9c0 18.722-15.18 33.9-33.9 33.9zm-16.95-101.703h50.852v16.95H33a25.42 25.42 0 0123.866-16.95zm-16.95 50.85v16.95h16.95v-8.475h8.475v-16.95h-16.95a8.473 8.473 0 00-8.475 8.476zm256.74 48.368c3.305 3.305 8.68 3.305 11.984 0l61.8-61.8 19.434 19.434c3.305 3.305 8.68 3.305 11.984 0l44.86-44.86V144.1h16.95v-33.9a8.48 8.48 0 00-8.475-8.475h-33.9v16.95h13.442l-38.868 38.868-19.434-19.434c-3.305-3.305-8.68-3.305-11.984 0l-61.8 61.8-36.384-36.384c-3.305-3.305-8.68-3.305-11.984 0l-42.376 42.376 11.984 11.984 36.384-36.384 36.383 36.383z"/></svg>