<svg xmlns="http://www.w3.org/2000/svg" height="640" viewBox="-31 0 479 480" width="640"><path d="M272.5 354.64V400h-128v-45.36a160 160 0 00128 0zm0 0" fill="#e6a71e"/><path d="M272.5 354.64c-64.848 28.3-140.582 10.648-186.238-43.406S35.88 179.56 74.637 120.36s111.785-85.9 179.6-65.687S368.5 137.246 368.5 208c.16 63.668-37.586 121.32-96 146.64zm0 0" fill="#fecf2c"/><path d="M293.38 161.36c20.438 45.012 8.773 98.105-28.645 130.4s-91.648 36.086-133.195 9.297-60.473-77.75-46.488-125.164S142.586 95.957 192.02 96c43.707-.062 83.383 25.523 101.36 65.36zm0 0" fill="#e6a71e"/><path d="M336.5 208h-32.96a110.994 110.994 0 00-10.16-46.64l3.12-1.36h29.28a112.23 112.23 0 0110.719 48zm0 0" fill="#e69e00"/><path d="M325.78 160H296.5l-3.12 1.36C275.3 121.602 235.7 96.055 192.02 96h32.96a111.55 111.55 0 01100.801 64zm-21.28 48h32a112.23 112.23 0 01-10.719 48H296.5l-3.12-1.36A111 111 0 00303.54 208zm0 0" fill="#d69706"/><path d="M296.5 256h29.28a111.55 111.55 0 01-100.801 64h-32.96c43.672-.055 83.29-25.602 101.36-65.36zm0 0" fill="#e69e00"/><path d="M392.5 200h24v16h-24zm-28.645-90.934L384.64 97.07l7.996 13.855-20.785 12zm-70.29-64.418l12-20.785 13.855 8-11.996 20.785zm70.29 262.282l8-13.855 20.785 12-8.004 13.855zm0 0" fill="#e6a71e"/><path d="M192.02 295.863c-48.406-.148-87.56-39.453-87.52-87.863h16c.184 39.46 32.293 71.316 71.754 71.2s71.367-32.184 71.3-71.645-32.074-71.414-71.535-71.4v-16c48.527 0 87.863 39.336 87.863 87.863s-39.336 87.863-87.863 87.863zm-65.665-116.36l-14.656-6.336a87.88 87.88 0 0117.746-26.504l11.47 11.152a71.89 71.89 0 00-14.56 21.688zm0 0" fill="#d69706"/><path d="M272.5 400h-128v38.113c0 6.06 3.426 11.602 8.848 14.313L160.5 456c0 8.836 7.164 16 16 16h64c8.836 0 16-7.164 16-16l7.152-3.574a16.005 16.005 0 008.848-14.312zm0 0" fill="#4e4e4e"/><path d="M.5 200h24v16H.5zm23.863 105.07l20.785-11.996 8 13.855-20.785 12zm73.207 79.067l12-20.785 13.855 8-11.996 20.785zM200.5 0h16v24h-16zM97.574 31.863l13.855-8 12 20.78-13.86 8zm195.996 339.48l13.855-7.996 12 20.78-13.855 8zM24.363 110.926l8-13.855 20.785 12-8 13.855zm0 0" fill="#e6a71e"/><path d="M224.98 88h-46.473v.8c-60.426 7.117-105.96 58.332-105.96 119.176s45.535 112.06 105.96 119.176V328h46.473c66.273 0 120-53.727 120-120s-53.727-120-120-120zm86.16 128h16.96a103.77 103.77 0 01-7.602 32h-15.93a119.174 119.174 0 006.57-32zm0-16a118.79 118.79 0 00-6.57-32h15.93c4.2 10.195 6.773 21 7.586 32zm.934-48h-14.398a120.48 120.48 0 00-35.465-40.937c20.54 8.02 38 22.355 49.863 40.938zM88.5 208c.262-57.117 46.727-103.23 103.844-103.055s103.3 46.574 103.2 103.688S249.137 312.004 192.02 312c-57.277-.2-103.586-46.723-103.52-104zm173.687 96.938A120.52 120.52 0 00297.652 264h14.398a104.067 104.067 0 01-49.863 40.938zM279.547 208c.043-48.4-39.117-87.72-87.527-87.863v16a71.87 71.87 0 0166.64 44.12c11.234 26.84 5.168 57.8-15.36 78.434a71.87 71.87 0 01-78.359 15.734c-26.894-11.1-44.44-37.327-44.44-66.425h-16a87.534 87.534 0 0043.52 76.5 87.54 87.54 0 0088.012 0 87.532 87.532 0 0043.516-76.5zm0 0"/><path d="M140.883 157.816L129.4 146.664a87.84 87.84 0 00-17.71 26.504l14.688 6.336a71.903 71.903 0 0114.496-21.687zM376.5 208c.113-83.27-60.785-154.055-143.137-166.38s-161.3 37.536-185.57 117.2S61.266 323.875 136.5 359.56v78.555a23.86 23.86 0 0013.266 21.461l3.3 1.656A24.01 24.01 0 00176.5 480h64a24.01 24.01 0 0023.426-18.77l3.3-1.656a23.86 23.86 0 0013.266-21.461V359.56A168.06 168.06 0 00376.5 208zm-112 230.113a7.96 7.96 0 01-4.426 7.152l-7.148 3.574A8 8 0 00248.5 456a8 8 0 01-8 8h-64a8 8 0 01-8-8 8 8 0 00-4.426-7.2l-7.148-3.578a7.94 7.94 0 01-4.426-7.1V408h112zm0-46.113h-112v-25.8a164.91 164.91 0 00112 0zm-56-32c-83.95 0-152-68.05-152-152s68.05-152 152-152 152 68.05 152 152c-.094 83.9-68.1 151.906-152 152zm184-160h24v16h-24zm-392 0h24v16H.5zm363.352-90.898l20.78-12 8 13.855-20.78 12zM24.36 305.078l20.785-12.004 8 13.855-20.785 12.004zm0 0"/><path d="M293.57 44.648l12-20.785 13.855 8-12 20.785zM97.566 384.125l12-20.785 13.855 8-12 20.785zM200.5 0h16v24h-16zM97.566 31.863l13.86-8 11.996 20.8-13.855 7.996zM293.574 371.34l13.86-8 11.996 20.785-13.855 8zm-269.21-260.4l7.996-13.86 20.785 12-7.996 13.855zm339.492 196l8-13.855 20.785 12-8.004 13.855zm0 0"/></svg>