<svg xmlns="http://www.w3.org/2000/svg" viewBox="0 0 511.983 511.983"><path d="M501.048 8.45v312.66H10.935V8.45h490.113zm-50.7 71.827c0-11.67-9.456-21.126-21.126-21.126s-21.126 9.456-21.126 21.126 9.456 21.126 21.126 21.126 21.126-9.456 21.126-21.126zm-84.502 42.25c0-11.67-9.456-21.126-21.126-21.126s-21.126 9.456-21.126 21.126 9.456 21.126 21.126 21.126 21.126-9.456 21.126-21.126zM281.342 223.93c0-11.67-9.456-21.126-21.126-21.126S239.1 212.26 239.1 223.93s9.456 21.126 21.126 21.126c11.662 0 21.126-9.456 21.126-21.126zM188.4 164.78c0-11.67-9.456-21.126-21.126-21.126s-21.126 9.456-21.126 21.126 9.456 21.126 21.126 21.126S188.4 176.45 188.4 164.78zm-84.503 84.502c0-11.67-9.456-21.126-21.126-21.126s-21.126 9.456-21.126 21.126 9.456 21.126 21.126 21.126 21.126-9.456 21.126-21.126z" fill="#62beff"/><g fill="#00448f"><circle cx="429.221" cy="80.277" r="21.126"/><circle cx="344.719" cy="122.528" r="21.126"/><circle cx="260.217" cy="223.931" r="21.126"/><circle cx="167.264" cy="164.78" r="21.126"/><circle cx="82.762" cy="249.282" r="21.126"/></g><g fill="#454545"><path d="M501.048 329.56H10.935a8.453 8.453 0 01-8.45-8.45V8.45C2.484 3.786 6.27 0 10.935 0H501.05a8.453 8.453 0 018.45 8.45v312.66a8.453 8.453 0 01-8.45 8.45zm-481.663-16.9h473.213V16.9H19.385v295.76z"/><path d="M247.584 321.11h16.9v135.204h-16.9z"/><path d="M247.584 456.313h16.9v50.7h-16.9z"/></g><path d="M167.264 194.355c-16.334 0-29.576-13.242-29.576-29.576s13.242-29.576 29.576-29.576 29.576 13.242 29.576 29.576-13.242 29.576-29.576 29.576zm0-42.25c-6.997 0-12.675 5.68-12.675 12.675s5.68 12.675 12.675 12.675 12.675-5.68 12.675-12.675-5.678-12.675-12.675-12.675zM82.762 278.858c-16.334 0-29.576-13.242-29.576-29.576s13.242-29.576 29.576-29.576 29.576 13.242 29.576 29.576-13.242 29.576-29.576 29.576zm0-42.25c-6.997 0-12.675 5.68-12.675 12.675s5.68 12.675 12.675 12.675 12.675-5.68 12.675-12.675c0-6.997-5.68-12.675-12.675-12.675zm177.455 16.9c-16.334 0-29.576-13.242-29.576-29.576s13.242-29.576 29.576-29.576 29.576 13.242 29.576 29.576-13.242 29.576-29.576 29.576zm0-42.25c-6.997 0-12.675 5.68-12.675 12.675s5.68 12.675 12.675 12.675 12.675-5.68 12.675-12.675-5.68-12.675-12.675-12.675zm84.503-59.153c-16.334 0-29.576-13.242-29.576-29.576s13.242-29.576 29.576-29.576 29.576 13.242 29.576 29.576-13.242 29.576-29.576 29.576zm0-42.25c-6.997 0-12.675 5.68-12.675 12.675s5.68 12.675 12.675 12.675 12.675-5.68 12.675-12.675-5.678-12.675-12.675-12.675zm84.5-.001c-16.334 0-29.576-13.242-29.576-29.576S412.887 50.7 429.22 50.7s29.576 13.242 29.576 29.576-13.24 29.576-29.576 29.576zm0-42.25c-6.997 0-12.675 5.68-12.675 12.675s5.68 12.675 12.675 12.675 12.675-5.68 12.675-12.675a12.68 12.68 0 00-12.675-12.675zM143.66 200.328l-25.352 25.352-11.95-11.95 25.352-25.352zm180.766-40.098l-27.726 33.3-13-10.8 27.725-33.3zm73.254-54.745l-12.76 6.338-7.52-15.137 12.76-6.338zM231.3 194.73l-9.28 14.126-20.702-13.6 9.28-14.126z" fill="#ffdb6f"/><path d="M507.9 501.976l-13.667 9.94L359.05 326.042l13.667-9.94zM152.984 326.108L17.74 511.966 4.073 502.02l135.245-185.858z" fill="#454545"/><path d="M10.935 329.56h118.608L4.098 502.046l13.672 9.937L150.44 329.56h97.102v177.455h16.9V329.56h97.102l132.67 182.424 13.672-9.937L382.44 329.56h118.6a8.453 8.453 0 008.45-8.45V8.45A8.453 8.453 0 00501.04 0H10.935a8.453 8.453 0 00-8.45 8.45V321.1a8.45 8.45 0 008.45 8.45zm8.45-312.66h473.213v295.758H19.385V16.9zm147.88 118.304c-16.334 0-29.576 13.242-29.576 29.576s13.242 29.576 29.576 29.576 29.576-13.242 29.576-29.576c0-16.335-13.242-29.576-29.576-29.576zm0 42.25c-6.997 0-12.675-5.68-12.675-12.675s5.68-12.675 12.675-12.675 12.675 5.68 12.675 12.675-5.678 12.675-12.675 12.675zm-84.502 42.252c-16.334 0-29.576 13.242-29.576 29.576s13.242 29.576 29.576 29.576 29.576-13.242 29.576-29.576-13.242-29.576-29.576-29.576zm0 42.25c-6.997 0-12.675-5.68-12.675-12.675s5.68-12.675 12.675-12.675 12.675 5.68 12.675 12.675-5.68 12.675-12.675 12.675zm177.455-67.6c-16.334 0-29.576 13.242-29.576 29.576s13.242 29.576 29.576 29.576 29.576-13.242 29.576-29.576-13.242-29.576-29.576-29.576zm0 42.252c-6.997 0-12.675-5.68-12.675-12.675s5.68-12.675 12.675-12.675 12.675 5.68 12.675 12.675-5.68 12.675-12.675 12.675zM344.72 92.953c-16.334 0-29.576 13.242-29.576 29.576s13.242 29.576 29.576 29.576 29.576-13.242 29.576-29.576-13.242-29.576-29.576-29.576zm0 42.25c-6.997 0-12.675-5.68-12.675-12.675s5.68-12.675 12.675-12.675 12.675 5.68 12.675 12.675-5.678 12.675-12.675 12.675zm84.5-84.503c-16.334 0-29.576 13.242-29.576 29.576s13.242 29.576 29.576 29.576 29.576-13.242 29.576-29.576S445.556 50.7 429.22 50.7zm0 42.252c-6.997 0-12.675-5.68-12.675-12.675s5.68-12.675 12.675-12.675 12.675 5.68 12.675 12.675-5.678 12.675-12.675 12.675zM143.66 200.328l-25.352 25.352-11.95-11.95 25.352-25.352zm180.556-40.013l-27.703 33.242-12.983-10.82 27.703-33.242zm73.517-54.852l-12.78 6.4-7.558-15.115 12.78-6.4zM231.315 194.74L222 208.846l-20.65-13.622 9.305-14.106z"/></svg>