<svg xmlns="http://www.w3.org/2000/svg" height="640" viewBox="0 0 480.001 480" width="640"><path d="M160 7.97c74.805.012 138.488 54.43 150.16 128.32a152.09 152.09 0 00-108.82 56.742 152.1 152.1 0 00-31.5 118.617c-3.28.238-6.56.32-9.84.32a152.091 152.091 0 01-55.84-10.723L24 343.97l16-90.883C4.37 207.285-2.043 145.18 23.473 93.063S101.973 7.918 160 7.97zm0 0" fill="#fecf2c"/><path d="M173.84 246.207v-.078a146.67 146.67 0 0116.402-37.281 144.104 144.104 0 0125.68-31.52v-.082s.078-.078.078 0v-.078a151 151 0 0194.16-40.879c3.28-.242 6.56-.32 9.84-.32 58.03-.05 111.016 32.973 136.53 85.094s19.1 114.222-16.53 160.023l16 90.883-80.16-42.723c-46.785 18.555-99.727 12.72-141.348-15.574S167.965 338.297 168 287.97a150.161 150.161 0 015.84-41.762zm0 0" fill="#0f71c7"/><path d="M216 231.97h208v112H216zm0 0" fill="#6fb944"/><path d="M320 319.97c-17.672 0-32-14.328-32-32s14.328-32 32-32 32 14.324 32 32-14.328 32-32 32zm80-40c-13.254 0-24-10.746-24-24h16a8 8 0 008 8zm-8 40h-16c0-13.258 10.746-24 24-24v16a8 8 0 00-8 8zm-152-40v-16a8 8 0 008-8h16c0 13.254-10.746 24-24 24zm24 40h-16a8 8 0 00-8-8v-16c13.254 0 24 10.742 24 24zm0 0" fill="#2d8e43"/><path d="M190.242 208.848a146.67 146.67 0 00-16.402 37.281v.078a91.78 91.78 0 01-17.84 1.762c-33.12 0-60-17.922-60-40v-32c0 22.078 26.88 40 60 40a82.4 82.4 0 0034.242-7.12zM156 151.97c33.12 0 60-17.922 60-40v32c0 22.078-26.88 40-60 40s-60-17.922-60-40v-32c0 22.078 26.88 40 60 40zm0 0" fill="#de722a"/><path d="M156 183.97c33.12 0 60-17.922 60-40v32a6.66 6.66 0 01-.078 1.277v.082a144.11 144.11 0 00-25.68 31.52 82.25 82.25 0 01-34.242 7.12c-33.12 0-60-17.922-60-40v-32c0 22.078 26.88 40 60 40zm60-72c0-22.094-26.863-40-60-40s-60 17.906-60 40 26.863 40 60 40 60-17.9 60-40zm0 0" fill="#f29a2b"/><path d="M320 127.97c-1.13 0-2.215.145-3.336.168C300.336 47.63 225.668-7.414 143.934.8S-.02 77.82 0 159.97a158.42 158.42 0 0031.512 95.199L16.13 342.582a7.994 7.994 0 003.184 7.855 8.01 8.01 0 008.457.586l76.94-41.008a157.49 157.49 0 0058.488 9.953A159.73 159.73 0 00375.32 438l76.914 41.023a8.018 8.018 0 008.457-.586 8 8 0 003.18-7.863l-15.422-87.406a158.207 158.207 0 0031.55-95.2c-.102-88.324-71.676-159.898-160-160zM107.1 293.8a8.07 8.07 0 00-6.699.391l-65.664 34.992 13.145-74.7a8 8 0 00-1.551-6.289A142.7 142.7 0 0116 159.969C15.96 86.422 71.375 24.672 144.496 16.785s140.43 40.617 156.082 112.477A158.844 158.844 0 00224 160.274V111.97c0-26.914-29.863-48-68-48s-68 21.086-68 48v96c0 26.9 29.863 48 68 48 2.457 0 4.87-.176 7.297-.36A159.93 159.93 0 00160 287.969c0 5.406.3 10.758.8 16a142.66 142.66 0 01-53.7-10.168zm60.63-54.754a83.43 83.43 0 01-11.719.922c-28.184 0-52-14.656-52-32v-.8a81.68 81.68 0 0052 16.801 96.36 96.36 0 0018.313-1.793 160.35 160.35 0 00-6.594 16.871zM104 143.168a81.68 81.68 0 0052 16.801 81.68 81.68 0 0052-16.8v.8c0 17.344-23.816 32-52 32s-52-14.656-52-32zm0-31.2c0-17.344 23.816-32 52-32s52 14.656 52 32-23.816 32-52 32-52-14.656-52-32zm81.113 90.313A74.74 74.74 0 01156 207.969c-28.184 0-52-14.656-52-32v-.8a81.68 81.68 0 0052 16.801 84.57 84.57 0 0047.648-13.488 161.58 161.58 0 00-18.535 23.8zm248.535 173.887a8.007 8.007 0 00-1.602 6.305l13.176 74.703-65.598-35.008a7.972 7.972 0 00-6.7-.375c-67.238 26.695-143.852-.484-179.23-63.586s-18.605-142.64 39.242-186.082 138.914-37.36 189.645 14.215 55.46 132.73 11.07 189.852zM208 231.97v112a8 8 0 008 8h208a8 8 0 008-8v-112a8 8 0 00-8-8H216a8 8 0 00-8 8zm16 8h192v96H224zm0 0"/><path d="M320 255.97c-17.672 0-32 14.324-32 32s14.328 32 32 32 32-14.328 32-32-14.328-32-32-32zm0 48c-8.836 0-16-7.164-16-16s7.164-16 16-16 16 7.164 16 16-7.164 16-16 16zm72-48h-16c0 13.254 10.746 24 24 24v-16a8 8 0 01-8-8zm-16 64h16a8 8 0 018-8v-16c-13.254 0-24 10.742-24 24zm-136-56v16c13.254 0 24-10.746 24-24h-16a8 8 0 01-8 8zm0 32v16a8 8 0 018 8h16c0-13.258-10.746-24-24-24zm0 0"/></svg>