<svg xmlns="http://www.w3.org/2000/svg" height="640" viewBox="0 0 480.009 480" width="640"><path d="M448.008 272.004l24 200h-64v-168zm-296 8l56 88-24 32-69.36-115.598zm144.242 6.32l-.242 1.68-64 112-24-32 48-88zm0 0" fill="#0f71c7"/><path d="M408.008 304.004v168h-400l8-176 98.64-11.598 69.36 115.598 24-32 24 32 64-112 .242-1.68zm0 0" fill="#168de2"/><g fill="#eecfb1"><path d="M448.008 272.004l-40 32-38.48-46.16 6-24.078 24.48-9.762zm-136-264l72 144h-48v72h-80v56l-48 88-56-88v-272zm0 0"/><path d="M342.406 276.805l-12.797-9.602 24-32a8.04 8.04 0 013.414-2.62l40-16 5.938 14.863-37.914 15.16zm0 0"/><path d="M376.008 288.004h-16v-24c0-.645.078-1.285.23-1.9l8.05-32.19 15.438 4.207-.477 1.758-7.242 29.113zm0 0"/></g><path d="M224.008 152.004h16v16h-16zm0-16a58.65 58.65 0 0122.977-45.262 24 24 0 000-37.531 24.02 24.02 0 00-20.695-4.535 23.598 23.598 0 00-17.602 17.855 24.05 24.05 0 005.375 21.395l-12 10.56a40 40 0 01-5.738-44.477 40.01 40.01 0 1160.723 49.223 42.68 42.68 0 00-17.039 32.695zm0 0" fill="#ee3446"/><path d="M416.008 240.004l-49.887-24h-30.113v-16h32c1.242 0 2.465.29 3.578.84l32 16zm0 0" fill="#eecfb1"/><path d="M8.008 480.004h464a8 8 0 005.984-2.687 8.014 8.014 0 001.96-6.266l-24-200h-.168a7.88 7.88 0 00-2.121-4.719l-48-48a7.84 7.84 0 00-2.09-1.473l-32-16a7.97 7.97 0 00-3.566-.855h-24v-40h40a8 8 0 007.199-11.574l-72-144a8 8 0 00-7.2-4.426h-160a8 8 0 00-8 8v264.9l-128.937 15.2a8 8 0 00-7.062 7.551l-8 176a8.068 8.068 0 002.2 5.9 8.01 8.01 0 005.79 2.47zm252.32-191.2l25.344 4-40.328 107.512-27.734-33.254zm-44.32 175.2v-73.902l25.855 31.023a8 8 0 006.145 2.88 7.55 7.55 0 001.336-.11 8 8 0 006.16-5.082l46.305-123.48 98.2 15.504v153.168zm200 0v-156.16l25.77-20.64 21.215 176.8zm20-192.664l-26.895 21.52-30.84-37.008 4-16.16 15.742-6.305zm-69.887-55.336l14.398 7.2-23.465 9.387a8.02 8.02 0 00-3.422 2.629l-24 32 12.8 9.602 21.23-28.305-3.4 13.602a7.91 7.91 0 00-.266 1.887v24h16v-9.902l12.242 14.703-124.242-19.633v-41.168h72a8 8 0 008-8v-8zm-59.06-200l64 128h-35.055a8 8 0 00-8 8v24h-6.113a84.25 84.25 0 00-37.461 8.84l7.152 14.32a68.116 68.116 0 0130.3-7.16h6.113v24h-72a8 8 0 00-8 8v53.96L207.48 352.27l-47.473-74.602V16.004zM147.953 288.54l50.168 78.832-27.77 33.32-45.078-109.488zM23.688 303.156l85.12-10.008 51.84 125.902a8 8 0 006.188 4.863 8.01 8.01 0 007.355-2.789l25.816-31.023v73.902H16.375zm200.32-151.152h16v16h-16zm0 0"/><path d="M214.008 87.875a24.13 24.13 0 01-5.406-21.328 24 24 0 0121.633-18.461A24.002 24.002 0 01247 90.734a58.486 58.486 0 00-22.992 45.27l16-.078a42.59 42.59 0 0117.023-32.723 39.99 39.99 0 0014.98-31.27 40 40 0 00-15.074-31.227c-16.22-12.93-39.63-11.32-53.922 3.707s-14.734 38.488-1.008 54.04zm0 0"/></svg>