<svg xmlns="http://www.w3.org/2000/svg" xmlns:xlink="http://www.w3.org/1999/xlink" viewBox="0 0 512.002 512.002"><path d="M495.215 121.703L360.92 222.424V163.67H235.018V71.342H360.92V12.588z" fill="#ffcb5a"/><path d="M268.592 348.326v92.328H109.116v58.754L8.395 390.293l100.72-100.72v58.754z" fill="#00448f"/><path d="M109.116 507.8a8.396 8.396 0 01-6.17-2.694L2.226 395.992a8.4 8.4 0 01.235-11.633l100.72-100.72c3.282-3.273 8.595-3.273 11.868 0a8.37 8.37 0 012.46 5.934v50.36H268.59a8.4 8.4 0 018.393 8.393v92.328a8.4 8.4 0 01-8.393 8.393H117.5v50.36a8.391 8.391 0 01-8.394 8.393zm-89.08-117.28l80.686 87.418v-37.284a8.4 8.4 0 018.393-8.393h151.082v-75.54H109.116a8.4 8.4 0 01-8.393-8.393v-38.492L20.037 390.52z" fill="#168de2"/><g fill="#f5b05c"><path d="M360.92 230.818a8.4 8.4 0 01-8.393-8.393v-50.36h-117.5a8.4 8.4 0 01-8.393-8.393v-92.33a8.4 8.4 0 018.393-8.393h117.508V12.59a8.39 8.39 0 018.402-8.385 8.4 8.4 0 015.28 1.872L500.503 115.2a8.39 8.39 0 011.225 11.8 8.44 8.44 0 01-1.477 1.418L365.956 229.14a8.37 8.37 0 01-5.036 1.679zm-117.508-75.54H360.92a8.4 8.4 0 018.393 8.393v41.967l112.262-84.195-112.262-91.228v41.128a8.4 8.4 0 01-8.393 8.393H243.412v75.542zM142.7 62.95h67.148v16.787H142.7z"/><use xlink:href="#B"/><path d="M33.575 113.3H92.33v16.787H33.575zm142.69 41.977h33.574v16.787h-33.574zm-83.934 0h50.36v16.787H92.33zm-33.574 0h16.787v16.787H58.756zm-33.574 0H41.97v16.787H25.182z"/><use xlink:href="#B" x="25.181" y="50.35"/><path d="M167.87 113.3h41.967v16.787H167.87zm-167.868 0H16.8v16.787H.002z"/></g><g fill="#168de2"><path d="M293.772 339.932h83.934v16.787h-83.934z"/><use xlink:href="#B" x="285.377" y="276.982"/><path d="M411.28 390.293h58.754v16.787H411.28z"/><use xlink:href="#B" x="184.656" y="369.31"/><path d="M386.1 432.26h50.36v16.787H386.1z"/><use xlink:href="#B" x="344.132" y="369.31"/><use xlink:href="#B" x="386.099" y="369.31"/><path d="M360.92 390.293h16.787v16.787H360.92zm-67.148 0h50.36v16.787h-50.36zm193.048 0h16.787v16.787H486.82z"/><use xlink:href="#B" x="218.23" y="369.31"/><path d="M453.248 339.932h50.36v16.787h-50.36z"/></g><path d="M8.395 62.95h50.36v16.787H8.395z" fill="#f5b05c"/><path d="M109.116 507.8a8.4 8.4 0 008.393-8.393v-50.36H268.6a8.4 8.4 0 008.393-8.393v-92.328a8.4 8.4 0 00-8.393-8.393H117.5v-50.36a8.4 8.4 0 00-8.393-8.393 8.38 8.38 0 00-5.934 2.46L2.46 384.36a8.377 8.377 0 00-.235 11.633l100.72 109.115a8.41 8.41 0 006.17 2.694zm-8.393-29.864L20.037 390.52l80.686-80.686v38.492a8.4 8.4 0 008.393 8.393h151.082v75.54H109.116a8.4 8.4 0 00-8.393 8.393v37.284zM500.503 115.2L366.208 6.075a8.4 8.4 0 00-11.81 1.234 8.38 8.38 0 00-1.872 5.279v50.36H235.018a8.4 8.4 0 00-8.393 8.393v92.328a8.4 8.4 0 008.393 8.393h117.508v50.36a8.4 8.4 0 008.393 8.393 8.39 8.39 0 005.036-1.679l134.295-100.72a8.39 8.39 0 001.67-11.751 7.62 7.62 0 00-1.417-1.476zm-131.2 90.447V163.67a8.4 8.4 0 00-8.393-8.393H243.412v-75.54H360.92a8.4 8.4 0 008.393-8.393v-41.13l112.262 91.228-112.262 84.195zM142.7 62.95h67.148v16.787H142.7z"/><use xlink:href="#B"/><path d="M33.575 113.3H92.33v16.787H33.575zm142.69 41.977h33.574v16.787h-33.574zm-83.934 0h50.36v16.787H92.33zm-33.574 0h16.787v16.787H58.756zm-33.574 0H41.97v16.787H25.182z"/><use xlink:href="#B" x="25.181" y="50.35"/><path d="M167.87 113.3h41.967v16.787H167.87zm-167.868 0H16.8v16.787H.002zm293.77 226.632h83.934v16.787h-83.934z"/><use xlink:href="#B" x="285.377" y="276.982"/><path d="M411.28 390.293h58.754v16.787H411.28z"/><use xlink:href="#B" x="184.656" y="369.31"/><path d="M386.1 432.26h50.36v16.787H386.1z"/><use xlink:href="#B" x="344.132" y="369.31"/><use xlink:href="#B" x="386.099" y="369.31"/><path d="M360.92 390.293h16.787v16.787H360.92zm-67.148 0h50.36v16.787h-50.36zm193.048 0h16.787v16.787H486.82z"/><use xlink:href="#B" x="218.23" y="369.31"/><path d="M453.248 339.932h50.36v16.787h-50.36zM8.395 62.95h50.36v16.787H8.395z"/><defs><path id="B" d="M109.116 62.95h16.787v16.787h-16.787z"/></defs></svg>