<svg xmlns="http://www.w3.org/2000/svg" height="640" viewBox="-31 0 479 480" width="640"><g fill="#eecfb1"><path d="M296.5 101.602V64c0-30.93 25.07-56 56-56v160l40 192v48h-120v-40l-10.48 2.078A304.126 304.126 0 01202.422 376H96.5c0-30.93 25.07-56 56-56h32c26.508 0 48-21.492 48-48-.04-26.492-21.508-47.96-48-48h-48c-30.93 0-56-25.07-56-56h184.32l-3.2-6.88-36.723-78.723a55.925 55.925 0 01-1.898-42.805A55.93 55.93 0 01251.941 8zm0 0"/><path d="M261.62 161.12l3.2 6.88h-82.16l-24.48-20.56c-23.676-19.887-26.754-55.2-6.88-78.883zm0 0"/></g><path d="M144.5 276c0 37.555-30.445 68-68 68s-68-30.445-68-68 30.445-68 68-68 68 30.445 68 68zm0 0" fill="#f29a2b"/><path d="M76.5 320v-16c15.465 0 28-12.535 28-28s-12.535-28-28-28-28 12.535-28 28h-16c0-24.3 19.7-44 44-44s44 19.7 44 44-19.7 44-44 44zm-24.465-7.44a44.58 44.58 0 01-17.023-21.879l15.082-5.36a28.32 28.32 0 0010.87 13.96zm0 0" fill="#de722a"/><path d="M224.5 408h184v64h-184zm0 0" fill="#0f71c7"/><path d="M264.5 440a8 8 0 11-16 0 8 8 0 1116 0zm80-8h64v16h-64zm0 0" fill="#085da8"/><path d="M76.5 352a75.68 75.68 0 0017.602-2.145A63.767 63.767 0 0088.5 376a8 8 0 008 8h105.922a312.48 312.48 0 0061.156-6.07l.922-.187V400h-40a8 8 0 00-8 8v64a8 8 0 008 8h184a8 8 0 008-8v-64a8 8 0 00-8-8h-8v-40a8.28 8.28 0 00-.168-1.602L360.5 167.2V8a8 8 0 00-8-8c-35.328.04-63.96 28.672-64 64v2.176L259.164 4.574A8 8 0 00248.563.762a63.94 63.94 0 00-30.91 85.039L239.1 131.81l-82.672-69.4a8.01 8.01 0 00-11.266.977c-22.68 27.082-19.164 67.4 7.855 90.16l7.664 6.402H80.5a8 8 0 00-8 8 63.504 63.504 0 008.8 32.238c-1.602-.098-3.2-.238-4.8-.238-41.973 0-76 34.023-76 76s34.027 76 76 76zm61.855-120H184.5c22.074.04 39.96 17.926 40 40-.027 22.082-17.918 39.973-40 40h-32a65.08 65.08 0 00-9.543.801A75.57 75.57 0 00138.355 232zM232.5 464v-48h168v16h-56v16h56v16zm-69.168-322.68c-17.906-15.078-22.36-40.855-10.543-61.062L247.836 160H185.57zM89.164 176H267.22a24.2 24.2 0 0116.984 7.016l14.64 14.64 11.313-11.312-14.64-14.64a40.177 40.177 0 00-25.473-11.422L232.14 79c-9.898-21.23-3.023-46.504 16.262-59.8L313.3 155.44l14.445-6.883-23.2-48.797V64c.03-23.414 16.922-43.402 40-47.336V168a8.28 8.28 0 00.168 1.602L384.5 360.8V400h-104v-32a7.99 7.99 0 00-2.922-6.18 7.993 7.993 0 00-6.63-1.668l-10.496 2.078a296.64 296.64 0 01-58.031 5.77h-97.266c3.906-23.102 23.914-40.008 47.344-40h32c30.914-.035 55.965-25.086 56-56-.04-30.9-25.1-55.96-56-56h-48a47.36 47.36 0 01-20.488-4.8 83.853 83.853 0 00-5.734-3.2 47.99 47.99 0 01-21.113-32zM76.5 216a59.58 59.58 0 0125.09 5.602 64.14 64.14 0 007.918 4.383c24.78 16.434 33.77 48.55 21.113 75.46s-43.125 40.47-71.6 31.86-46.3-36.785-41.93-66.195S46.766 215.94 76.5 216zm0 32c15.465 0 28 12.535 28 28s-12.535 28-28 28v16c24.3 0 44-19.7 44-44s-19.7-44-44-44-44 19.7-44 44h16c0-15.465 12.535-28 28-28zm0 0"/><path d="M50.102 285.32l-15.082 5.36a44.57 44.57 0 0017.016 21.88l8.93-13.277a28.3 28.3 0 01-10.863-13.961zM264.5 440a8 8 0 11-16 0 8 8 0 1116 0zm0 0"/></svg>