<svg xmlns="http://www.w3.org/2000/svg" viewBox="0 0 512 512"><circle cx="110.933" cy="119.467" r="102.4" fill="#ffd200"/><path d="M135.108 118.528l-15.642-5.214V78.02a20.96 20.96 0 0117.067 18.688H153.6a38.81 38.81 0 00-34.133-36.224V51.2H102.4v9.284c-18.645 2.236-33.024 17.494-34.133 36.24a25.42 25.42 0 0018.492 23.68l15.642 5.214v35.294a20.96 20.96 0 01-17.067-18.688H68.267a38.81 38.81 0 0034.133 36.224v9.284h17.067v-9.284a38.82 38.82 0 0034.133-36.241 25.42 25.42 0 00-18.492-23.68zM92.16 104.21a8.85 8.85 0 01-6.827-7.501A20.96 20.96 0 01102.4 78.02v29.602l-10.24-3.413zm27.307 56.704V131.31l10.24 3.413a8.85 8.85 0 016.827 7.501 20.96 20.96 0 01-17.067 18.688z" fill="#911e3f"/><g fill="#ffd200"><circle cx="401.067" cy="401.067" r="102.4"/><circle cx="401.067" cy="110.933" r="102.4"/><circle cx="110.933" cy="401.067" r="102.4"/></g><path d="M443.733 164.207V147.14h-65.596a33.86 33.86 0 005.862-19.14v-17.067h17.067V93.867H384v-25.6a8.54 8.54 0 018.533-8.533h25.6a8.54 8.54 0 018.533 8.533h17.067c0-14.14-11.46-25.6-25.6-25.6h-25.6c-14.14 0-25.6 11.46-25.6 25.6v25.6h-17.067v17.067h17.067V128a17.19 17.19 0 01-5.001 12.066l-9.566 9.574a8.54 8.54 0 000 12.066 8.546 8.546 0 006.033 2.5l85.334.001zM65.58 375.467H42.667v17.067h17.75a53.516 53.516 0 000 17.067h-17.75v17.067H65.58c9.873 20.82 30.848 34.1 53.888 34.133h25.6v-17.067h-25.6a42.47 42.47 0 01-33.911-17.067h25.378V409.6h-33.28a42.574 42.574 0 010-17.067h33.28v-17.067h-25.38a42.47 42.47 0 0133.91-17.067h25.6v-17.067h-25.6a59.74 59.74 0 00-53.887 34.135zM449.766 355.9L437.7 343.834l-36.633 36.633-36.634-36.633-12.066 12.066 28.1 28.1h-13.534v17.067h25.6v17.066h-25.6V435.2h25.6v25.6H409.6v-25.6h25.6v-17.067h-25.6v-17.066h25.6V384h-13.534zM335.3 224.367l-13.542 13.542c-7.8-28.254-32.768-48.375-62.037-49.988l-23.287-23.287-12.067 12.066 13.542 13.542c-28.254 7.8-48.375 32.768-49.988 62.037l-23.287 23.287 12.066 12.066 13.542-13.542c7.8 28.254 32.768 48.375 62.037 49.988l23.288 23.287 12.066-12.066-13.542-13.542c28.254-7.8 48.375-32.768 49.988-62.037l23.287-23.287-12.066-12.066zm-68.053 81.544l5.564-22.238-16.555-4.147-6.827 27.204a51.28 51.28 0 01-42.419-35.84l19.575 9.856 7.63-15.275-29.15-14.592c2.108-20.514 16.3-37.777 36-43.82l-9.78 19.55 15.275 7.63 14.55-29.175c20.514 2.108 37.777 16.3 43.82 36l-19.55-9.78-7.63 15.275 29.175 14.55c-2.244 21.905-18.218 39.927-39.688 44.8z" fill="#911e3f"/><path d="M110.933 230.4c61.27 0 110.933-49.664 110.933-110.933S172.203 8.533 110.933 8.533 0 58.197 0 119.467C.068 180.702 49.698 230.332 110.933 230.4zm0-204.8c51.84 0 93.867 42.027 93.867 93.867s-42.027 93.867-93.867 93.867-93.867-42.027-93.867-93.867c.06-51.815 42.053-93.807 93.867-93.867zm-25.6 116.625H68.267a38.81 38.81 0 0034.133 36.224v9.284h17.067v-9.284a38.82 38.82 0 0034.133-36.241 25.42 25.42 0 00-18.492-23.68l-15.642-5.214V78.02a20.96 20.96 0 0117.067 18.688H153.6a38.81 38.81 0 00-34.133-36.224V51.2H102.4v9.284c-18.645 2.236-33.024 17.494-34.133 36.24a25.42 25.42 0 0018.492 23.68l15.642 5.214v35.294a20.96 20.96 0 01-17.068-18.688zm34.134-10.914l10.24 3.413a8.85 8.85 0 016.827 7.501 20.96 20.96 0 01-17.067 18.688V131.3zM92.16 104.2a8.85 8.85 0 01-6.827-7.501A20.96 20.96 0 01102.4 78.02v29.602l-10.24-3.413zm308.907 185.923c-61.27 0-110.933 49.664-110.933 110.933S339.797 512 401.067 512 512 462.336 512 401.067c-.068-61.236-49.698-110.865-110.933-110.934zm0 204.8c-51.84 0-93.867-42.027-93.867-93.867s42.027-93.867 93.867-93.867 93.867 42.027 93.867 93.867c-.06 51.815-42.053 93.808-93.867 93.867zm0-273.066c61.27 0 110.933-49.664 110.933-110.933S462.336 0 401.067 0 290.133 49.664 290.133 110.933c.07 61.236 49.698 110.865 110.934 110.934zm0-204.8c51.84 0 93.867 42.027 93.867 93.867S452.907 204.8 401.067 204.8 307.2 162.773 307.2 110.933c.06-51.814 42.052-93.807 93.867-93.866z"/><path d="M366.933 128a17.19 17.19 0 01-5.001 12.066l-9.566 9.574a8.54 8.54 0 000 12.066 8.546 8.546 0 006.033 2.5h85.333V147.14h-65.596a33.86 33.86 0 005.862-19.14v-17.067h17.067V93.867H384v-25.6a8.54 8.54 0 018.533-8.533h25.6a8.54 8.54 0 018.533 8.533h17.067c0-14.14-11.46-25.6-25.6-25.6h-25.6c-14.14 0-25.6 11.46-25.6 25.6v25.6h-17.067v17.067h17.067V128zm-256 384c61.27 0 110.933-49.664 110.933-110.933s-49.664-110.933-110.933-110.933S0 339.797 0 401.067C.068 462.302 49.698 511.932 110.933 512zm0-204.8c51.84 0 93.867 42.027 93.867 93.867s-42.027 93.867-93.867 93.867-93.867-42.027-93.867-93.867c.06-51.815 42.053-93.807 93.867-93.867zm8.534 153.6h25.6v-17.067h-25.6a42.47 42.47 0 01-33.911-17.067h25.378V409.6h-33.28a42.574 42.574 0 010-17.067h33.28v-17.067h-25.38a42.47 42.47 0 0133.91-17.067h25.6v-17.067h-25.6c-23.04.034-44.015 13.312-53.888 34.133h-22.9v17.067h17.75a53.516 53.516 0 000 17.067h-17.75v17.067H65.58c9.873 20.822 30.848 34.1 53.888 34.134zM437.7 343.834l-36.633 36.633-36.634-36.633-12.066 12.066 28.1 28.1h-13.534v17.067h25.6v17.066h-25.6V435.2h25.6v25.6H409.6v-25.6h25.6v-17.067h-25.6v-17.066h25.6V384h-13.534l28.1-28.1zM187.92 252.28l-23.287 23.287 12.066 12.066 13.542-13.542c7.8 28.254 32.768 48.375 62.037 49.988l23.287 23.287L287.63 335.3l-13.542-13.542c28.254-7.8 48.375-32.768 49.988-62.037l23.287-23.287-12.065-12.066-13.542 13.542c-7.8-28.254-32.768-48.375-62.037-49.988l-23.287-23.287-12.067 12.066 13.542 13.542c-28.254 7.8-48.375 32.768-49.988 62.037zm58.692-18.065l14.507-29.15c20.514 2.108 37.777 16.3 43.82 36l-19.55-9.78-7.63 15.275 29.175 14.55a51.28 51.28 0 01-39.689 44.766l5.564-22.238-16.555-4.147-6.827 27.204a51.28 51.28 0 01-42.419-35.84l19.575 9.882 7.63-15.275-29.15-14.592c2.108-20.514 16.3-37.777 36-43.82l-9.78 19.55 15.318 7.603z"/></svg>