<svg xmlns="http://www.w3.org/2000/svg" viewBox="0 0 512.004 512.004"><path d="M150.355 257.802c-.05-97.51 78.958-176.586 176.466-176.637s176.586 78.958 176.637 176.466S424.5 434.217 326.992 434.268h-.085c-97.467-.008-176.492-79-176.552-176.466zm51.967 0c.026 68.83 55.84 124.6 124.67 124.585s124.6-55.84 124.585-124.67-55.84-124.6-124.67-124.585c-68.804.077-124.55 55.858-124.585 124.67z" fill="#168de2"/><path d="M202.322 257.802c-.026-68.83 55.756-124.644 124.585-124.67s124.644 55.756 124.67 124.585-55.756 124.644-124.585 124.67h-.085c-68.77-.094-124.5-55.816-124.585-124.585zm51.882 0c0 40.15 32.554 72.703 72.703 72.703S399.6 297.95 399.6 257.802 367.056 185.1 326.907 185.1c-40.132.05-72.652 32.57-72.703 72.703z" fill="#fb5968"/><path d="M254.204 257.802c-.05-40.15 32.47-72.737 72.617-72.788s72.737 32.47 72.788 72.617-32.47 72.737-72.617 72.788h-.085c-40.098-.06-72.592-32.528-72.703-72.617zm51.967 0c.026 11.477 9.344 20.76 20.82 20.736s20.76-9.344 20.736-20.82-9.344-20.76-20.82-20.736c-11.47.017-20.753 9.318-20.736 20.787v.034z" fill="#168de2"/><path d="M306.17 257.802a20.78 20.78 0 0120.736-20.821c11.477-.026 20.795 9.26 20.82 20.736a20.78 20.78 0 01-20.736 20.821h-.085c-11.443-.026-20.71-9.293-20.736-20.736z" fill="#fb5968"/><path d="M83.88 213.856l27.22 43.946H36.18l-.17.256-27.4-44.202zm27.222 44.458L83.88 302.26H8.62L36 258.058l.17.256z" fill="#ffdb6f"/><g fill="#454545"><path d="M326.907 442.802c-102.193-.026-185.025-82.9-185-185.085s82.9-185.025 185.085-185c102.194.017 185.025 82.883 185 185.085-.137 102.142-82.935 184.906-185.085 185zm0-353.018c-92.773.026-167.96 75.246-167.933 168.02s75.246 167.96 168.018 167.933c92.74-.026 167.908-75.194 167.933-167.933-.102-92.757-75.27-167.917-168.018-168.02zm0 301.136c-73.54-.026-133.143-59.664-133.118-133.203S253.453 124.574 326.992 124.6 460.135 184.263 460.1 257.802c-.077 73.514-59.682 133.084-133.203 133.118zm0-249.255c-64.118.026-116.077 52.018-116.05 116.137s52.018 116.077 116.137 116.05c64.084-.026 116.026-51.967 116.05-116.05-.052-64.118-52.02-116.085-116.137-116.137zm0 197.288c-44.842-.026-81.176-36.394-81.15-81.236s36.394-81.176 81.236-81.15 81.176 36.394 81.15 81.236c-.077 44.816-36.42 81.117-81.236 81.15zm0-145.32c-35.413.026-64.1 28.757-64.084 64.17s28.757 64.1 64.17 64.084c35.387-.026 64.06-28.697 64.084-64.084-.035-35.43-28.75-64.135-64.17-64.17zm0 93.437c-16.187-.026-29.294-13.167-29.27-29.354s13.167-29.294 29.354-29.27 29.294 13.167 29.27 29.354c-.017 16.18-13.14 29.286-29.32 29.27h-.034zm0-41.557a12.24 12.24 0 00.086 24.49c6.733-.026 12.177-5.47 12.202-12.202a12.26 12.26 0 00-12.22-12.288h-.068z"/><path d="M326.907 266.335H111.443a8.54 8.54 0 01-8.533-8.533 8.54 8.54 0 018.533-8.533h215.463a8.54 8.54 0 018.533 8.533 8.54 8.54 0 01-8.532 8.533z"/><path d="M83.88 310.793H8.62a8.54 8.54 0 01-8.533-8.533c0-1.587.444-3.15 1.28-4.497l27.392-44.202a9.096 9.096 0 017.424-4.267h74.92a8.81 8.81 0 017.68 4.446 8.526 8.526 0 01-.162 8.712l-.162.256-27.306 44.065a8.54 8.54 0 01-7.272 4.02zm-59.928-17.066H79.13l16.964-27.392H40.96l-17.006 27.392z"/><path d="M111.443 266.847H36.18a8.52 8.52 0 01-7.023-3.695l-27.793-44.8C-1.12 214.35.1 209.085 4.12 206.602a8.52 8.52 0 014.497-1.28H83.88c2.96 0 5.7 1.527 7.262 4.045l27.212 43.946-6.93 4.65 6.98-4.582.17.256a8.52 8.52 0 01-2.458 11.8 8.54 8.54 0 01-4.676 1.398zM40.917 249.78H96.1l-16.972-27.4H23.944l16.973 27.392zM85.332.007h68.266v17.066H85.332zm68.265 59.73h68.266v17.066h-68.266zM51.2.007h17.066v17.066H51.2zm-17.067 162.13H102.4v17.066H34.133zm-34.133 0h17.066v17.066H0zm68.266 187.73h51.2v17.066h-51.2zm-34.133 0H51.2v17.066H34.133zm136.53 76.798h17.066v17.066h-17.066zM34.133 494.93H102.4v17.066H34.133zM0 494.93h17.066v17.066H0z"/></g><path d="M142.078 249.235h-26.205l-24.746-39.9a8.53 8.53 0 00-7.253-4.036h-75.3a8.54 8.54 0 00-8.533 8.533 8.54 8.54 0 001.28 4.497l24.635 39.713L1.33 297.754c-2.483 4.002-1.254 9.267 2.756 11.75a8.52 8.52 0 004.497 1.28H83.87c2.952 0 5.7-1.527 7.253-4.036l25.08-40.447h25.873c4.7 102.1 91.297 181.04 193.396 176.33s181.04-91.305 176.33-193.396c-4.7-102.1-91.297-181.05-193.396-176.33-95.494 4.403-171.918 80.826-176.33 176.33zm-62.958-26.88l16.674 26.88H40.592l-16.7-26.88H79.12zm0 71.363H23.893l16.674-26.88h55.2l-16.648 26.88zM326.932 89.775c92.78-.12 168.095 74.998 168.223 167.78.12 92.78-74.998 168.095-167.78 168.223-89.556.12-163.462-70.032-168-159.477h34.858c4.7 73.368 68 129.022 141.378 124.312s129.022-68 124.312-141.378-68-129.022-141.378-124.312c-66.798 4.292-120.02 57.514-124.312 124.312h-34.858c4.566-89.257 78.2-159.323 167.558-159.46zM246.165 266.3c4.7 44.612 44.697 76.952 89.3 72.233s76.952-44.697 72.233-89.3c-4.7-44.612-44.697-76.952-89.3-72.233-38.1 4.028-68.214 34.133-72.233 72.233H211.3C216 185.31 271.647 137.32 335.57 142.03s111.902 60.35 107.2 124.27-60.347 111.913-124.27 107.202C261.132 369.27 215.513 323.66 211.3 266.3h34.875zm52.906 0c4.7 15.48 21.086 24.2 36.565 19.498s24.2-21.086 19.498-36.565-21.086-24.2-36.565-19.498a29.29 29.29 0 00-19.498 19.498H263.4c4.7-35.114 37-59.758 72.114-55.048s59.758 37 55.048 72.114-37 59.758-72.114 55.048c-28.663-3.848-51.2-26.393-55.048-55.048h35.67zm27.887-17.066h-8.772a12.25 12.25 0 0117.314-.247 12.25 12.25 0 01.247 17.314 12.25 12.25 0 01-17.314.247c-.085-.085-.17-.162-.247-.247h8.738a8.54 8.54 0 008.533-8.533 8.54 8.54 0 00-8.533-8.533h.034zM85.332.007h68.266v17.066H85.332zm68.265 59.73h68.266v17.066h-68.266zM51.2.007h17.066v17.066H51.2zm-17.067 162.13H102.4v17.066H34.133zm-34.133 0h17.066v17.066H0zm68.266 187.73h51.2v17.066h-51.2zm-34.133 0H51.2v17.066H34.133zm136.53 76.798h17.066v17.066h-17.066zM34.133 494.93H102.4v17.066H34.133zM0 494.93h17.066v17.066H0z"/></svg>