<svg xmlns="http://www.w3.org/2000/svg" viewBox="0 0 512 512"><path d="M256 494.933C124.04 494.933 17.067 387.96 17.067 256S124.04 17.067 256 17.067 494.933 124.04 494.933 256C494.78 387.9 387.9 494.78 256 494.933z" fill="#87d0f0"/><circle cx="256" cy="256" r="187.733" fill="#1e5d89"/><circle cx="256" cy="256" r="136.533" fill="#ffbf41"/><path d="M256 494.933C124.04 494.933 17.067 387.96 17.067 256S124.04 17.067 256 17.067 494.933 124.04 494.933 256C494.78 387.9 387.9 494.78 256 494.933zm0-460.8C133.47 34.133 34.133 133.47 34.133 256S133.47 477.867 256 477.867 477.867 378.53 477.867 256C477.73 133.52 378.48 34.27 256 34.133zm0 409.6C152.32 443.733 68.267 359.68 68.267 256S152.32 68.267 256 68.267 443.733 152.32 443.733 256c-.12 103.637-84.096 187.614-187.733 187.733zm0-358.4C161.74 85.333 85.333 161.74 85.333 256S161.74 426.667 256 426.667 426.667 350.26 426.667 256c-.1-94.208-76.46-170.556-170.667-170.667z" fill="#8a0f00"/><g fill="#e3482c"><path d="M256 315.733c-23.526 0-42.667-16.58-42.667-36.975H230.4c0 10.974 11.486 19.908 25.6 19.908s25.6-8.934 25.6-19.908a8.87 8.87 0 00-6.827-7.509l-42.948-14.32a25.38 25.38 0 01-18.492-23.671c0-20.403 19.14-36.992 42.667-36.992s42.667 16.58 42.667 36.975H281.6c0-10.974-11.486-19.908-25.6-19.908s-25.6 8.934-25.6 19.908a8.87 8.87 0 006.827 7.509l42.948 14.32a25.38 25.38 0 0118.492 23.671c0 20.404-19.14 36.992-42.667 36.992z"/><path d="M247.467 187.733h17.067v136.533h-17.067z"/></g><g fill="#8a0f00"><path d="M256 392.533c-75.41 0-136.533-61.124-136.533-136.533S180.59 119.467 256 119.467 392.533 180.59 392.533 256c-.085 75.366-61.167 136.448-136.533 136.533zm0-256c-65.98 0-119.467 53.487-119.467 119.467S190.02 375.467 256 375.467 375.467 321.98 375.467 256c-.07-65.954-53.513-119.398-119.467-119.467z"/><path d="M0 247.467h170.667v17.067H0zM247.467 0h17.067v170.667h-17.067zm93.866 247.467H512v17.067H341.333zm-93.866 93.866h17.067V512h-17.067z"/></g><path d="M280.175 255.07l-15.642-5.214v-35.302a20.96 20.96 0 0117.067 18.688h17.067c-1.11-18.748-15.488-34.005-34.133-36.224v-9.284h-17.067v9.284c-18.645 2.227-33.024 17.493-34.133 36.24a25.373 25.373 0 0018.492 23.67l15.642 5.214v35.302a20.96 20.96 0 01-17.067-18.688h-17.067c1.11 18.748 15.488 34.005 34.133 36.224v9.284h17.067v-9.284c18.645-2.227 33.024-17.493 34.133-36.24a25.38 25.38 0 00-18.492-23.671zm-42.948-14.32a8.87 8.87 0 01-6.827-7.509 20.96 20.96 0 0117.067-18.688v29.61l-10.24-3.414zm27.306 56.695v-29.61l10.24 3.413a8.87 8.87 0 016.827 7.509 20.96 20.96 0 01-17.067 18.689z" fill="#1e5d89"/><path d="M264.533 314.982c18.645-2.227 33.024-17.493 34.133-36.24a25.373 25.373 0 00-18.492-23.67l-15.642-5.214v-35.302a20.96 20.96 0 0117.067 18.688h17.067a38.79 38.79 0 00-34.133-36.224v-9.284h-17.067v9.284c-18.645 2.227-33.024 17.493-34.133 36.24a25.373 25.373 0 0018.492 23.67l15.642 5.214v35.302a20.96 20.96 0 01-17.067-18.688h-17.067a38.79 38.79 0 0034.133 36.224v9.284h17.067v-9.284zm0-47.146l10.24 3.413a8.87 8.87 0 016.827 7.509 20.96 20.96 0 01-17.067 18.688v-29.6zm-17.066-23.672l-10.24-3.413a8.87 8.87 0 01-6.827-7.509 20.96 20.96 0 0117.067-18.688v29.6zM264.533 17.28V0h-17.067v17.28C122.3 21.897 21.897 122.3 17.28 247.467H0v17.067h17.28C21.897 389.7 122.3 490.103 247.467 494.72V512h17.067v-17.28C389.7 490.103 490.103 389.7 494.72 264.533H512v-17.067h-17.28C490.103 122.3 389.7 21.897 264.533 17.28zm0 68.5c87.398 4.446 157.252 74.3 161.698 161.698h-34.133C387.73 178.9 333.1 124.27 264.533 119.902V85.77zm161.7 178.764c-4.446 87.398-74.3 157.252-161.698 161.698V392.1c68.555-4.37 123.195-59 127.565-127.566h34.133zM247.467 34.347V68.48C150.554 73.003 73.003 150.554 68.48 247.467H34.347c4.6-115.746 97.374-208.53 213.12-213.12zm0 51.422v34.133C178.9 124.27 124.27 178.9 119.902 247.467H85.77c4.445-87.4 74.3-157.253 161.698-161.698zm0 391.884c-115.746-4.6-208.53-97.374-213.12-213.12H68.48c4.523 96.913 82.074 174.464 178.987 178.987v34.133zm0-51.42c-87.398-4.446-157.252-74.3-161.698-161.698h34.133C124.27 333.1 178.9 387.73 247.467 392.1v34.133zm0-84.9v33.698c-59.153-4.3-106.197-51.345-110.498-110.498h33.698v-17.067H136.97c4.3-59.153 51.345-106.197 110.498-110.498v33.698h17.067v-33.698c59.153 4.3 106.197 51.345 110.498 110.498h-33.698v17.067h33.698c-4.3 59.153-51.345 106.197-110.498 110.498v-33.698h-17.067zm17.066 136.32V443.52c96.913-4.523 174.464-82.074 178.987-178.987h34.133c-4.6 115.746-97.374 208.53-213.12 213.12zM443.52 247.467c-4.523-96.913-82.074-174.464-178.987-178.987V34.347c115.746 4.6 208.53 97.374 213.12 213.12H443.52z"/></svg>