<svg xmlns="http://www.w3.org/2000/svg" width="256" height="256" preserveAspectRatio="xMidYMid"><path d="M127.706 98.743c16.734-.074 29.384 12.246 29.48 28.712.098 16.65-12.812 29.8-29.28 29.802-16.155.013-29.065-13-29.094-29.33-.03-16.757 12.2-29.1 28.893-29.184zm-75.97 28.094c.557-29.35 13.74-52.12 39.4-66.97 21.55-12.466 45.35-18.64 69.507-23.355 12.987-2.535 40.148-6.05 48.915-7.16A127.47 127.47 0 00128 0C57.308 0 0 57.308 0 128c0 35.33 14.315 67.32 37.46 90.48l36.28-36.83c-14.4-14.827-22.404-33.87-22.007-54.813zM218.76 37.745L182.5 74.05c1.367 1.664 4.144 4.153 5.74 6.157 14.262 17.915 19.625 38.37 16.017 60.802-4.757 29.58-22.64 48.884-49.472 60.763-29 12.835-59.74 18.618-90.86 22.978l-17.167 2.163C68.857 245.087 97.153 256 128 256c70.692 0 128-57.308 128-128 0-35.218-14.226-67.112-37.242-90.255z" fill="#244ec6"/></svg>