<svg xmlns="http://www.w3.org/2000/svg" width="256" height="257" preserveAspectRatio="xMidYMid"><path d="M128.418 80.526c-26.51 0-48.885 21.475-48.885 48.728-.118 12.957 4.994 25.417 14.188 34.58s21.696 14.257 34.697 14.14c26.51 0 48.875-21.475 48.875-48.718 0-27.253-22.364-48.728-48.875-48.728zm-76.22 47.896c0-41.286 33.97-75.138 75.396-75.138 41.417 0 75.385 33.853 75.385 75.138 0 2.478 0 5.788-.825 8.265-.835 7.422 4.972 13.2 12.43 13.2 12.43 0 14.08-15.678 14.08-21.465 0-55.328-45.574-100.746-101.07-100.746-55.518 0-101.07 45.418-101.07 100.746 0 55.338 45.553 100.746 101.07 100.746 29.822 0 56.333-12.388 74.56-33.03l20.703 17.343c-22.364 26.43-57.158 42.95-94.448 42.95-34.097.105-66.827-13.35-90.932-37.383S-.118 162.392.001 128.41C.001 58.228 57.16.432 128.418.432c70.413 0 127.58 57.806 127.58 128 0 28.075-13.255 51.206-40.59 51.206-11.605 0-19.053-5.788-23.2-11.565-13.255 21.475-37.3 35.508-64.626 35.508-20.017.068-39.234-7.827-53.388-21.933S52.12 148.4 52.187 128.442l.01-.02zm76.21-22.298c12.43 0 22.374 9.9 22.374 22.298s-9.944 22.298-22.364 22.298a22.325 22.325 0 01-15.848-6.504 22.17 22.17 0 01-6.526-15.794c0-12.388 9.944-22.298 22.374-22.298h-.01z" fill="#c02428"/></svg>