<svg xmlns="http://www.w3.org/2000/svg" height="640" viewBox="0 0 480 480" width="640"><path d="M256 384l-88-40-96 24v-48l80-24h168v32l-40 16h-24l40 40zm0 0" fill="#eabe97"/><path d="M72 472H8V320h64zm0 0" fill="#0f71c7"/><path d="M472 328l-64 72-104 48H72v-80l96-24 88 40h48l72-24 32-32a45.19 45.19 0 0164 0zm0 0" fill="#eecfb1"/><path d="M48 8h392v224H48zm0 0" fill="#6fb944"/><path d="M408 96v48c-30.93 0-56 25.07-56 56H136c0-30.93-25.07-56-56-56V96c30.93 0 56-25.07 56-56h216c0 30.93 25.07 56 56 56zm0 0" fill="#2d8e43"/><path d="M296 120c0 26.512-21.492 48-48 48s-48-21.488-48-48 21.492-48 48-48 48 21.492 48 48zm0 0" fill="#6fb944"/><path d="M408 208h-24v-16h16v-16h16v24a8 8 0 01-8 8zm8-144h-16V48h-16V32h24a8 8 0 018 8zM88 64H72V40a8 8 0 018-8h24v16H88zm16 144H80a8 8 0 01-8-8v-24h16v16h16zm0 0" fill="#2d8e43"/><path d="M40 232a8 8 0 008 8h392a8 8 0 008-8V8a8 8 0 00-8-8H48a8 8 0 00-8 8zM56 16h376v208H56zm352 72c-26.5-.027-47.973-21.5-48-48a8 8 0 00-8-8H136a8 8 0 00-8 8c-.027 26.5-21.5 47.973-48 48a8 8 0 00-8 8v48a8 8 0 008 8c26.5.027 47.973 21.5 48 48a8 8 0 008 8h216a8 8 0 008-8c.027-26.5 21.5-47.973 48-48a8 8 0 008-8V96a8 8 0 00-8-8zm-8 48.504A64.14 64.14 0 00344.496 192H143.504A64.14 64.14 0 0088 136.504v-33A64.16 64.16 0 00143.504 48h200.992A64.16 64.16 0 00400 103.504zm0 0"/><path d="M248 64c-30.93 0-56 25.07-56 56s25.07 56 56 56 56-25.07 56-56c-.035-30.914-25.086-55.965-56-56zm0 96c-22.1 0-40-17.9-40-40s17.9-40 40-40 40 17.9 40 40c-.027 22.082-17.918 39.973-40 40zm152 32h-16v16h24a8 8 0 008-8v-24h-16zm8-160h-24v16h16v16h16V40a8 8 0 00-8-8zM88 48h16V32H80a8 8 0 00-8 8v24h16zm0 128H72v24a8 8 0 008 8h24v-16H88zM0 384h16v16H0zm0 0"/><path d="M0 472a8 8 0 008 8h64a8 8 0 008-8v-16h224a7.95 7.95 0 003.352-.734l104-48a7.91 7.91 0 002.633-1.953l64-72a8.001 8.001 0 00-.328-10.97c-20.81-20.77-54.504-20.77-75.312 0l-30.664 30.664L302.703 376h-3.39l-24-24H280a8.09 8.09 0 002.977-.566l40-16A8.003 8.003 0 00328 328v-32a8 8 0 00-8-8H152a8.316 8.316 0 00-2.297.336L70.824 312H8a8 8 0 00-8 8v48h16v-40h48v136H16v-16H0zm304-80c.86 0 1.715-.14 2.527-.414l72-24a8.11 8.11 0 003.129-1.93l32-32a37.32 37.32 0 0146.848-4.801L403.13 393.44 302.238 440H80v-65.762l87.2-21.797 85.488 38.84A7.88 7.88 0 00256 392zm-150.824-88H312v18.586L278.465 336H224v16h28.688l24 24h-18.953l-86.398-39.28a8.012 8.012 0 00-5.258-.48L80 357.762v-31.81zm0 0"/></svg>