<svg xmlns="http://www.w3.org/2000/svg" width="2500" height="440" viewBox="0 0 1704.102 300"><path fill="#b2c9d9" d="M110.46 71.542h-35.1l.198-37.48L23.6 41.795V70.75L0 74.318v23.005h24.392l-.198 100.942c.17 3.63 6.002 36.387 41.447 34.307 40.206-2.357 43.63-6.94 47.198-9.32-.283.295 0-19.632 0-19.632l-21.814.596s-12.295-.793-14.28-14.478c-.077.01-.396-92.018-.396-92.018l34.11.198V71.542zM185.968 0l-70.154 10.065.1 13.386 18.64 8.33.198 175.21-17.65 6.94.2 14.377 86.067.1V214.13l-17.352-7.537.1-103.62s9.817-4.362 23.4-4.362 19.83 8.726 19.83 14.08v94.2l-15.865 7.04v14.478h85.87v-13.88l-17.65-8.628V99.702s.398-33.713-38.67-32.028c-23.77.143-40.605 7.635-57.163 20.724l.1-88.398zm261.664 154.134c1.992-34.57-1.622-89.688-71.378-86.38-68.355 3.24-76.985 55.53-76.564 89.325 3.928 54.608 32.086 74.908 84.98 75.725 41.788-1.403 56.932-23.418 56.932-23.418V194.59s-19.633 5.89-40.245 5.748c-48.798-.333-48.24-46.205-48.24-46.205h94.515zm-94.655-18.37s-.29-22.283 4.155-36.433c3.545-11.29 10.715-15.02 18.983-15.03 13.772-.02 17.215 7.702 18.763 17.2 2.228 13.653 1.86 32.16 1.7 32.31l-43.61 1.963z"/><path fill="#00417b" d="M580.064 194.494h-62.27s-9.32-.992-9.717-10.512 6.346-11.898 6.346-11.898 13.288 3.967 27.17 3.967 68.418-5.752 68.418-52.95c0-21.44-16.855-33.713-16.855-33.713l30.156 8.08-.51-30.983-43.53 8.03s-22.606-8.23-38.67-8.23c-10.808 0-66.537 4.284-68.57 53.2-1.435 34.542 27.717 47.432 27.52 47.432s-27.765 17.055-27.963 38.275c-.19 20.43 23.14 26.703 24.874 27.14.074.003.114.012.112.028l-.112-.028c-2.24-.067-37.967 6.646-37.963 31.76.003 23.996 39.663 35.696 81.705 35.894s88.25-11.7 88.25-61.477-48.39-44.027-48.39-44.027zm-39.86-109.368c19.336-.1 19.435 19.93 19.534 28.358v14.974s2.578 26.97-17.85 27.07-19.83-15.667-19.83-27.07v-17.65s-1.19-25.583 18.145-25.682zm.1 195.834c-28.756 0-39.067-11.7-39.067-23.004s7.04-15.964 7.04-15.964l62.37-.1s12.396 1.386 12.396 12.295c-.001 16.762-13.983 26.772-42.738 26.772zM698.457 67.376l-70.203 10.908v13.684l18.046 8.726v88.25s.938 43.338 43.432 43.828c34.506.396 51.76-23.6 51.76-23.6v23.203l68.02-8.132V211.75l-17.382-10.035V67.776l-69.875 10.908v13.09l18.443 9.32v94.2s-4.76 3.966-20.03 5.155-22.21-13.286-22.21-13.286l-.001-119.786zM823.864 78.69s33.515-12.2 61.14-12.2 67.6 9.395 67.6 43.75v95.215l17.108 8.974v11.36s-12.2 6.6-30.148 6.6-33.515-9.115-33.515-22.857c-3.9.07-5.32 22.578-47.397 22.578-49.08 0-45.294-43.47-45.294-44.312s-1.412-32.45 34.356-39.265l51.744-9.395-.172-31.972s-2.913-19.352-19.6-19.212l-16.547.28-11.778 32.112h-27.625l.14-41.647zm76.915 119.825v-43.19s-35.2-3.155-35.268 25.03c-.05 21.22 13.284 23.698 19.352 23.698 6.943-.444 11.55-2.887 15.916-5.54zm140.72-132.586l-68.57 10.797V91.03l17.67 8.413v106.153L974.2 214v13.46h90.31v-12.9l-21.596-8.694.14-87.643s13.742-5.47 27.624-5.47 20.755 1.542 20.755 1.542V68.45s-29.388-9.205-50.202 31.832c-.003.143.277-34.353.277-34.353zm135.88-52.305v13.882l17.248 8.273v37.582s-12.058-5.75-26.643-5.75-74.182 2.244-75.863 84.138 61.98 80.77 61.42 80.77 29.167.842 42.63-16.547c-.07 0-.14 16.477-.14 16.477l67.382-8.203v-13.322l-16.198-8.273-.14-199.964-69.694 10.936zm17.18 81.193V201.25s-5.56 2.805-15.916 2.805c-16.843 0-31.093-11.46-30.992-48.38.09-32.25 4.797-57.6 18.903-64.225s27.35 2.477 28.005 3.366zm145.64-66.013c0 15.82-12.838 28.656-28.656 28.656s-28.656-12.837-28.656-28.656S1295.723.15 1311.542.15s28.656 12.837 28.656 28.656zm-1.2 37.778l-71.195 10.114V90.38l18.642 9.123V205.8l-17.055 7.734v14.478h85.67V214.13l-16.26-7.934.198-139.612zm32.5 11.932s33.517-12.2 61.14-12.2 67.59 9.395 67.59 43.75v95.215l17.108 8.975v11.357s-12.2 6.592-30.15 6.592-33.516-9.115-33.516-22.858c-3.9.07-5.32 22.577-47.396 22.577-49.08 0-45.293-43.47-45.293-44.312s-1.41-32.45 34.356-39.263l51.744-9.396-.173-31.972s-2.912-19.352-19.6-19.21l-16.547.28-11.78 32.112h-27.624l.137-41.648zm76.917 119.825v-43.2s-35.2-3.154-35.27 25.03c-.05 21.218 13.284 23.698 19.353 23.698 6.94-.443 11.55-2.89 15.916-5.54zm141.448-132.153l-70.004 11.106V90.58l18.84 8.924v107.088l-17.252 6.94v14.874h85.67v-14.675l-15.866-7.537V102.677s8.527-3.967 21.02-3.967 22.21 5.553 22.21 17.848v89.637l-17.578 8.638-.073 13.176h87.258v-14.08l-17.054-7.14v-99.354s1.19-39.662-39.068-39.662-57.907 21.22-57.907 21.22l-.198-22.807z"/></svg>