<svg xmlns="http://www.w3.org/2000/svg" width="629" height="238" opacity=".4" fill="#fff"><path d="M612.1 228.6l.9 2.9 2.2 8.1c-.6-1.9-.6-1.9-3.1-11zm6.5 25.4l-.3-1.6.5 2.4.5 2.2-.6-2.8c-.1-.1-.1-.1-.1-.2zm-.7 132.2l-.6 2.6c-2.6 8.7-6.5 20.1-10 28.5l.3-1.4c3.1-8.9 7.8-20.6 10.3-29.7zm-15 43.9l.6-1.5c-1.2 4.6-2.9 10.8-4.7 15.3l-.9 2c1.7-4.6 3.8-10.8 4.8-15.6.1 0 .1-.1.2-.2zM340.9 627l-2.1.2-18.6.1c.4-.1.4-.1 12-.2l8.7-.1zM86.1 111.2c1.4-.5 2.1-.8 8.7-1.4-.2.3-.5.5-.7.8-.2.2-.2.6-.6.7-1.3.3-3 .3-4.3.5 0 0-3.7.4-4.4 1 .4-.7.9-1.1 1.3-1.6zM406 22.3l-1-.3c6.3 2.1 14.7 4.7 20.8 7.1l3 1.2-22.7-7.9-.1-.1zM600.8 434c.2-.3.3-.6.5-.9-9.5 25.7-9.9 26.7-22.2 47.9-.6 1-1.3 2-1.9 3.1 14.1-24.5 14.7-25.5 23.5-50 .1 0 .1-.1.1-.1zM201.3 30.9c4.1-1.4 4.2-1.4 9.9-2.8-.6.2-1.2.5-1.8.7-1.2.4-2.9.7-4.1 1-1.8.4-4.1 1.2-5.8 1.8.6-.2 1.2-.5 1.8-.7zm-52.7 27.2c20.9-12.5 27.6-16.2 56.6-27.5-10.6 4.7-21.6 8.6-32.1 13.8-8.3 4.1-18.8 10.3-26.7 15.1.7-.5 1.5-1 2.2-1.4zM305 9.1h1.1c-27 1.7-48.4 3.1-84.8 15.6-.3.1-.7.2-1 .3 23.4-7.6 41.8-13.6 84.6-15.8 0-.1.1-.1.1-.1zm-50.8 15.8c-.4.2-.6.5-1.1.6-13.3 1.1-26.6 1.4-39.9 2.7 1.7-.7 3.6-1.4 41-3.3zM280.5 626l3.7.4h.3l-4-.4zM84.8 524.3l2 2.2-2-2.2zm93.7 71.5c-4.8-2.8-4.9-2.8-6.7-5.7-.7-1 .1-2.9.6-4l1.6 1c-.4 1.1-1.1 3-.5 4 1.4 2.2 2.2 3.4 6.8 5.6-.7-.3-1.3-.6-1.8-.9zM19.6 228.5c10-28.1 22.4-63 69.6-111.1-2.3 6.3-10.4 11.6-15 16.5-14 15.1-39.8 47.8-55.4 97.2l.1-.4c.3-.8.5-1.5.7-2.2z" opacity=".4"/><path d="M15.9 242c.1-.6.3-1.2.4-1.7 2.3 4.1 11.4 7.5 50.8 13-.2.9-.3 1.1-.4 1.9-35-4.8-49.7-8.6-50.9-12.9 0-.1.1-.2.1-.3zm67 280c-.3-.3-.5-.7-.8-1 24 24.1 40.2 36.8 83.3 60.1.2.2.5.5.8.7-42.9-23-59.1-35.7-83.1-59.7-.1 0-.1-.1-.2-.1zm-4.6-5.6l-1.2-1.4c3.2.4 8.6 1 69.1 1.9.2.4.5.9.7 1.3-32.3 0-66.3-1.4-68.6-1.7.1 0 0-.1 0-.1zm15.3-110.7l.7 1.3c-28 34.8-45.8 62.7-19.8 104.8-35.1-42.7 4.3-88.8 19.1-106.1zm-83.1-36.3c-3.2-39.3 11.4-67.9 56-109.1 0 .4.1.9.2 1.3-40.3 39.3-60 67.1-55.7 110.1-.3-.8-.4-1.6-.5-2.3zm5.2 24.8c1.8.9 5.2 2.6 76 5.3.1.9.2 1.1.3 1.8-19.2-.5-74.5-2.6-75.8-5.1-.2-.7-.4-1.4-.5-2zm522.8 80.7l.9-1.4c18.7 15.8 25.9 27 13.2 44.3-.4.5-.9 1-1.3 1.6 9.9-14.1 10.6-24.8-12.9-44.2 0-.2 0-.3.1-.3zM297.3 627.5c-.6 0-1.3-.1-1.9-.1 1.2.1 2.7.1 7.5.2.5 0 1 .1 1.5.1l-6.9-.1c-.1-.1-.1-.1-.2-.1zm-118.6-37.8c.3.2.8.4 1.2.5 13.5 7.2 25.8 16.7 40.5 21.7 27.6 9.4 38 11.3 67.2 14.8-63.3-5.8-95.2-27.7-108.9-37zm187 28.8c-3 1.2-40.4 7.8-44.7 8.5.2-.1.4-.2 9.5-1.8l35.2-6.7zM91.7 118c.3-.2.6-.5.9-.7-12.7 23.7-31.8 59.6-20.5 127.4-.4.3-.8.7-1.2 1-4-30.1-10-75.7 20.6-127.7h.2zm110.2-85.7h.3c-27.7 13.3-59.1 28.5-97.6 69.5 18.9-19.5 44.9-46.3 97.3-69.5zm4.4-1.4c.4-.2.9-.3 1.3-.5-16.7 9.2-47.8 26.3-40.8 65.2-.6.4-.8.6-1.4 1.1-1.8-15.9-4.9-42.4 40.6-65.7.1-.1.2-.1.3-.1zm-44.9 70.3l-.9 1.4c-33.8 3.4-44.8 4.9-61 7.7.9-1.1 2.7-3.1 61.9-9.1zm-10.1 422.1l1.4 1.1c-1.7 20.4-1.3 35.4 17.7 57.5-.2-.2-23.8-16.1-19.1-58.6zm31.8 67.1l-.5-.5c33 15.7 66.5 30.4 113.8 36.9.2 0 .5.1.7.1-28.1-4-60-10.2-114-36.5 0 .1 0 .1 0 0zm-2.2-1.8c-.3-.3-.7-.5-1.1-.8 24 9.4 49.6 18.9 97.9 31.8.1.1.3.2.5.3-49.8-12.7-81.8-25.2-97.2-31.2l-.1-.1zM73 266.9c.3-.1.7-.3 1.1-.4 1.5 30.1 3.4 67.6 22 122.7-.4.1-.8.3-1.2.4-9.4-30.1-21-67.5-22.1-122.7h.2zm86.9-157.8c.2.1.4.3.6.4-34.4 41.9-57.6 75.9-82.3 134.8-.2-.1-.4-.3-.6-.4 18.4-45.2 37.7-81.8 82.3-134.8zm5.8-.4c.4-.2.9-.4 1.2-.7-2.8 42.9 4.9 84.7 52.2 171.5l-1.7 1c-36.8-68.8-57.1-119-51.9-171.7.1 0 .2-.1.2-.1zM80 258l.4-1.7c20.6 6 51.7 15 132.8 31-.1.4-.2 1.1-.3 1.5-52.4-9.2-104.6-22-133-30.5 0-.1.1-.2.1-.3zM249.5 28.9c-21.2 13.8-43.1 28.1-75 64.5-.2-.1-.6-.2-.8-.2 17.9-19.5 40.1-43.7 75.8-64.3zm35.9 44.6v1.2l-111 25.4a4.67 4.67 0 00.5-1c16.3-4.4 33.1-8.9 110.5-25.6zm-71.5 223.1l.7 1.3c-50 39.1-75 58.8-109.2 97-.2-.4-.5-.9-.8-1.2 15.3-17.9 36-42.2 109.3-97.1zM160 526.3c.2-.1.5-.3.7-.4 19 20.8 63.4 69.5 116 92.5-15-7-60.7-28.2-116.8-92.1h.1zm-57.5-114.1c.3 0 .8-.1 1.1-.2 10.8 31.4 18.6 54.2 44.3 96.8-.3 0-.7.1-1 .2-18-30.4-28.9-49.8-44.5-96.7 0-.1 0-.1.1-.1zm5.3-9.8c0-.4-.1-.8-.3-1.7 31.8 3.6 59.7 6.6 128.6 12.6v1.4c-53.1-3.5-120.8-11.2-128.3-12v-.3zm53.5 119l-.4-1.2c24.4 9 42.1 15.4 93.7 32.4v1.2c-51.5-16.9-68-22.8-93.2-32.2 0-.1-.1-.2-.1-.2zm85.3-95.1c.4 0 .9.1 1.3.1 3.6 59.5 5.1 84.1 13.5 121.7-.4 0-.9-.1-1.2-.1-4.7-21.3-11.7-53.5-13.6-121.7zm-8.4-5.1c.5.7.6.9 1.2 1.5-34 28.3-66 56.5-83.2 90.3-.6-.6-.7-.7-1.3-1.2 10.1-18.3 22.7-41 83.3-90.6zm17.3-393.8c.4-.2.7-.3 1-.5-1.4 11 3 20 31.3 41.2-.4.4-.5.5-.8 1-26.3-19.9-33.4-29.2-31.7-41.6.1-.1.2-.1.2-.1zm59.2-18.5zm-4 0h1.8c-38.2.9-56.8 5.8-55.5 14.6-.4.2-.8.4-1.3.6-.8-9.1 17.7-14.3 54.7-15.2h.3zm5.3 0l.3.3c-1.3.5-2.4 1-8.5 2.6l-45.9 12.1c.7-.5.7-.5 11-3.3l25.2-6.5c15.5-3.9 16.8-4.4 18.3-5.1-.2 0-.3-.1-.4-.1zm2.9 618.3c-.3.1-.3.1-3.6.2l-10 .2c-.5 0-.9-.1-1.4-.1l15-.3zm-35-5c1.9.6 3.4 1.9 5.2 2.5 3.4 1 8.1 2 11.7 2.6-9.8-1.1-13.9-3.4-16.9-5.1zM481 56.7l1.7 1.1c1.5 1.2 3.5 2.8 4.5 4.4.6 1 .4 2.8.1 3.9-.5-.4-1-.8-1.6-1.1.2-1.3.1-3.3-.5-4.5-.8-1.5-2.8-2.8-4.2-3.8zM260.7 562c.6.3.7.3 1.3.5-1.6 16.6-4.1 41.6 17.3 56.2-.3-.1-25.3-10.2-18.6-56.7zm25.9 59.7c-.2-.1-.5-.2-.8-.4l33.4 5.6c-.5.3-1.3-.1-1.9-.3-5.6-1-10.9-1.8-30.7-4.9 0 .1 0 0 0 0zM317 9c3 2.1 4.8 3.4.2 16.5-3.5 10.1-12.7 27-20.1 40.6-.2-.1-.6-.2-.8-.3C316.2 28.2 323.7 14.1 317 9zm29.8 600.3c.1.1.2.1.3.2-10.1 7.9-16.3 12.7-24.9 16.8 7.7-4.4 11.6-6.7 24.6-17zm-78.4-47.2c.2-.1.4-.3.7-.6 42 42.5 54.6 56.9 51.8 64.8-.1 0-.2.1-.3.1 1.8-8.2-7-19-52.2-64.2-.1-.1-.1-.1 0-.1zm71-46.5l.5 1.2c-43.4 20.7-50.1 23.9-71.2 36-.3-.5-.3-.5-.7-1 23.9-14 34.6-19 71.4-36.2zm-69.3 44.2c.1-.2.1-.5.2-1 50.2 24.2 66.7 33 79.5 44.1-.2.2-.5.4-.7.6-16-12.5-27.8-19-79-43.6v-.1zm19.6-480.4c.3.1.8.1 1.1.2-29 80.3-43.6 120.6-62.9 199.1-.3-.1-.8-.2-1.2-.3 8.8-40.3 22.5-92.4 63-199zm311.2 347.7c0 .1-6.8 15-59.3 41.4.2-.8.3-.9.5-1.7 25-12.8 42.6-22.6 58.8-39.7zM353.8 152.2c.3.3.7.6 1 .8-38.4 45.1-81.9 85.3-121.8 129l-1-1c39.1-44.4 82.6-84.6 121.8-128.8zm-98.3 271.6l1.1-1.1 86.5 82.2c-.3.2-.7.5-1 .8L255.3 424c0-.1.1-.1.2-.2z" opacity=".4"/><path d="M258.6 416.8v-1.6l172.6 14.2-.4 1.8L258.6 417v-.2zM225 302.7c.4 0 .9-.1 1.7-.3 4.7 31.1 8.4 55.6 18.9 101.4-.4 0-1 .1-1.4.2-5.4-22.3-12.2-50.1-19.4-101.2.1-.1.2-.1.2-.1zm10.6-10.8c.1-.5.1-1.3.1-1.8l193.2 10.1v2l-193.2-10.1c-.1-.1-.1-.2-.1-.2zm194.2 15.3l.9 1.8c-56.4 36.1-115.8 67.1-173.4 101.3l-1-1.7c57.8-33.9 117.2-65 173.5-101.4zm-133-228.9l.9-.7c14.4 17.3 18.8 22.6 56.1 59.9-.6.4-.7.5-1.2 1-33.5-33.7-42.4-43.2-56-60.1.1 0 .2-.1.2-.1zm34.1-61.9c.2.1.4.2.5.2.2 10.3-2.9 18.7-32.7 50.6-.4-.3-.5-.4-.9-.7 21.5-23.1 34.4-38 33.1-50.1zm60.6 38.4c.2.2.5.5.7.8-21.2 5.1-44.2 8.9-91.7 16.3v-1.2c35.3-5.5 63.3-9.9 91-15.9zm-11.1-34c33.8 14.7 70 34.3 107.7 96.1-.2 0-.5-.1-.7-.1-25.1-38.5-50.6-72.4-107-96zm107.8 49.3c.2.1 18.6 15.5 7 51.2l-1.3-1.3c4.2-14.6 8.1-28.4-5.7-49.9zM375.8 19.6c6.2 1.9 14.3 9.8 14.8 10.6 6.1 8.8 6.2 10.1 6.9 20.4-.4-.3-.8-.5-1.2-.7-1.2-15.4-3.6-20.2-20.5-30.3zm-41.4-3v-.2c16.3 8.7 29.3 16.1 55 32.8-.1.2-.2.4-.2.6-23.7-15.5-35.5-22.8-54.8-33.2zM440 314.2c.5 0 .9 0 1.8-.2 2.4 37.5 3.7 63.3.9 106-.4 0-.9 0-1.3.1 1.3-37.6 2-60.4-1.4-105.9zM316.3 8.9h-.3c3.2.2 16.4 1.3 50.8 7.8.4.1.9.3 1.3.4-35.1-6.7-48.5-8-51.8-8.2z" opacity=".4"/><path d="M317.3 9c2.9.8 6.8 2.3 9.7 3.6 0 0 0 .1-.1.1-2.8-1.3-6.6-2.8-9.6-3.7zm15.9 5.8c-.2-.1-.3-.2-.5-.3l36.1 2.8 1.4.5-37-3c0 .1 0 .1 0 0zm70.7 44.7c.1-.2.1-.4.2-.6 34.5 23.2 49.5 34.4 80.3 59.5l-.3.9c-31.2-25.5-46.2-36.7-80.2-59.8zm-7.6-.5c.3.2.6.3.9.5-.3 14.2-.8 33.5-30.6 78.7-.6-.5-.8-.6-1.4-.9 13.3-21.2 31.7-50.1 31.1-78.3zm128 226.6c.1.9.1 1.2.3 2l-74 13.5c-.1-.9-.1-1.2-.3-2l74-13.5zM365.2 154.7c.4-.1.9-.4 1.3-.5C389.9 195.6 412 234.8 436 290c-.4.1-.9.4-1.3.5-23.2-49.9-31.8-68.6-69.7-135.8h.2zm121.1-28.5a12.75 12.75 0 01.7 1.2c-10.9 2.4-33.4 7.3-116.4 17.6-.1-.4-.2-.9-.3-1.2l116-17.6zm6.2 7c.2.1.5.3.7.4 2.2 39.4-4.9 79.6-46.9 158.3-.5-.3-1.1-.8-1.6-1.1 25.5-48.6 50.2-100.8 47.8-157.6zM350.1 520.8l1.3-.4c4.4 22.2 10.9 55.9 2.4 80.6-.3.1-.6.2-.9.2 3.3-13.4 7.8-31.9-3.1-80.4h.3zm81.8-82.4c.4.6.5.7 1 1.3-28.2 25.4-31.8 28.5-76 66.3-.2-.3-.5-.6-.7-.8l75.7-66.8zm-74.4 76.4c.1-.3.3-.6.4-1.3 29.9 7.3 85.5 21 114.2 36.2l-.9.9c-22.3-9.7-43.4-18.8-113.8-35.7l.1-.1zm-3 92.2c.2-.2.5-.4.7-.6 10.1 4.5 13.2 6.4 15 10.3-.4.2-.9.3-1.3.5-1.6-3.5-3.7-5.3-14.4-10.2-.1.1 0 0 0 0zm112.8-51.6c-.1.2-4.2 5.5-110.1 48.2.1-.2.1-.4.2-.5l109.9-47.7zm61.3-74.3c.2.1.4.1.6.2-15 24.2-22.5 36.4-46.8 63.3-.2-.1-.5-.1-.7-.2 19.3-22.1 28-32.2 46.9-63.3zm-82.9-41.3c.3-.2.7-.5 1.3-1.1 24.7 41.5 36.8 70.9 30 107.2-.3.2-.7.4-1 .6 3.4-26.8 3.3-51.6-30.5-106.6.1 0 .2 0 .2-.1zM405.1 22.2c39.7 11.6 66.2 32.4 75 39.2a.76.76 0 00-.4-.2c-.1-.1-.3-.1-.4-.2-4.7-2.5-10-7.4-14.3-10.6-9.2-6.8-27-17.2-59.9-28.2zm-25-2.1c-.2-.1-.5-.2-.7-.3 39.6 12.3 61.6 21.7 98 41.7l.8.8c-29.3-16.1-51.9-27.7-98.1-42.2zm120.3 113.6c.1-.2.2-.6.3-.8 25.1 24.5 41.7 41.2 66.4 75.4-.1.2-.2.5-.3.8-19.9-26.2-31.9-42-66.5-75.2.1-.1.1-.2.1-.2zm-3.7 1.3c.2 0 .5.1.8.1 11.4 24.2 30.4 64.8 35.3 137.7-.2 0-.6-.1-.8-.1-5-43.4-9.7-84.4-35.3-137.7zm31.1 159.3l1.1 1c-13.6 29.5-29 62.9-79.9 127.2-.3-.3-.8-.7-1.2-1 40-51.6 60.2-83.7 80-127.2zm42.7 99.5c.2.1.5.2.7.3-10 27.3-14.6 39.8-30.1 67.2l-.8-.4c13.2-25 20.5-38.8 30.2-67.1zm-120.8 41.1c.3-.7.5-1.1.6-1.6 36.6 13 55.9 20.6 80.3 34.2-.4.7-.6.9-1 1.6-16.2-8.9-30.1-16.5-80-34.1 0 .1 0 0 .1-.1zm118.4-50c0 .4-.1 1-.1 1.5-21.8 10.5-45.6 21-117 42.8v-1.4c74.1-24.5 83.6-27.6 117.1-42.9zm2-161c.4.7.5.9 1 1.5-8.9 19.5-12.2 26.8-32 52.8-.4-.8-.5-1-1-1.6 15.6-20.9 21.5-28.7 32-52.7zm-32 71.1l.9-1.1c12.2 22.5 24.9 45.7 33.8 78.7-.5.5-.6.6-1 1.2C565 352 558 329.4 538 295.1c0 0 .1 0 .1-.1zm-71.7 264.1l.3.3c-21.2 17.2-47.5 38.6-88.9 55.4 23.2-10.5 49.4-22.5 88.6-55.7zm109.1-409c21.8 36.5 26.1 46.2 38.6 86.4-12.9-41-17.3-50.7-38.6-86.4zm-34.1 380.2c-.4.5-.9 1-1.4 1.4-5 4-12.4 10-60.1 19.9.4-.4.5-1.1 1.1-1.3 3.2-1.1 7.7-1.7 11-2.4 12.2-2.5 41.5-9.5 49.4-17.6zm-32.5 30l-2.6 2.1c-20.5 14.8-29.8 21.6-59.5 35.7 12-6.5 24.4-12.3 36.1-19.4 8.2-5 18.4-12.6 26-18.4zm-34.6-3.6l1.2-.9c-1.5 11.6-3.4 26.1-31.8 43.1-.5.2-1.1.5-1.6.7 13-8.3 30.7-19.7 32-42.7.1-.1.1-.2.2-.2zm20.1-484.5c-.2-.2-.4-.5-.6-.7 20.7 14.2 46.6 31.8 69.8 61.6.2.2.4.5.5.8-14.5-17.1-30.9-36.4-69.7-61.7zm-.9 1.1c.5.2 56.2 40.7 77.9 133.9l-.6-.3c-9.8-35.6-23.3-84.4-77.3-133.6zm78.3 71.5c9.4 13.5 17.9 36.3 4.5 68.1l-.9-1.6c6-16.6 13.6-37.3-3.6-66.5zM377.1 15l2.4.5 10.7 2.5c-1.3-.4-1.3-.4-13.1-3zm-43.5-5.6l2.1.1c21.4 1.6 32 3.9 36.5 7.8-.5-.2-1.1-.3-1.6-.4-.6-.2-1.2-.9-1.7-1.3-.5-.3-3.5-1.9-9.8-3.2-9.3-2-19.4-2.6-25.5-3zm41.1 8.7c-.5-.1-.9-.3-1.4-.4 11.6.6 16.5 1 21.2 1.5.6.2 1.3.3 1.9.5-4.3-.5-8.5-.9-21.6-1.6h-.1zm244.5 241.3c4.8 32.8 12.1 82.5-11.3 153.9 10.5-36.6 23.5-82.2 11.3-153.9zm-40 127.9l.6-1.6c11.3 10.5 20.3 18.9 23.9 34-.2.6-.5 1.2-.7 1.8-3.2-10.3-5.5-17.7-23.8-34-.1-.1 0-.2 0-.2zM369.9 618.5c.4-.1.8-.3 1.2-.4 1.9 1.4 5.6 4.1-10.8 6.7-1.2.2-2.8.4-4 .6l-2.1.3c12.7-1.7 20.2-3.6 15.5-7 0 0-.1-.1-.2-.1.3 0 .3-.1.4-.1zm62.2-13.7l1.4-.6c-15.4 6.6-16 6.9-28.5 10.8l-2.3.7c16-5.2 18.1-5.8 29.2-10.8 0-.1.1-.1.2-.1zm3.2-2.2c-.1.1-13.1 5.5-62.3 14.7.4-.2.8-.4 1.3-.5 20.3-4.8 41-8 61-14.2zm140-373.6c.2 0 .5.1.7.1 9.1 47.5 11.7 80.8 1.6 141.7-.2 0-.5-.1-.7-.2 7.8-53.1 9.3-84.6-1.6-141.6zm3.8-7.9c-.1-.7-.3-1.4-.4-1.6 20.9 10.1 28.2 14.5 36.4 24.9.1.6.3 1.3.4 1.9-7.6-9.2-12.8-13.7-36.4-24.9v-.3zm38.7 33.9c.1.5 12.7 49.2-37.1 120.4-.1-.4-.2-.9-.3-1.3 16.8-25.9 42.2-65.1 37.4-119.1zM19 230.6c-1.4 4.8-4.1 14.9-5.2 19.8 1.5-6.7 3.3-13.3 5.2-19.8zm265.5 395.8c-.2 0-.4 0-.6-.1a289.68 289.68 0 0024.7 1.5h-.5c-7.9-.1-15.8-.6-23.6-1.4zM70.3 506.7l-.2-.2c.6.6 14.8 17.8 14.9 17.9-.1 0-.1-.1-.2-.2a305.79 305.79 0 01-14.5-17.5zM315.9 8.9c-5.3 0-9.9.1-12.7.3 4.1-.2 8.4-.3 12.7-.3zM212.8 27.5c-5.4 2-10.1 4-11 4.7 0 0 0 .1.1.1 1.5-.2 20.8-7.7 21.5-8.2h-.1c-1.2.2-5.7 1.6-10.5 3.4zM94.4 110.2c4.2-4.8 8.4-8.3 10-8.4 2.7.5-8.4 13.2-12.9 16.3-1.9 1.3-2.8 1.3-2.6.1.4-1.5 2.4-4.5 5.5-8zM170.6 585c-5.1-3.3-6.9-5.3-6.1-5.6h.2c3.3.3 19.8 10.8 18.7 11.8-.5.6-6.1-1.8-12.8-6.2zM66.7 255c1-5.6 4.1-11.3 8.9-11.5 7.4.1 6.7 15.5.6 21.5-4.4 4.3-10 2-9.8-6.4 0-1.2.1-2.4.3-3.6z" opacity=".4"/><path d="M91.9 400.6c-1.6-7.8 1.8-11.4 5.5-11.5 10 .7 13.1 17.6 8.1 21.9-3.9 3.2-11.6-.1-13.6-10.4zm211.8 227l-8.1-.9c5.8.3 11.6 1.2 17.4 1.3-1.1 0-4.8-.1-9.3-.4zm-157-109.9c-3.1-5.2-2.5-8.9 1.4-9 8.3.5 16.5 13.7 12.6 17.2-2.4 2.1-9.4-.5-14-8.2zm14.6-416.4c2.6-3.8 7.1-7.9 11.7-8.2 5.3 0 2.3 7.4-2.5 12.2-5.4 5.4-11.4 5.7-11.5 1.8-.1-2 1.4-4.5 2.3-5.8zM254 25c3.6-2 7.8-3.5 9.7-3.6.3 0 1.1 0 0 1-3.5 3.2-14.5 8.2-14.3 6.1 0-.6 1.8-2 4.6-3.5zm26.5 595.9c-3.3-1.3-4.4-2.3-3.9-2.6.1-.1.3-.1.4-.1 2.6.1 12.2 4.3 12.2 5-.7.4-5.2-.8-8.7-2.3zm-67.7-330.6c.3-7.1 4.9-11.9 11.7-12.1 12.3 0 14.2 15.1 7.4 21.4-6.5 6.1-19.6 3.1-19.1-9.3zM255 555.5c-1.5-4.3.6-7.4 5.1-7.4 8.5 0 12.6 9.7 8.9 13.5-3 3.1-11.5 1.2-14-6.1zm-18.8-140.3c-.6-7.8 4.7-11.4 10.3-11.5 12.1.3 15.3 13.9 9.3 19.8-6.2 6.1-18.8 2.2-19.6-8.3zM285.7 72c.4-1.4 2.1-6.1 8.4-6.5 7.1.1 8 7.7 4.2 11.6-4.2 4.3-12.9 3.1-12.9-3.1 0-.4.1-1.1.3-2zm53.5 439.2c.6-3.8 3.7-8 10.5-8.3 10.7.4 10.4 11 5.3 15.5-6.1 5.3-16.6 2.5-15.8-6.2-.1-.3-.1-.7 0-1zM315.9 8.9c.9 0 1.5.1 1.5.2h-.4c-.6-.2-.8-.2-1.1-.2zm2.9 618.3c1-.5 2-1.1 2.9-1.1.5 0 .5.2.2.4-.9.8-3.9 1.4-4.5 1.3l.1-.1c.4 0 .7-.2 1.3-.5zm31.7-482.9c0-3.9 2.3-8.2 8.9-8.5 10.8.3 14.2 12 9.1 16.9-5.4 5.2-18 2.2-18-8.4zM328 14.3c-.9-.9-1.7-1.9-.6-1.9 2.5.1 8 3.3 6.8 4.4-.6.6-3.4.2-6.2-2.5zm19.6 591c2.3-3.2 5.5-4.4 7.5-4.4 3.2.1 3.2 2.6 0 5.6-3.7 3.5-8.8 4.5-8.7 1.7 0-.8.4-1.8 1.2-2.9zm81.2-303.7c-.1-7.1 4.2-12 10.6-12.2 12.2.3 14 16.5 7.4 22.3-6.2 5.4-17.9 2.3-18-10.1zm2 129.6c1.4-8.7 8.1-11.1 11.9-11.2 11.1.3 9.8 13.4 4.1 18.8-6.2 5.8-16.2 3.7-16.2-5.5 0-1 .2-2.1.2-2.1zM390.6 53.6c-.8-1.2-3.1-5 .9-5.2 6.7.3 14.7 9.2 12.1 11.6-2.2 1.8-8.9-.4-13-6.4zm-23.1 564.2c3.8-1.5 8-3.1 9.9-3.2.3 0 .6 0 .3.4-1.4 1.7-14.7 6-16.3 5.7v-.1c.2-.2.4-.5 6.1-2.8zm156.7-334.4c-.1-6.3 2.8-10.6 7.4-10.7 8.9.1 12.3 16.8 6.5 22.4-5 4.8-13.8.7-13.9-11.7zm-38.7-158.6c-2.7-5.5-1.2-7.9 1.5-8 6.8 0 16.9 13.8 12.9 17.5-2.6 2.5-10.1-.9-14.4-9.5zm-115.3-107l-7.2-2.6.1-.1c2.5.1 17.9 4.4 18 5.7-.8.3-6.3-1.4-10.9-3zM469.9 552c4-4.6 8.4-7.5 11.6-7.7 3.3 0 1.7 4.2-3.5 9.3-5.8 5.6-11.7 7.5-11.8 4.8-.1-1.3 1.3-3.6 3.7-6.4zm58.8-81c2.7-5.9 6.9-9.9 10.6-10.1 6.2.1 2 12-3.7 17.4-4.5 4.3-8.8 3.8-8.7-1 0-1.1.3-3.2 1.8-6.3zm40-89.7c1.1-4.9 3.7-10.3 7.8-10.6 6.7.2 5.1 16.3-.7 21.9-3.2 3.1-7.9 2.4-7.9-5.9.1-.3.1-2.4.8-5.4zm-1.5-164.8c-1.1-4.6-1.1-9.5 2.3-9.8 6 .1 12.9 17.3 8.7 21.7-2.5 2.6-8.3-1.4-11-11.9zM482.6 66c-3.3-2.6-7.1-5.8-5.8-6 3.5.2 19.5 12.1 18.3 13.5-.4.5-3.5-.5-12.5-7.5zm-44.9 535.6c6.8-3.1 9.9-4.5 10.8-4.7-.5 1.3-19.3 9.2-21.2 9.5.1-.2.1-.2 10.4-4.8zM602 423.9c2.4-6.5 4.5-10.7 5.6-10.9 2 .4-5.1 20.6-7.8 22.3-.8.5-.8-1.1 0-4.1.5-2.5 1.5-5.3 2.2-7.3zM395.8 19.5c-3.7-1-7.5-1.7-11.2-2.9 4.9.9 19 4.8 23 6.2-.2 0-.2 0-1.5-.4l-10.3-2.9zm220.1 228.2c-1.1-4.8-2.4-10.8-2-11.5 1 .8 5.9 21.6 5.5 23.4-.6-.1-2.4-7.5-3.5-11.9zm-47.7-108.1c-2-2.8-4.1-5.6-6-8.5l3.4 4.6 10.1 14.6c-2.6-3.5-5-7.1-7.5-10.7z" opacity=".4"/><path d="M427.3 609.1c-.3.2-.7.3-1.1.5 23.7-9.4 33.5-13.3 58.7-28.7l2.4-1.5c-20.7 12.6-28.5 17.4-59.9 29.8l-.1-.1zm79.7-44l1.9-1.5c13.7-11.8 14-12.1 20-19.2-.4.4-.9.7-1.3 1.1-2.8 2.6-6.1 6.5-8.7 9.3-3.2 3.5-8.2 7.4-11.9 10.3zM429.2 608c37.5-16.9 56.5-27 94.3-59.7l-.1-.2c-31.8 27.1-49.3 40.1-94.2 59.9zm109-508.5l-3.1-3.1C513.9 77 474.4 40.9 401.8 19.1c49.7 18.6 89 33.3 136.4 80.4z"/><path d="M554.7 117.6c-.5-.5-.9-1.1-1.4-1.6-2.5-2.5-5.8-5.8-8.5-8.1.4.5.8 1 1.2 1.4 2.6 2.5 6.3 5.6 8.7 8.3zM605.8 244l.7 1c-1.7-26-4-61.6-35.4-106.3-.6-.9-1.3-1.8-1.9-2.7 14.9 22.7 35.4 53.8 36.6 107.8-.1.1-.1.1 0 .2zM402 29.1l1.3.7c1.2-3.2 1.5-4.1-.5-7-1.6-2.2-5.4-4-8.2-5.4-.6-.2-1.2-.3-1.8-.5 4.6 2.2 6.9 3.3 8.8 5.8 1.8 2.4 1.1 4.3.3 6.3 0 .1.1.1.1.1zm131.5 68.5C502 68.7 468.3 41 402.7 19.5c41.7 14.7 80.4 30.7 130.8 78.1zm2.9 3.9c-.2-.3-29.7-30.4-127.8-68.4 4 3.2 10.9 4.6 15.6 6.5 66.7 26.9 98.6 51.4 112.2 61.9zM424.1 609.7c.3-.1 26.2-9.9 43.6-32.1-.5.3-1 .5-1.4.8-2.8 2.1-5.4 6.1-7.8 8.7-.4.5-10.4 11.5-34.4 22.6zm116.4-77.9c42.7-46.3 61.8-80 78.6-138.8.6-2.3 1.1-4.6 1.6-6.9-8.6 32.2-22.9 86.2-80.2 145.7zM628 310.5l-.1-2.4c-1.7-14.9-3.2-27.7-17.7-48.8 0 .6-.1 1.2.1 1.8 1.4 4 5.1 8.3 7.2 11.9.4.6 9.8 16.3 10.5 37.5zm-44.7 41.7c.2.2.4.6.5.9 9.8-25 19.1-48.5 22-88.2-.3-.5-.4-.6-.7-1.1-2.7 24.9-5.2 48.5-21.9 88.4h.1zm1.9 7.5c0 .8 0 1.5-.1 1.8 26.8-12.2 40.7-21 42.8-34.9v-2.2c-2.2 10.3-6.5 18.9-42.8 35 .1.1.1.2.1.3zM352.9 626.2c19.8-5 56.6-14.3 108.1-46.6l.1-.5c-22.7 13.6-60.9 36.5-108.2 47.1zm176.6-464.1l.9 1.2c15.3-18.3 22.1-32.2 14-53.1-.4-.5-.9-.9-1.3-1.4 6.2 17.4 5.7 29.8-13.6 53.1-.1 0 0 .1 0 .2zm74.7 80.3c.2.1.4.3.5.4-5.9-31.7-13.9-75-55.6-128.3l-.6-.4c19 25.7 45 61 55.7 128.3zm-3 4.9c0-2.6-18.4-33-67.2-74.3v1.1c25.1 22.7 46.9 42.4 67.2 73.2zM477.5 570l-.8.8c14.8-6.8 31.6-14.5 49.8-26.5.4-.4.8-.9 1.2-1.3-13.4 8.4-23.9 15.1-50 26.9-.1.1-.2.1-.2.1zm60.5-37c.6-.4 54.7-49.9 43.1-159.7l-.6.6c3.6 52 2.9 99.9-42.5 159.1zm-4.5 4.1c.2-.2 21.5-21.6-16.7-62.8-.5.7-.6.9-1.1 1.6 15.8 18 29.1 36.2 17.8 61.2zM317.9 6.3c1.6.1 4.2 0 4.2 0h-1.9c-.8.1-1.5 0-2.3 0zm71.3 9.6c-7.4-2-43.5-7.3-70.6-9.5l70.6 9.5zm-4.3-1.5l1.3.3c-17.3-4-24.5-5.7-50.2-7.8l-2.5-.2c22.1 1.8 29.4 2.5 51.1 7.6.1.1.2.1.3.1zm-47.5 615.5l3.2-.2c33-3.6 41.6-5.4 70.3-14.5-21.2 6.6-39.5 12.3-73.5 14.7zm11.8-2.7l-1.2.3c25.6-4 42.5-7.5 64.5-13.4.6-.2 1.1-.4 1.7-.6-17 4.6-33.7 8.8-64.9 13.7h-.1zm50.1-28l-.6.6c28.9-9.5 44.4-15.2 64.3-23.1l1.1-1.1c-23.3 9.3-34.6 13.4-64.8 23.6.1-.1 0 0 0 0zm76.1-31.9c.3-.1 28.6-23.3 36.4-87.9-.3.2-.7.4-1 .6-4.7 28.7-8.6 53.5-35.4 87.3zm-124.1 59c2-.4 20.2-4.1 37.6-20.4-.3.1-.7.1-1 .3-3.3 1.8-6.7 5.5-9.6 7.8-6.8 5.6-22.2 10.9-27 12.3zm-34 4.4h2.2c19.5-.3 24-1.6 25.7-2.6l-1.5.3c-.3.1-.6.3-.9.4-1.3.6-6.4 1.1-8.3 1.3-2.1.1-7.1.5-17.2.6zm-1.4 0c6.9-.2 10.3-.3 23.7-2 .4-.1.8-.2 1.2-.2-12 1.4-16.3 1.9-24.9 2.2zm262.4-279.6c.2-.1.6-.2.8-.3-1.7-34.6-4.6-92.5-47-173.5-.2.1-.6.2-.8.3 22.1 45.1 44 95.7 47 173.5zM518.8 461l.4.4c16.9-21.6 34.3-43.8 55.4-87.2-.4-.4-.4-.5-.8-1-14 27.5-24 47.5-55 87.8-.1-.1 0 0 0 0zm-8.9 1.3c.3-.2.6-.5.9-.7-3.4-20.7-12.5-75.7-84-177.5-.4.4-1 .9-1.5 1.2 36.4 53.6 75 116.4 84.6 177zm63.3-102.9c.1-.5.3-1.1.4-1.5-32.5-26.4-74.2-49.5-143.8-79.7-.1.4-.2 1-.4 1.5 60.5 28.1 104.1 48.5 143.8 79.7zM354.3 146.6c.5-.1 1.2-.1 1.7-.1-4.5-23.6-18.2-95.5-32.8-130.2h-.5c3.7 9.8 15 39.6 31.6 130.3z"/><path d="M395.1 28.5c-2.5-1.9-51.6-18.1-75.3-21.9 14.3 3 32 6.7 75.3 21.9zm2.1 1.4c-1.2-.8-1.2-.8-11.3-3l-61.3-13c0 .1.1.3.1.4l72.5 15.6zM317 630.6c13.8-1.4 29.5-2.9 68.2-24.4l-.1-.3c-20.1 10.9-42.8 23.2-68.1 24.7zm202.9-473.8c.2 0 .4-.1.6-.2-26.8-46.8-55.8-85.4-110.3-121.2 36.4 25.7 69.8 52.5 109.7 121.4zm-156.7-7.9c.3.3.7.6 1 .9 35.6-40.1 65.3-81.7 41.3-115.3-.4-.2-.9-.4-1.3-.6 15.3 23.9 14.2 52.6-41.2 114.9 0 0 .1 0 .2.1zM427.5 267c.4.5.6.9.8 1.3 41.7-32 73.7-60.3 94.8-94.6-.5-.6-.7-.8-1.2-1.5-15 22.9-33.6 47.4-94.6 94.6.1 0 .2.1.2.2zm91.7-99.7l-.7-1.7-151.1-9.3c.1.5.1 1.2.1 1.7l151.7 9.3zM315.9 630.7h-1.4c.4-.1.9 0 1.4 0z"/><path d="M315.9 630.7c9.5 0 13.4-3 11.7-8.8l-.6.3c.2 1.9.1 5.1-1.4 6.3-2 1.4-5.2 2.2-9.7 2.2zm14.2-12.3c0 .1-.1.2-.1.3l56.2-15.2.8-.8-56.9 15.7zm175.6-150.9a9.13 9.13 0 01.8-1.3c-28.3-19.6-63.3-36.8-129-63.4-.1.4-.4 1-.5 1.4 74.4 32.2 94.4 40.9 128.7 63.3zm-106 128.9c29.4-21.6 65-52.2 106.3-115.7-.3-.1-.7-.3-1-.4-18.4 27.7-49.3 74.1-105.3 116.1zm-8.4 3c.4-.3.8-.5 1.2-.8-7.1-14.7-19-24.8-53-45.1-.3.5-.4.7-.8 1.1 34.2 20.5 45.9 30.5 52.6 44.8zm-51.1-53.1l.3.9C447.9 503.7 486.6 484 503 475.6c0-.5.1-1.1.2-1.6-49.4 24.6-71.2 33.8-163.1 72.1.1.1.1.2.1.2zm8.1-396.5c.2-.3.6-.6.9-.9-56.7-54-68.5-65.3-82.1-89.6-.2.2-.6.4-.8.6 15.5 27.7 35.9 47.7 82 89.9zm-2 5.9c0-.5.1-1.2.1-1.7l-148.1-26.2c-.2.5-.5 1.1-.8 1.5 49.8 10.3 78.8 15 148.8 26.4zm24.6 232.4c.4.1 1 .4 1.4.6 17.3-36.3 27.1-58.5 43.3-102.2-.8-.3-1-.4-1.8-.8-13.2 34.8-20.4 53.9-43.1 102.4h.2zm41.7-124.4l1.3-.6c-12.1-25.9-18.2-38.9-50.8-97.3-.3.2-.8.4-1.2.5l50.7 97.4zM184.8 271c.1.2.3.6.5.8L349 163.2l-1.1-1.5c-54.4 36.3-110.4 70.3-163.2 109 0 .2.1.2.1.3zm1.7 6.6v1.2c27 .4 27 .4 220.9-3 0-.6-.1-1.4-.1-2l-220.8 3.7v.1zM306.3 6.5c-.5 0-1.1.1-1.6.1 4.3-.1 8.7-.1 13-.1-.1 0-.3 0-.4-.1l-10.9.1h-.1zm-63.5 599.2c.3.2.7.4.9.5 6.1-13.2 21.3-25.9 80.8-52-.3-.5-.3-.6-.5-1.2-46 20.5-75.7 36.4-81.4 52.6.1.1.2.1.2.1zm84.3 10.6c.2 0 .4 0 .6-.1 2.1-9 5.4-22.5 5.3-58.3-.6.1-.8.1-1.4.1 0 16.7 0 41.9-4.5 58.3zm-16.6 14.1c-21.2-2.6-41.8-11.3-60-19.1.1.1 25.5 14 60 19.1z"/><path d="M312.3 630.5c.2 0 .4 0 .6.1-1.1-.2-2.7-.6-3.6-1.4.8-1.7 1.4-2.9 13.5-7.8v-.5c-3.1 1.3-7.3 3-10.2 4.7a12.59 12.59 0 00-3.7 3.2c.8 1.3.8 1.4 3.4 1.7zm10.8-11c.1-.1.1-.3.2-.4-25.3-4.2-50.9-7.1-76.3-10.8 1 .7 1 .7 10 2l66.1 9.2zM197.7 118.8c.2.2.5.4.6.6 23-23.3 33.5-33.9 60-58.5-.3-.2-.4-.3-.7-.6-19.8 18.4-36.8 34.3-60.1 58.4.1 0 .2.1.2.1zm127 427.8l.6-.9c-61.8-36.5-126.4-67.9-187-106.5 0 .3-.1.7-.2 1 21.3 14.2 26.4 17.6 55.3 34 43.4 24.8 87.8 47.7 131.3 72.4zm9-4.5c.2 0 .5.1.7.1 13.7-49.1 28.9-122.7 30.5-131-.9-.1-1.1-.1-1.9-.3-7.1 34.5-11.8 57.3-29.6 131.1.1.1.2.1.3.1zm21.9-148l1.1-1.7C229.5 316 229.5 316 185.2 284.4c-.3.6-.7 1.3-1 1.8 42.2 29.6 42.2 29.6 171.4 107.9zM137 431.9l.4 1.2 217-31.1c-.1-.6-.1-1.4-.1-2l-217.4 31.7c.1.1.1.1.1.2zM322.1 11.4c.1.1.3.1.4.2l-.4-3-2.2-1.7c-.1 0-.2 0-.4-.1.7.5 1.6 1.2 2.2 1.8.2.8.3 1.9.4 2.8zm-62.2 7.1c-.3.1-.6.3-.9.4l59.3-12.2v-.2c-.1 0-.3-.1-.4-.1 0 .1 0 .2-.1.3-1 .4-1 .4-57.9 11.7.1.1 0 .1 0 .1zm10.8 31.8c.1.2.2.4.2.6 32.9-21.1 41.8-28 49.4-35.4l-.4-.4c-7.3 6.8-11.6 10.9-49.2 35.2-.1 0 0 0 0 0zm-10.5 1.6c.4-.4.6-.6 1-.9-7.6-9.2-15.4-18.6-7.5-29.7-1.5.6-6.1 3.6-3.6 15.2.7 3.5 4.1 8.6 10.1 15.4zm-1.5-32.8c-.3.1-.6.3-.9.4l61.3-5.6c0-.1-.1-.3-.1-.5L258.9 19c-.1 0-.1.1-.2.1zm-23.1 584.2c-24.4-20.1-70-57.5-102.6-158-.2 0-.6 0-.8.1 14.6 45.7 41.1 111.8 103.4 157.9zM49.8 329.5c.1.5.2 1.1.2 1.6 34.2-18 56.7-27.9 115.4-47.9-.2-.9-.2-1.1-.3-2-57.1 19.4-82.9 30.2-115.4 48.1.1 0 .1.1.1.2zm79.9 94c.2.1.5.3.8.4 9.5-48.7 15.5-72.8 40.9-133.4-.5-.2-1.1-.6-1.6-.8-25.9 61.9-33.1 90.2-40.2 133.8h.1zm44.7-156.9c.4-.1.9-.1 1.3-.2.5-56.8 1.7-81 12.9-129.9-.4.1-1 .1-1.5.2-9.5 41.7-13.4 68.9-12.7 129.9zm-7.8 6.3l1-1.8c-32.1-26.2-58.3-48.9-78.3-81.1-.5.7-.6.9-1.1 1.5 14.9 22.7 29.2 41.8 78.4 81.4zm97.9 351.9c1.3.2 1.3.2 1.4.3-10-3.4-17.8-6.1-21.8-14.6-.4-.2-.9-.4-1.3-.6 3.1 5.6 5.3 9.6 21.5 14.8.1 0 .2.1.2.1zm-29.4-20.6c-34.3-19.8-55.6-32.6-95-65.6 0 .2-.1.4-.1.6 20.9 17.4 47 39.1 95.1 65zm-106.6-80.4l1 .6c-6.3-27.7-8-41.8-1.7-80.3-.7-.4-.8-.5-1.5-1-5.1 33.4-5.6 50.6 2 80.6 0 0 .1.1.2.1zm-8-96.6l.4-1.1c-28.8-28.9-49.7-49.8-71.4-84.6-.2.7-.2.7-.5 1.4 14.1 21.6 28.6 43.8 71.5 84.3zM258.4 17.4c.4-.1.8-.2 1.2-.4 6.1-2.2 14-5.6 20.3-7.2 5.5-1.4 13-2.2 18.7-2.8-23.1 1.8-36 8.3-40.2 10.4zm-67.5 101l1.1-.4c6.4-30.3 14.4-68 56.9-94.9-.5.1-44.8 16.9-58 95.3zm-1.3-81.3l-1.2.6c15.6-4.9 27.9-8.8 60.9-16.7l1.2-.6C218.1 28.2 206 31.8 189.8 37c0 0-.1.1-.2.1zM93.3 179.2c0 .4-.1.9-.1 1.2 21.3-12.9 43.3-26.2 88.2-48.3v-1.5c-24.8 12.3-55.6 27.7-88.1 48.3v.3zm91.8-56.6a7.99 7.99 0 011.3-1.3c-25-30.4-33.9-53.2-5.3-79.6-.2.1-20.2 11.9-19 36.8.8 17.6 14.7 34.2 23 44.1zm-131.7 27c5-7.1 11.8-16.7 17.2-23.5.2-.3.4-.5.5-.8-4.8 6.3-11.2 14.6-15.7 21.1l-2 3.2zm23.2-31.5v.2l1.3-1.5v-.2c-.5.5-.9 1-1.3 1.5zm182.3 505.5c-30.3-9.4-76.1-23.6-121.1-83.5-.3-.1-.7-.1-1-.2 25.8 32.5 56.5 65.6 122.1 83.7zm1.4.6c-43-12-53.2-14.8-89.8-33 .2.2 29.3 18.4 89.8 33zM15.5 233.1c5.4-12.1 13.9-23.9 62.7-44.5.2-.8.2-1 .5-1.8-35.5 15.3-56 26.9-62.6 44.2l-.6 2.1zm29.2 88c.2.1.4.2.6.2 5.1-36.4 9.9-70.7 35.3-125.5-.3-.1-.7-.2-.9-.4-13.5 31-28.9 66-35.1 125.6l.1.1z"/><path d="M81.4 180.9l1.1-1.7c-11.2-18.1-18.8-33.8-6.7-58.1-4.5 5.2-17.3 25 5.6 59.8zm5.2-5.7c.4-.2.8-.5 1.2-.6 7.6-32.1 20.4-85.8 88.2-130.4-.7.2-69.2 34.1-89.4 131zm37.3 347.7c-27-38.2-63.8-90.6-77.5-176.9-.3.1-.6.2-.8.3 6.1 33.3 19.1 102.6 78.3 176.6zm32.4 59.4l1.1.6c-17.1-17.1-21.5-25.1-25-45.3-.5-.4-.8-.6-1.4-1.1 3.5 19.7 7.2 28.1 25.1 45.8.1-.1.1-.1.2 0zM23.7 428.6c14.7 32.1 35 57.4 100.1 98.8-.1-.3-.2-.8-.4-1.1-3.9-3.9-10.8-7-15.4-10-63.1-40.9-77.9-74-85-89.9.1.7.4 1.4.7 2.2zM6.5 276.2c-.2 12.3-.4 27.7 32 54.3l.2-2C19.9 312 4.6 296.6 6.8 274l-.3 2.2zm6.9 119.9c-1.8-13.3-3.9-28.4 25.8-56.8-.2-.8-.3-1.1-.4-2-13.8 13.9-31.1 31.2-25.9 56.6.2.8.3 1.5.5 2.2zm302.5 234.6h-1.2 1.2zm-2.4-.1c-4.4-.2-17.3-1-41.7-4.3 3 .6 25.9 3.6 41.7 4.3zM212.4 613c10.2 3.3 22.9 7.4 53.4 12.5-45.4-9.7-45.4-9.7-55.4-13.2.7.3 1.4.5 2 .7zm87.2 17.2c-7.3-.4-19.5-1.2-28.1-3.6l-1.8-.3c4.1 1.1 10.2 2.8 27.7 3.8.8.1 1.5.1 2.2.1zM44 471.9c15 24.1 43 69 108.2 109.1-4.7-5.1-13.4-9-19.1-12.9-9.4-6.2-57.9-40.3-91.3-100.3.7 1.4 1.5 2.8 2.2 4.1zM185.1 602c-9.2-4.7-14.3-7.2-20.4-12.7-.6-.3-1.1-.6-1.7-.9 6.5 5.2 9.8 7.8 20.1 12.7.7.3 1.4.6 2 .9zm-66.4-41.7c12.5 9.4 18.3 13.7 37.1 23.5-.4-.3-.9-.6-1.3-.9-3.5-2.3-8.6-4.7-12.3-6.7-7.3-4-16.7-10.4-25.3-17.3.6.4 1.2.9 1.8 1.4zm189.2-554l-3.6.2 5.7-.2h-2.1zm-59.1 7.2c-25.3 6.3-38.7 10.3-60.4 22.7 8.4-3.8 16.1-8.8 24.7-12 14.6-5.4 18.8-6.7 38.2-11.2-.8.1-1.7.3-2.5.5zm-54.8 21c-.1.1-.3.2-.5.3C220 24 249.9 11.7 295.5 7.2c.2 0 .6-.1.8-.1-25.5 3.1-54.3 6.6-102.3 27.4.1-.1.1 0 0 0zm-8.6.3c-1 .6-2.4 1.3-3 2.3-.3.5 0 1.4.2 1.9l1.7-.9c-.2-.6-.3-1.7.1-2.3.6-.8 1.9-1.4 2.8-1.8l-1.8.8zm-95.9 68.8l-7.7 8.7c1.6-1.7 1.6-1.7 9.5-10.6-.6.6-1.2 1.3-1.8 1.9zm-4.4 6c-.1.1-.2.3-.3.4 20-19.4 42.7-41.4 89.3-65.9.2-.1.4-.3.6-.5-24.7 13.7-55.3 30.7-89.6 66zm455.5-3.4c5.1 5.5 8.4 8.6 9.1 8.5.4-1.6-13.8-16.9-16.2-17.5h-.1c-.2.6 2.3 3.6 7.2 9zM530 540.5c-7.1 7.2-6.7 7.8-6.5 7.9 1.9.1 17.8-15.7 16.9-16.8h-.1c-.5 0-2.5 1-10.3 8.9zm-113.3 72l-9.7 3.7c1.8.2 20.4-6.8 22.2-8.1v-.1c-.8.1-.8.1-12.5 4.5zM390.9 16.4l12 3.3c-.9-1-19.7-5.9-22.9-6.2.2.1.2.1 3.3.9 1.3.3 4.3 1.1 7.6 2zm211.4 239.3c2 8.7 5.4 12.4 7.1 9.9 2.6-3.9-1.2-23.1-6.1-23.5-2.9.4-2.4 7.6-1 13.6zm-136.1 318c-5.3 4.5-5.9 6.3-4.7 6.4 3.8.4 19.5-11.7 17.7-13.6-.2-.2-.4-.2-.7-.2-2.3.1-7 3-12.3 7.4zm106.2-208.9c-.6 9.4 3.9 12.9 8.1 9.2 5.8-5.2 6.9-23-.2-23.4-4.1.1-7.4 6.1-7.9 14.2zM519.1 167c4.4 10.4 12.8 13.1 14.6 8.3 1.9-5.2-4.9-18.4-12.4-18.7-3.9.1-4.8 4.4-2.2 10.4zm-15 304c-3 8.2 1 11.6 6.4 9.1 7.9-3.7 12.8-17.9 6.9-20-.6-.2-1.1-.2-1.6-.3-4.7.3-9.4 4.7-11.7 11.2zM399.2 31.2c7.6 4.6 11.3 5 11.2 3.9-.2-2.1-12.5-8.7-16.7-8.9-.5 0-1.3.1.5 1.6.9.8 2.8 2 5 3.4zM343 628l-7.2 1.3c1.6.1 15.3-2.1 17.3-3.2 0 0-.1 0-.1-.1-.1 0-.1 0-10 2zm45.2-26.2c-3.3 2.8-4.2 4.6-2.3 4.7 4.6.3 16.3-7.9 14.1-9.9-.2-.1-.5-.3-1.2-.3-2.7.1-6.7 2.2-10.6 5.5z"/><path d="M315.9 630.7h1.4c-.5-.1-1 0-1.4 0zm91.4-356c.7 12.7 14 15.4 19.9 9 5.4-5.8 3.8-20.8-9.1-21.5-6.9.2-11.2 5.2-10.8 12.5zM317.6 6.4l1.8.3c.9.2 1.5.3 1.6.2-.2-.2-2.4-.7-5.1-.7.2 0 .8.1 1.7.2zm36.7 393.1c-.3 12.1 13 14.6 19.8 8.6 6.6-5.8 5.4-19.8-6.4-20.6h-1c-8.9.4-12.3 6.5-12.4 12zm-7.9-242.1c1.3 10.5 14.5 12.1 19.3 6.4 4.1-5 1.6-16.8-9.6-17.2-6.6-.1-10.5 4.4-9.7 10.8zm-23.5 462.5c-.8 2.8 1.7 3.6 4.2 2.1 2.5-1.4 4.3-4.8 1.6-5.6-.4-.1-.7-.1-1-.1-1.8 0-4.1 1.1-4.8 3.6zM319 13.4c.4 1.7 1.8 2.8 3.8 2.9 2.6 0 2.6-2.2.8-4-.4-.4-1.5-1.3-2.9-1.3-2.2.1-1.8 2.2-1.7 2.4zm4.7 537.2c0 7.8 9.5 9.8 14.5 4.7 4.5-4.6 3.4-13.2-5.3-13.3-6.8.4-9.2 4.7-9.2 8.6zM257.5 55.8c-2.3 5.2 2.3 6.7 6.5 5.2 5.8-2.1 9.2-10.1 5.2-11.9-.7-.3-1.4-.4-2-.4-4.6.2-8.3 3.8-9.7 7.1zm56.9 574.8h1.5c-2 0-3.5-.1-5.2-.3-.3 0-.7-.1-1-.1.1.1 2 .4 4.7.4zM165.1 279c-.5 12.1 11 15 17.2 9.3 6.1-5.6 6.6-21.3-5.8-22-5.2.1-11 4.1-11.4 12.7zm17.1-151.5c-3.1 8.1 3.1 10.7 8.8 8.1 7.7-3.5 11.4-15.3 5.4-17.5-.9-.3-1.7-.4-2.2-.4-4.8.1-9.8 4.1-12 9.8zM240 608.3c5.5 3.3 11.1 4.9 10.8 3.6-.3-1.8-10.7-8.6-14.8-8.6-1.3 0-1.4.8-.2 2 1.2 1.1 3.1 2.4 4.2 3zM121.2 435.7c3.5 10.1 13.6 12.6 16.4 6.1 2.4-5.7-1.9-18.7-11.3-19-6.5.4-7.2 6.9-5.1 12.9zm131-416c-4.6 2-6.2 3.4-5.4 3.6 1.7.5 16.5-5.8 16.4-7-.1 0-.2-.1-.3-.1-1.8.2-6.6 1.7-10.7 3.5zM127 532.3c5.8 7.1 12.6 9.8 13 6.4.5-4-8.8-15.7-15-16-2.8 0-3 3.4 2 9.6zM79.3 185.1c-3.3 8.5-.3 12.4 4.6 10.2 7.3-3.4 12.6-19.2 7.1-21.1-.4-.1-.8-.2-1.1-.2-3.7.2-8.1 4.7-10.6 11.1zM304.8 6.5c-5.5.3-9.5.7-10.2.8 7.1-.2 14.1-1 21.2-1-3.7 0-7.4 0-11 .2zM268.5 626c5.7 1.1 10.9 1.9 11.5 1.9-.1 0-20.2-4.2-21.2-4.3.3.5 6.7 1.9 9.7 2.4zm-230-291.8c.6 11.1 6.1 14.4 9.3 10.7 4.6-5.2 2.8-23.8-3.9-24-4.3.3-5.8 6.9-5.4 13.3zM181.7 39.5c-3.5 1.9-7.7 4.4-7.9 5.1.9.6 19.9-9.1 20.7-10.7l-.1-.1c-1.6.3-7.3 2.8-12.7 5.7zm-21.2 547.3c4.9 3 10.6 6 11.3 5.7-.3-1.2-17.9-12-20-12.3h-.1c-.3.7 4.4 3.9 8.8 6.6zM77 117.8c-2.4 2.8-6.9 8.4-6.9 9.2 1 0 15.4-17.1 15.4-18.3-.8.3-4.9 4.9-8.5 9.1zM20.4 239.4c-.2.3-.4.6-.5.9 6.2-35.5 10.7-52.6 33.5-90.8l2.1-3.2c-22.1 36.7-28 52.3-35 92.9l-.1.2z"/><path d="M76.6 118.1l1.3-1.5c1.6-.6 3.6-1.3 31.2-2.5-.4.5-.8 1-1.1 1.5-15.7.8-29.9 1.5-31.4 2.5zm-59 128.2l-.5 1.7c-2.5-7.6-2.9-8.8-1.6-14.9l.6-2c-1 7.5-1.1 8.6 1.5 15v.2zm6.1 182.3c-.3-.7-.6-1.5-.8-2.2-1.2-4-3-9.3-3.8-13.4 1.8 5 2.7 10.4 4.6 15.6zM6.5 276.2l.3-2.2c2.9-10.9 3.1-11.8 9.2-20.7-.1.6 0 1.3-.3 1.9-1.1 2.7-3.6 5.8-5.1 8.2-2.1 3.4-3.3 8.8-4.1 12.8zm9.4 126.1c.1.6.3 1.1.4 1.6l-2.9-7.9-.5-2.1 2.9 8.2c0 .1.1.2.1.2zm299.6 228.4zM212.4 613c-.7-.2-1.3-.5-2-.7l-8.2-3.3c3.4 1.4 6.8 2.8 10.2 4zM313 630.6h1.8l-15.2-.4c-.7 0-1.4-.1-2.2-.1 6.7.3 8.1.4 15.3.5h.3zM44 471.9l-2.3-4.1c-12.5-25.4-13.8-28-20.9-50.4l.3.6c2.6 6 4.9 14.5 7.1 20.7 3.6 10.5 10.7 23.5 15.8 33.2zM194.9 606c.5.2 1 .4 1.5.7l-11.3-4.7-2-.9 11.5 4.9h.3zm-76.2-45.7l-1.8-1.5C106 549 100.6 544 94.2 532.5c.4.4.9.8 1.3 1.3 2 2.3 3.9 6.1 5.6 8.7.2.2 4.8 7.2 17.6 17.8zm189.2-554zm-59.1 7.2l2.5-.5c19.8-3.6 28.9-5.3 53.4-6.5-26.5 1-46.4 5-55.9 7zm-63.4 21.3l1.8-.8c3.6-1.4 8.6-3.3 27.4-6.2-.5.2-1.1.6-1.6.7-1.8.5-4.2.7-6.1 1-1.5.2-15.5 2.6-21.5 5.3z"/><path d="M89.5 103.6l1.8-1.9c15.1-14.4 46.5-44.3 118-71.3-4.9 2.8-12.1 5.1-17.3 7.2-14.1 5.8-35.9 16.7-47.7 23.9-28.8 17.6-42.3 29.2-54.8 42.1zM224.4 24l-.9.3c22.9-9.4 37.8-14.9 77.7-17.7.4 0 .8 0 1.2-.1-26.8 2.2-46.2 3.8-77.8 17.4-.1.1-.2.1-.2.1zm-5.6 3.8c1.7-.8 2.5-1.2 53.2-3.2-.2.2-.3.6-.6.6l-52.6 2.6zm85.6 602.6h.5c-27.8-2.1-54.1-4.1-93.5-18.2l-.4-.2c26.8 8.7 52.2 16.8 93.4 18.4-.1 0 0 0 0 0zM190 603.5c-.5-.2-49-19.9-90.5-66.6 6.1 3.2 11.3 11.4 16.1 16.3 1.1 1.2 28.8 29.3 74.4 50.3zm10 4.1c-2.2-.9-2.5-1-3.5-2.4-.6-.8-.8-2.3-.7-3.3.3-1.8 3.3-3.7 5.7-5.2l1.5.9c-3.5 2.2-4.9 3.2-5.6 5.3-.5 1.9.9 3.2 2.6 4.7zM15.6 396c-6-30.8-13.4-69.1.3-134.2-6.4 38-12.6 73.9-.3 134.2zm7.5-155.6c0-.3 14.2-50.4 81.8-118.2 0 .2 0 .4.1.6-32.3 33.9-58.9 64.1-81.9 117.6zm89.1 24.2c-.1.5-.2 1-.2 1.5-14.8-1.4-65.2-6.6-90.4-14 .2-.7.3-1.3.5-2 16 4.5 35.9 8.2 90.2 14.3 0 .1-.1.2-.1.2zm83.4 327.6c.1.1.2.2.3.4-18.9-9-58.2-27.6-95.8-57.6-.2-.4-.5-.7-.7-1.1 17.9 13.7 45.1 34.2 96.2 58.3zm-.8-61.4c.1.3.3.7.5 1.1-38.9 0-99-2.3-99.4-2.3-.4-.5-.9-1-1.3-1.5 10.3.5 27.7 1.3 100.2 2.6v.1zM84.7 519.9c-18.2-21.1-43-50.1-62.4-101.2l.1-.5c11.2 26.8 25.2 60.2 62.3 101.7zm7 5c-.3-.3-28.2-35.7 56.1-104.8a9.13 9.13 0 00.8 1.3c-31.2 28.1-69.9 63.1-56.9 103.5zM18.3 402.3c-.2-.5-15.4-49.4 93.8-130.7.1.4.2 1 .4 1.4-39.3 31.3-93 74.1-94.2 129.3zM145.8 414c0 .4.1.9.2 1.3-44-.5-111.5-4.3-125.8-6.6l-.6-2c11.7 1.7 31.2 3.7 126.1 7.1.1 0 .1.1.1.2zm412 101.5c4.3-7.1 8-13.1 3.5-24 .4-.5.8-1.1 1.2-1.6 2.2 7.4 4 13.8-3.4 24l-1.3 1.6z"/><path d="M315.9 630.7h-.2.2zm-8.1-.2c-61.9-1.7-87.7-21.2-100-30.5.3.1.7.3 1 .4 3.3 1.8 7.1 5.2 10.1 7.4 6.5 4.8 16.6 9.4 24.4 11.7 25.2 7.8 33 9.1 64.5 11zm9 .1c5.1-.1 17.5-.8 44.2-4.9-1.1.3-25.7 4.3-44.2 4.9zm-199-375c-.4.3-.9.6-1.2.9-9.7-31.7-24.3-79.7-6.9-133.6.4-.2.9-.6 1.3-.8-10.7 38.5-12.9 72.7 7.1 133.3-.2.1-.3.1-.3.2zm2.3-149.8h-.5c17.8-21.6 40-48.5 87.6-73.6h.5c-25 14.2-53.2 30.2-87.6 73.6zm84.5-5.9c-.3.3-.7.5-1 .8-8.7-15.6-24.8-44.7 8.3-70l1.5-.6c-12.4 10.3-33.1 27.6-8.6 69.6-.1.2-.1.2-.2.2zm-86.7 14.9c.3-.4.5-.8.8-1.2 11.8-1.6 22.9-3.2 81.3-7.9l-.6 1.4-81.5 7.7zm84 478c-.2-.1-19-14-2.6-55.9.6.5.7.6 1.4 1.1-7.6 20.3-11.2 34.1 1.2 54.8zm110.8 37.8h.6c-22.4-1.8-46.9-5.4-100.1-29.8-.1-.2-.3-.4-.4-.5 31.7 14.5 63.3 27.6 99.9 30.3-.1 0 0 0 0 0zm-13.3-4.3c.1.1.3.2.4.3-44.9-12.2-69-20.6-88.3-27.4-.3-.3-.7-.5-1-.8 19.2 6.8 43.1 15.2 88.9 27.9zM151.8 403.6c-.2.1-.5.1-.8.2-7.5-20.5-23-63.3-29.8-125.2.5-.1 1.1-.3 1.5-.4 3.8 28.9 9 68.5 29.2 125.4 0-.1 0-.1-.1 0zM125.9 255c-.4-.2-1-.4-1.4-.6 20.4-49.9 37-83.6 76.5-140.4.2.1.5.2.6.3-32.1 48.9-50.1 77.3-75.7 140.7zm169.7 37.7c-.3.1-.6.4-.9.5-73.1-109.7-83-160.3-86.7-179.4.4-.2 1-.5 1.5-.8 9.7 44.8 23.8 79.6 86.3 179.5-.1.1-.2.1-.2.2zm-6.3 8.1l-.3 1.9c-54.2-10.1-107.2-20.3-159.4-33 .1-.6.3-1.4.4-2 27.5 6.6 65.1 15.5 159.3 33v.1zM213.6 97.6c-.2-.1-.6-.2-.8-.2 11.8-17.6 29.7-44.1 57.4-68.4.1 0 .3.1.4.1-14.6 13.8-31 29.5-57 68.5zm2.3 7c.1-.4.3-1 .3-1.4L336.4 77c.1.4.3.9.4 1.2l-120.9 26.4zm-52.8 304.7c-.2-.4-.6-.9-.8-1.3 15.1-14 43.2-40 128.1-97.8.2.4.6 1 .8 1.4-100.6 72.6-100.6 72.6-128.1 97.7zm135.9 216c-10-5.7-40.5-22.9-90.5-85.4.3-.1.7-.3 1-.4 15 18.3 54.7 67 89.5 85.8zM198.3 522.7c-.2 0-.4 0-.6.1-14.4-26.9-24.2-46.7-39.7-96.2.7 0 .8-.1 1.5-.2 11.2 35.2 18 55.5 39 96.3h-.2zm112.4-94c0 .3-.1.7-.1.9-11.7-.6-47.2-2.6-145.2-12.5-.1-1.2-.1-1.2-.2-1.9l145.5 13.3v.2zm-5.5 137.1c-.1.2-.1.4-.2.6-7.6-2.3-30.6-9.3-93.6-31.1-.1-.6-.1-.7-.2-1.4l94 31.7v.2zm8.4-4.3c-.4 0-.9-.1-1.2-.1 1-20.2 1.6-34.9 8.4-119.9.8.1 1 .1 1.9.1l-9.1 119.9zm-106.2-34.6c-.3-.3-.7-.7-1-.9 15-18.6 35.6-40.8 105.8-89.6.2.4.6.8.9 1.2-53.7 39.3-80.7 59-105.7 89.3zM337.1 71.4c-.1.2-.3.5-.4.8-38.6-22-51.7-31.7-60.6-44.8l.9-.6c9.6 13.9 22.1 22.4 60.1 44.5v.1zM310.7 6.3zm-36.8 16.9c-.2.2-.5.3-.7.5-4.2-3.3-15.2-11.8 14.6-15.9 6.9-.9 14.4-1.3 18.8-1.5.7 0 1.3 0 2-.1-33.6 1.4-45.9 6.4-36.8 15.1.6.6 1.5 1.2 2.1 1.7v.2zm6.5.3c.1-.1.2-.4.3-.5 2.8-1.1 6.7-2.2 9.5-3.1 24.3-7.6 31-10.1 31.7-12.7-.9-.5-2.2-.8-3.1-1 2.6.2 2.8.4 3.7 1.3-1.6 2.7-5.6 4.7-42.1 16zm35.5 607.2z"/><path d="M315.5 630.7c-1.8 0-6.4-.4-6.5-.4-1.8-.4-4.2-1.2-5.8-2.2 1.1.4 2 1.3 3.1 1.5 2.7.6 6.4.9 9.2 1.1zM504.9 70.2l.2.2c-.6-.5-1.3-.9-1.9-1.4l1.7 1.2zM321.3 6.3H319h2.3zm-20.1 619.3c-.2 0-14.8-6.1 7.5-50.9.5.3.6.3 1.1.5-7.8 16.5-18.6 39.1-8.6 50.4zm15.7 5h-.7a14.98 14.98 0 002.2-.2c0-.1-.1-.2-.1-.2-1.7-.6-3.2-.9-12.8-2.4-.1-.1-.3-.2-.4-.3 12.1 1.9 13.3 2.3 13.8 2.8-.6.2-1.3.3-2 .3zm29.3-561.4c-.5-.2-.7-.3-1.2-.4 3.1-20 9-57.4-23-62.2 15.9 1.7 33.2 13.9 24.2 62.6zm-25.8 561.3c14.1-1.4 25.9-5.7 40.5-12.3v.2c-16.6 7-25 10.4-40.5 12.1zm-.4 0h-.3c19.3-3.8 24.9-14.2-3.4-55.6.5-.2.6-.3 1-.6 21.3 32 28.6 51.5 2.7 56.2z"/><path d="M319.7 566c-.1-.3-.3-.6-.4-.8 14.8-7.3 14.8-7.3 75.5-34.8 0 .3.1.7.1 1L319.7 566zm48.6 46.8c-.3.1-.6.3-.9.5-2.7-9-8.2-18.3-48.6-40.5.3-.4.4-.6.6-1 24.6 13.9 46.9 27.4 48.9 41zm-62.8-321.1l-2.1-.4c27.1-120.9 36.2-161.7 39.6-208 .3.1.7.1 1 .2-3 48-9.9 78.8-38.5 208.2zM596 456.1c-6.1 9-10.8 16.1-30.6 29 .3-.5.3-1.2.8-1.6 2.6-2.5 6.8-4.8 9.8-6.8 2.3-1.6 14.1-10.2 20.9-22.4-.3.5-.6 1.2-.9 1.8zm-284.7-161l-1.2-1.1c86.9-96.6 86.9-96.6 111.2-133.8.3.3.8.6 1.1.9-22.7 36.6-45.6 64.1-111.1 134zM400.4 520c-.4.3-.7.5-1 .8-14.7-21.1-26.2-37.9-69.3-81.5.7-.5.8-.7 1.5-1.3 29.6 30.4 49 51.1 69.1 81.9-.2 0-.2 0-.3.1zm89.9-74.4l-.3.9c-52-3.7-103.8-9.8-155.8-14.2.1-.6.1-1.3.2-1.9l156 15c0 .1 0 .2-.1.2zM321.5 419c-.5 0-1.1.1-1.5.2l-17.4-102.6c1-.1 1.2-.1 2.1-.3l17 102.6c0 .1-.1.1-.2.1zm176.9-103.9v1.1c-61.4-2-122.6-7.2-183.9-10.6.1-1.4.1-1.4.1-2.1l183.9 11.4c-.1.1-.1.1-.1.2zM333.6 425.5c-.2-.5-.6-1.2-.9-1.7 74.4-40.7 120.6-67.6 166.4-101.6.2.6.5 1.3.7 1.9-41.8 30.3-75.7 52.2-166.2 101.4zM418.9 145c-.4.4-.5.6-.8.9l-68.2-63.7c.4-.3.5-.4.9-.8l68.3 63.4c-.1.1-.1.2-.2.2zm-70.7-74.6c-.5-.3-.6-.4-1.2-.7 11.3-21.6 18.7-39.3 3.9-54.1 3 1 9.8 9 9.3 19.7-.6 12-4.3 20.9-12 35.1zm3.5 5l-.3-.9c65.4-12.6 65.4-12.6 80-16.8.3.3.6.6.9.8-6.9 2.1-23 7.2-80.6 16.9zM530.9 124c-.2 0-.5-.1-.7-.1h-.1c-33.4-46.3-65.3-78-129.5-103.1 50.9 20.4 88.5 43.9 130.3 103.2zm6.4 4.7c-.4-.5-1-.7-1.3-1.3-1.4-2.8-.7-7.2-1-10.3-.8-8.8-5.9-23.2-25.4-42.4 7.8 5.9 26.1 23.1 27.7 54zM434.8 53.2c-.5-.3-1-.4-1.4-.8-2.1-1.8-3-5.6-4.2-8-6.3-12-24.7-20.7-33.5-24.9 7 2.1 19.6 10 21.4 11.6 11.2 9.6 11.6 10.3 17.7 22.1zm-7.8-1.5v.4c-28.6-16.4-44-24.8-72.2-36.2l-.2-.3c26.6 10.7 42.9 18.8 72.4 36.1 0-.1 0-.1 0 0zm74.4 384.5c-.4 0-.9.1-1.3.1 5.3-32.7 9.1-56.4 7.6-106.8.7 0 .8 0 1.5-.2.6 33.6.9 60.1-7.8 106.9zM385 16.1c.4.1.8.3 1.2.4-11.2-2.3-40.9-8.3-66.3-10.1-.3 0-.6 0-.9-.1 26.1 1.7 55.9 7.8 65.7 9.7.2.1.2.1.3.1zm-42.9-4.9l.1.1c-5.9-1.6-13.8-3.6-19.8-4.6h-.3c6.1 1 14.1 2.8 20 4.5zm45.3 5.7l1.5.5c-6.9-.8-15.5-1.7-37.3-3.5-.3-.2-.7-.3-1-.5 9 .7 24.2 2 36.6 3.4.1 0 .2.1.2.1zm141.1 108.7v.5c-20.2-17.3-45.4-38.8-84.4-63.3 0-.2-.1-.5-.1-.7 19.2 12.4 51.2 33.1 84.5 63.5 0-.1 0-.1 0 0zM431 145.7c-.6-.5-.8-.6-1.5-1 8.3-21.8 19.6-51.7 7.7-82.6.3.1 18.1 24.6-6.2 83.6zM517.1 316c0-1-.1-1.2-.2-2.1 31-6.2 38.3-7.9 60.3-13.5.1.9.1 1.2.2 2.1-22 5.6-29 7.2-60.3 13.5zm-12.6-11.4c-.2.1-.5.3-.7.4-18.7-46.5-31.1-77.2-71.6-141.9.4-.2.9-.4 1.3-.6 24.8 39.9 48.9 80.8 71.2 142.1-.1-.1-.1-.1-.2 0zm-68.7-151.7c-.1-.4-.3-.9-.5-1.3l96.6-17.8c.4.5.7 1.1 1.1 1.6-17.1 4.3-38.8 9.2-97.2 17.5zm77.8 153.6c-.4-.4-.9-.8-1.3-1.1 26.3-61.1 39-107.6 26-164.2.4.2 27.1 48.3-24.7 165.3zM372.8 611.1c-.1 0-.3.1-.4.1 11.4-12.4 27-29.4 30.3-75.8.6-.2.8-.2 1.4-.4-2.4 21.3-6.1 53.4-31.2 76 0 .1-.1.1-.1.1zm39.6-90.1c-.1-.3-.3-.6-.4-.8 51.2-41.9 53.2-43.5 77.7-65.8.1.3.3.7.4 1-19.3 17.8-32 29.6-77.7 65.6zm76 43.1l-1.1.9c-6.5-6.9-16.2-17.2-76.6-35.3a9.99 9.99 0 00.8-1.4c23.2 7.1 66.3 20.4 77.1 35.7-.1 0-.2.1-.2.1zm-121.7 60.3l-1.5.3c1.4-.8 3.7-1.6 4.2-3 .9-2.5.9-2.6-1.1-5.4l1.2-.6c.8 1.1 2.3 2.7 2 3.9-.7 2.3-1 2.6-4.6 4.7-.1.1-.2.1-.2.1zm6.7-11c3.3-2.7 9.3-3.5 13.2-4.8 45.1-15.7 69.2-26.3 95.7-39.1-.1 0-28.1 16.9-108.9 43.9zm124.5-54.3c-.1 0-.2-.1-.3-.2 23.4-21.7 33.1-30.7 55.9-61.6.1 0 .2.1.3.2-18.4 24.5-26.8 35.7-55.9 61.6zm-4.4 1.4l-1 .6c17.8-29.6 24.4-55.2 8.1-105.1.6-.5.8-.6 1.4-1.2 12.5 40.5 14.8 69.3-8.4 105.6.1 0 0 .1-.1.1zM490.7 60l7.5 5.4-10.5-7.3c1.1.5 2 1.2 3 1.9zm7.1 5.4c.3.2.6.5.9.7-31.6-20.2-52.3-31.1-99-46.1-.3-.1-.7-.3-1.1-.4 43.2 13.8 64.5 23.7 99.1 45.7 0 .1.1.1.1.1zm104.5 154.9v1c-14.6-26-24.2-43.2-58-79.5v-.9c23.7 26 38.1 42.6 58 79.4zm-18.7 66.9c-.2 0-.6-.1-.8-.1-3.6-37.4-8.1-83.9-41-144 .2 0 .5.1.8.1 15.3 29.4 36.2 69.6 41 144zm-77.4 151.5c-.2-.3-.6-.7-.9-1C535.4 399 560 365 579.7 309.5c.3.4.6.9.9 1.2-11.6 30.7-24.7 65.6-74.4 128zm61.1 39.2c-.1-.1-.2-.2-.2-.3 15.3-26 23-39.1 33.4-67l.3.3c-10.4 25.8-16.1 39.9-33.5 67zm-8.5 6.3c-.3.4-.6.8-.8 1.2-11.8-11.9-20.4-18.7-53.2-34.1.4-.7.5-1 .9-1.8 28.5 13.6 40.9 20.8 53.2 34.5 0 0-.1.1-.1.2zm-51.8-39c.1-.9.2-1.1.2-1.8 41.8-14.6 67.7-25.1 93.4-41.8l-.3 1.5c-16.5 11.2-33.9 21.5-93.3 42.1zm81.3-152.3l-.7-1.7c11.4-22.8 14.8-30.5 18.5-54.6 0 .1 4 13.7-17.8 56.3zm16.7 96.6l-.6.9c-1.7-22.8-3.4-44.3-17.2-80 .4-.5.4-.7.8-1.3 8.4 24.1 16.3 46.9 17.1 80.2 0 .1 0 .1-.1.2zM374.4 622.9c27.5-8.3 58.6-17.7 105.1-50-22.5 15.3-53.3 36.1-105.1 50zm144.2-67.2c-5.1 3.2-8.4 5.3-26.3 10.2.5-.4.8-1 1.4-1.2 2.2-.9 5.4-1.5 7.7-2.2 11.7-3.3 17-6.9 18.8-8.1-.6.4-1.1.8-1.6 1.3zM436 606.6c21.3-9.8 36.3-17.7 49.7-35.8.5-.3 1-.7 1.5-1-8.6 10.9-16.7 21.3-49 35.9-.8.3-1.5.6-2.2.9zm82.8-525.2l-5.5-4.5c-.3-.3-.7-.6-1-.8l4.2 3.4 2.3 1.9zm85.6 137.8c-5.6-4.3-5.3-15.7-7.5-22.5-6-19.1-26-68.9-82.7-118.7 34.1 31.1 69.1 67.6 90.2 141.2zm-1.9-24.3c4.8 15.5 5.1 16.4 5.2 30.3-.2-.6-.6-1.1-.7-1.7-.7-3.4-.3-8.1-.4-11.6-.2-5.9-3.1-13.5-5-19.1l.9 2.1zM367.3 10.5c6.6 1.2 16.6 3.1 22.7 6.4-3.1-.9-5.9-2.5-9-3.3-3.2-.9-7.9-2.1-15.8-3.4l2.1.3zm37.5 8.7c-2.7-.6-4.9-.8-11.8-1.4-.6-.2-1.2-.4-1.8-.5 6.7.6 9.1.8 11.6 1.4.7.1 1.4.3 2 .5zm203.1 409.4c1.9-9.3 2.8-14-1.6-24.3.2-.6.5-1.2.7-1.9 3.1 9.6 4.6 14.4 1.7 24.2-.3.7-.5 1.4-.8 2zM344.5 629.4c9.1-.9 15-1.8 18.6-3.5.6-.1 1.2-.2 1.8-.4-2.6 1.3-5.6 2.4-18.2 3.7-.8 0-1.5.1-2.2.2zm69.6-14.6c-10.9 3.2-20.6 5.9-46.8 10.1 16.2-3.8 32.9-5.8 48.8-10.7l-2 .6zm194-227.2c9.8-53.9 12.9-84 1.4-145.7 9.7 48.4 12 82.6-1.4 145.7zm11.6-140.9c-3.7-7.5-3.8-7.6-9.3-12.7-.1-.6-.3-1.3-.5-1.9 7.1 7.4 7.4 7.6 9.2 12.6.3.6.4 1.3.6 2zm8.2 80.8c-3.1 27.9-4.8 35.2-18.7 64.8 0-.5-.1-1 0-1.5 1.4-5.1 5.2-11.2 7.5-16 .1-.2 10.1-21.8 11.3-50.1-.1.9-.1 1.8-.1 2.8zm-608 80c1 3.3 3.1 11 2.1 11.5-1.8-.6-8.3-22.6-6.9-23.5.9.3 2.7 4.8 4.8 12zM202 608.4c3.2 1.3 6.4 2.3 9.5 3.9-1.4.1-21-7.9-22.3-9 .2 0 .2 0 12.8 5.1zM22.1 250.1c-2.4 10.9-5.2 13.4-6.1 11.8-2.1-3.8 2.8-23.3 6-23.7.7 0 2.2 1.4.1 11.9zm293.8 380.6c-6.7 0-11.7-.2-11.8-.2l11.8.2zM95.2 528.8c5.4 6.2 6.3 8.5 5.4 8.6-3 .2-17.6-16.1-15.9-17.6 0 0 .1-.1.3-.1 1.6.1 5.5 3.6 10.2 9.1zM311.6 6.3l-12.2.4c.1 0 6.6-.4 16.5-.5-1.5.1-2.9.1-4.3.1zm-92.4 21.3c-7.6 3.5-11.7 5-12.2 4.5.1-1.6 16.9-8.6 20-8.8h.1s0 .1.1.1c-.3.5-1.2 1.1-8 4.2zM118 114.7c-6.8 9.2-12.6 10.6-13 7.8-.6-4.2 9.7-16.7 15-16.8 3 .2 1.1 4.8-2 9zm90 481.9c6.2 4.3 5.4 4.9 4.8 5-3.6.5-19.2-9-17.8-10.8.1-.2.5-.2.7-.2 2.5.1 7 2.3 12.3 6zm-77.8-330.1c-1.4 12.4-11.8 15.3-16.3 9.2-4.6-6.2-1.3-21.2 8.5-21.6 4.5.1 8.7 4 7.8 12.4z"/><path d="M165.2 415.1c1.8 11.3-7.7 14.1-13.9 9.2-7.4-5.7-7.8-19.8 1.3-20.9.4-.1.8-.1 1-.1 7.3.5 10.8 6.7 11.6 11.8zm150.7 215.6c-2.5 0-4.1-.1-4.1-.1l4.1.1zm-105.3-98.8c2.8 6.9-1.8 9.9-7.5 7.4-6.9-2.9-12.3-13.6-6.8-16.1 1.1-.5 2.1-.5 2.5-.5 6 .3 10.1 5.1 11.8 9.2zm4.3-424.9c-4.4 8.6-14 9.7-15.8 4.9-1.6-4.2 3.9-14.3 12.4-14.7 4.8.1 6.3 4.2 3.4 9.8zm64.2-81.9c-4.5 4.6-9.8 4.9-9.6 2.9.2-2.3 6.5-6.9 10.4-7.1 2.4 0 1.2 2.2-.8 4.2zm25.7 602.3c1.9 1.2 2 1.4 2 1.5-.5.8-7.8-2.2-7.9-3.2 0-.2.2-.3.6-.3 1.9-.1 4.4 1.4 5.3 2zm9.7-323.3c-.2 13-15.2 15.7-22 9-6.9-6.8-4.2-21.5 9.2-21.9 6.3.1 12.9 4.1 12.8 12.9zm5.6 265.1c-.6 6.9-9.4 8.6-13.5 4-3.2-3.7-2.6-11.6 5.7-11.7 4.1-.1 8.2 2.4 7.8 7.7zm14.4-138.8c-.5 12.1-14.8 14-21 7.5-5.8-6-2.7-18.8 9.3-19 8 .3 12 6 11.7 11.5zM352 76.8c.9 7.3-7.8 8.6-12.6 4.8-4.9-4-4.3-12.3 2.5-13h.8c4.8 0 8.7 3.5 9.3 8.2zm60 450.3c-3.4 8.8-14.1 11.2-16.6 5.5-2-4.5 2.2-14.3 11.4-14.7 6.4.3 6.8 5.1 5.2 9.2zM317.8 6.3l4.9.4h-.7l-2.9-.3-3.2-.1h1.9zm-1.9 624.4l5-.2-5 .2zm120.2-476.6c2 8.8-6.4 12-13.3 7.4-6.8-4.4-8.5-16.2-.9-18 .8-.2 1.5-.2 2-.2 5.9.1 10.8 4.5 12.2 10.8zM350.7 13.5c3.4 1.5 4.6 2.5 3.9 2.8-.2.1-1.3.3-5.4-1.4-.1 0-7.1-3.1-7.2-3.8 0 0 .1-.1.3-.1 1.7.1 5.4 1.2 8.4 2.5zm20 601.6c-4.7 2.7-10.3 4.4-9.8 3 .5-1.5 9-7.1 13-7.1 1.9.1.6 1.4.1 1.9-.7.6-1.8 1.4-3.3 2.2zm146.4-297c-.4 6.8-4.2 11.3-9.4 11.4-10.9-.4-11.7-18.1-5.4-23.5 2.3-2 4.6-2 5.4-2.1 6 .2 9.9 6.1 9.4 14.2zm-10.7 129.5c-3.5 10.9-13.6 13.2-16.4 7.7-3-5.8 2.5-19 11.4-19.1 5.1.2 7.1 4.8 5 11.4zM440.9 57.9c4.1 3.9 3.9 6 1.6 6-5 0-17.5-10.5-15.2-12.8.3-.3.8-.3 1.1-.3 3.5.1 9 3.7 12.5 7.1zm-75.4 567.4c-5.8 1.3-10.6 2-11.4 2 .4-.3 19.6-4.6 20.5-4.6h.1c-.4.5-5 1.7-9.2 2.6zm224-324.1c0 9.7-4.6 13.6-8.5 9.9-5.5-5.2-5.6-23.7 1.6-24 4 .1 6.9 6 6.9 14.1zm-47.7-166.6c3.8 6.2 3 9.2 0 8.5-5.8-1.4-16-16.8-12.6-18.9.3-.2.6-.2.9-.2 3 0 8 4.6 11.7 10.6zM391.9 17.4l9.2 3.3-.1.1c-1.6-.1-20.8-6.1-21.4-6.5h.1c.9.1 6.4 1.4 12.2 3.1zm99.2 549.4c-6.3 5.1-11.6 7.6-11.6 6.2 0-2.2 13.7-13.8 17.8-14.2 1.4.1.2 2.2-3.1 5.2-1 1.2-2.3 2.2-3.1 2.8zm72.7-78.9c-5 8-10.1 11.5-10.6 8.7-.8-4 8.6-18.8 13.2-19.2 2.2.1 1.1 4.5-2.6 10.5zm44-88.1c-2.6 9.6-6 12.8-7.3 10.8-2.2-3.5 2.5-22.7 7.1-23.2 2 .3 2.1 5.4.2 12.4zm1.7-169.3c2.4 8.3 1.9 12.6 0 11.5-4-2.4-9.5-22.4-6.4-23.3h.2c1.7 0 4.3 4.9 6.2 11.8zM507 71.8c3.2 2.5 7.8 6.2 8 6.7-.8-.3-18.7-14.1-18.9-14.6.6.3 5.6 3.8 10.9 7.9z"/></svg>