<svg xmlns="http://www.w3.org/2000/svg" xmlns:xlink="http://www.w3.org/1999/xlink" viewBox="0 0 512 512"><path d="M8.533 405.333h136.533V499.2H8.533zm179.2-76.8h136.533V499.2H187.733zm179.2-85.333h136.533v256H366.933z" fill="#ffc309"/><g fill="#911e3f"><path d="M145.067 507.733H8.533A8.54 8.54 0 010 499.2v-42.667A8.54 8.54 0 018.533 448h136.533a8.54 8.54 0 018.533 8.533V499.2c.001 4.7-3.822 8.533-8.532 8.533zm-128-17.066h119.467v-25.6H17.067v25.6z"/><path d="M102.4 456.533h17.067V499.2H102.4zm-34.133 0h17.067V499.2H68.267zm-34.134 0H51.2V499.2H34.133z"/><path d="M145.067 465.067H8.533A8.54 8.54 0 010 456.534v-42.667a8.54 8.54 0 018.533-8.533h136.533a8.54 8.54 0 018.533 8.533v42.667c.001 4.7-3.822 8.533-8.532 8.533zM17.067 448h119.467v-25.6H17.067V448z"/><path d="M102.4 413.867h17.067v42.667H102.4zm-34.133 0h17.067v42.667H68.267zm-34.134 0H51.2v42.667H34.133zm290.134 51.2H187.733a8.54 8.54 0 01-8.533-8.533v-42.667a8.54 8.54 0 018.533-8.533h136.533a8.54 8.54 0 018.533 8.533v42.667c.001 4.7-3.822 8.533-8.532 8.533zm-128-17.067h119.467v-25.6H196.267V448z"/><path d="M281.6 413.867h17.067v42.667H281.6zm-34.133 0h17.067v42.667h-17.067zm-34.134 0H230.4v42.667h-17.067z"/><path d="M324.267 422.4H187.733a8.54 8.54 0 01-8.533-8.533V371.2a8.54 8.54 0 018.533-8.533h136.533a8.54 8.54 0 018.533 8.533v42.667c.001 4.7-3.822 8.533-8.532 8.533zm-128-17.067h119.467v-25.6H196.267v25.6z"/><path d="M281.6 371.2h17.067v42.667H281.6zm-34.133 0h17.067v42.667h-17.067zm-34.134 0H230.4v42.667h-17.067z"/><path d="M324.267 379.733H187.733a8.54 8.54 0 01-8.533-8.533v-42.667a8.54 8.54 0 018.533-8.533h136.533a8.54 8.54 0 018.533 8.533V371.2c.001 4.7-3.822 8.533-8.532 8.533zm-128-17.066h119.467v-25.6H196.267v25.6z"/><path d="M281.6 328.533h17.067V371.2H281.6zm-34.133 0h17.067V371.2h-17.067zm-34.134 0H230.4V371.2h-17.067zm110.934 179.2H187.733a8.54 8.54 0 01-8.533-8.533v-42.667a8.54 8.54 0 018.533-8.533h136.533a8.54 8.54 0 018.533 8.533V499.2c.001 4.7-3.822 8.533-8.532 8.533zm-128-17.066h119.467v-25.6H196.267v25.6z"/><path d="M281.6 456.533h17.067V499.2H281.6zm-34.133 0h17.067V499.2h-17.067zm-34.134 0H230.4V499.2h-17.067zM503.467 422.4H366.933a8.54 8.54 0 01-8.533-8.533V371.2a8.54 8.54 0 018.533-8.533h136.533a8.54 8.54 0 018.533 8.533v42.667c.001 4.7-3.822 8.533-8.532 8.533zm-128-17.067h119.467v-25.6H375.467v25.6z"/><path d="M460.8 371.2h17.067v42.667H460.8zm-34.133 0h17.067v42.667h-17.067zm-34.134 0H409.6v42.667h-17.067z"/><path d="M503.467 379.733H366.933a8.54 8.54 0 01-8.533-8.533v-42.667a8.54 8.54 0 018.533-8.533h136.533a8.54 8.54 0 018.533 8.533V371.2c.001 4.7-3.822 8.533-8.532 8.533zm-128-17.066h119.467v-25.6H375.467v25.6z"/><path d="M460.8 328.533h17.067V371.2H460.8zm-34.133 0h17.067V371.2h-17.067zm-34.134 0H409.6V371.2h-17.067z"/><path d="M503.467 337.067H366.933a8.54 8.54 0 01-8.533-8.533v-42.667a8.54 8.54 0 018.533-8.533h136.533a8.54 8.54 0 018.533 8.533v42.667c.001 4.7-3.822 8.533-8.532 8.533zm-128-17.067h119.467v-25.6H375.467V320z"/><path d="M460.8 285.867h17.067v42.667H460.8zm-34.133 0h17.067v42.667h-17.067zm-34.134 0H409.6v42.667h-17.067z"/><path d="M503.467 294.4H366.933a8.54 8.54 0 01-8.533-8.533V243.2a8.54 8.54 0 018.533-8.533h136.533a8.54 8.54 0 018.533 8.533v42.667c.001 4.7-3.822 8.533-8.532 8.533zm-128-17.067h119.467v-25.6H375.467v25.6z"/><path d="M460.8 243.2h17.067v42.667H460.8zm-34.133 0h17.067v42.667h-17.067zm-34.134 0H409.6v42.667h-17.067zm110.934 221.867H366.933a8.54 8.54 0 01-8.533-8.533v-42.667a8.54 8.54 0 018.533-8.533h136.533a8.54 8.54 0 018.533 8.533v42.667c.001 4.7-3.822 8.533-8.532 8.533zm-128-17.067h119.467v-25.6H375.467V448z"/><path d="M460.8 413.867h17.067v42.667H460.8zm-34.133 0h17.067v42.667h-17.067zm-34.134 0H409.6v42.667h-17.067z"/><path d="M503.467 507.733H366.933a8.54 8.54 0 01-8.533-8.533v-42.667a8.54 8.54 0 018.533-8.533h136.533a8.54 8.54 0 018.533 8.533V499.2c.001 4.7-3.822 8.533-8.532 8.533zm-128-17.066h119.467v-25.6H375.467v25.6z"/><path d="M460.8 456.533h17.067V499.2H460.8zm-34.133 0h17.067V499.2h-17.067zm-34.134 0H409.6V499.2h-17.067z"/></g><g fill="#2b3670"><path d="M367.957 126.242l-12.066-12.066 92.843-92.843h-22.067V4.267h42.667a8.54 8.54 0 018.533 8.533c0 2.26-.896 4.43-2.5 6.033l-107.4 107.4zm-24.123 24.152L265.57 228.66 253.5 216.6l78.265-78.265zM241.44 216.567l-12.07 12.07-61.206-61.215 12.07-12.07zm-85.335-49.127L94.9 228.654l-12.068-12.068 61.214-61.214z"/><path d="M460.8 12.8h17.067v42.667H460.8z"/><use xlink:href="#B"/><path d="M162.133 174.933c-14.14 0-25.6-11.46-25.6-25.6s11.46-25.6 25.6-25.6 25.6 11.46 25.6 25.6-11.46 25.6-25.6 25.6zm0-34.133a8.54 8.54 0 00-8.533 8.533 8.54 8.54 0 008.533 8.533 8.54 8.54 0 008.533-8.533 8.54 8.54 0 00-8.533-8.533zm187.734 17.067c-14.14 0-25.6-11.46-25.6-25.6s11.46-25.6 25.6-25.6 25.6 11.46 25.6 25.6-11.46 25.6-25.6 25.6zm0-34.134a8.54 8.54 0 00-8.533 8.533 8.54 8.54 0 008.533 8.533 8.54 8.54 0 008.533-8.533 8.54 8.54 0 00-8.533-8.533z"/><use xlink:href="#B" x="170.667"/></g><path d="M0 499.2a8.54 8.54 0 008.533 8.533h136.533a8.54 8.54 0 008.533-8.533v-42.667a8.6 8.6 0 00-.427-2.133 8.74 8.74 0 00.427-2.133V409.6a8.54 8.54 0 00-8.533-8.533H8.533A8.54 8.54 0 000 409.6v42.667a8.6 8.6 0 00.427 2.133A8.74 8.74 0 000 456.533V499.2zm119.467-81.067h17.067v25.6h-17.067v-25.6zm0 46.934h17.067v25.6h-17.067v-25.6zm-34.134-46.934H102.4v25.6H85.333v-25.6zm0 46.934H102.4v25.6H85.333v-25.6zM51.2 418.133h17.067v25.6H51.2v-25.6zm0 46.934h17.067v25.6H51.2v-25.6zm-34.133-46.934h17.067v25.6H17.067v-25.6zm0 46.934h17.067v25.6H17.067v-25.6zM332.8 499.2V328.533a8.54 8.54 0 00-8.533-8.533H187.733a8.54 8.54 0 00-8.533 8.533V499.2a8.54 8.54 0 008.533 8.533h136.533a8.54 8.54 0 008.534-8.533zm-119.467-8.533h-17.067v-25.6h17.067v25.6zm0-42.667h-17.067v-25.6h17.067V448zm0-42.667h-17.067v-25.6h17.067v25.6zm0-42.666h-17.067v-25.6h17.067v25.6zm34.134 128H230.4v-25.6h17.067v25.6zm0-42.667H230.4v-25.6h17.067V448zm0-42.667H230.4v-25.6h17.067v25.6zm0-42.666H230.4v-25.6h17.067v25.6zm34.133 128h-17.067v-25.6H281.6v25.6zm0-42.667h-17.067v-25.6H281.6V448zm0-42.667h-17.067v-25.6H281.6v25.6zm0-42.666h-17.067v-25.6H281.6v25.6zm34.133 128h-17.067v-25.6h17.067v25.6zm0-42.667h-17.067v-25.6h17.067V448zm0-42.667h-17.067v-25.6h17.067v25.6zm0-42.666h-17.067v-25.6h17.067v25.6zM512 499.2V245.7a8.54 8.54 0 00-8.533-8.533H366.933a8.54 8.54 0 00-8.533 8.533v253.5a8.54 8.54 0 008.533 8.533h136.533A8.54 8.54 0 00512 499.2zm-119.467-8.533h-17.067v-25.6h17.067v25.6zm0-42.667h-17.067v-25.6h17.067V448zm0-42.667h-17.067v-25.6h17.067v25.6zm0-42.666h-17.067v-25.6h17.067v25.6zm0-42.667h-17.067v-23.1h17.067V320zm0-42.667h-17.067v-23.1h17.067v23.1zm34.134 213.334H409.6v-25.6h17.067v25.6zm0-42.667H409.6v-25.6h17.067V448zm0-42.667H409.6v-25.6h17.067v25.6zm0-42.666H409.6v-25.6h17.067v25.6zm0-42.667H409.6v-23.1h17.067V320zm0-42.667H409.6v-23.1h17.067v23.1zM460.8 490.667h-17.067v-25.6H460.8v25.6zm0-42.667h-17.067v-25.6H460.8V448zm0-42.667h-17.067v-25.6H460.8v25.6zm0-42.666h-17.067v-25.6H460.8v25.6zm0-42.667h-17.067v-23.1H460.8V320zm0-42.667h-17.067v-23.1H460.8v23.1zm34.133 213.334h-17.067v-25.6h17.067v25.6zm0-42.667h-17.067v-25.6h17.067V448zm0-42.667h-17.067v-25.6h17.067v25.6zm0-42.666h-17.067v-25.6h17.067v25.6zm0-42.667h-17.067v-23.1h17.067V320zm0-42.667h-17.067v-23.1h17.067v23.1zM51.2 234.667c0 14.14 11.46 25.6 25.6 25.6s25.6-11.46 25.6-25.6a25.18 25.18 0 00-2.56-10.965l51.328-51.328a24.73 24.73 0 0021.94 0l51.32 51.328a25.307 25.307 0 00-2.56 10.965c0 14.14 11.46 25.6 25.6 25.6s25.6-11.46 25.6-25.6a25.18 25.18 0 00-2.56-10.965l68.395-68.395a25.18 25.18 0 0010.965 2.56c14.14 0 25.6-11.46 25.6-25.6a25.18 25.18 0 00-2.56-10.965L460.8 33.4v22.067h17.067V12.8h-.077c.128-4.582-3.482-8.405-8.064-8.533h-43.06v17.067h22.067l-87.893 87.893a25.22 25.22 0 00-10.974-2.56c-14.14 0-25.6 11.46-25.6 25.6a25.18 25.18 0 002.56 10.965l-68.395 68.395a24.71 24.71 0 00-21.931 0L185.172 160.3a25.307 25.307 0 002.56-10.965c0-14.14-11.46-25.6-25.6-25.6s-25.6 11.46-25.6 25.6a25.18 25.18 0 002.56 10.965l-51.328 51.328a25.18 25.18 0 00-10.965-2.56c-14.14 0-25.6 11.46-25.6 25.6zm298.667-110.934a8.54 8.54 0 018.533 8.533 8.54 8.54 0 01-8.533 8.533 8.54 8.54 0 01-8.533-8.533 8.54 8.54 0 018.533-8.533zm-102.4 102.4a8.54 8.54 0 018.533 8.533 8.54 8.54 0 01-8.533 8.533 8.54 8.54 0 01-8.533-8.533c-.001-4.7 3.822-8.533 8.533-8.533zM162.133 140.8a8.54 8.54 0 018.533 8.533 8.54 8.54 0 01-8.533 8.533 8.54 8.54 0 01-8.533-8.533 8.54 8.54 0 018.533-8.533zM76.8 226.133a8.54 8.54 0 018.533 8.533 8.54 8.54 0 01-8.533 8.533 8.54 8.54 0 01-8.533-8.533 8.54 8.54 0 018.533-8.533z"/><defs><path id="B" d="M76.8 260.267c-14.14 0-25.6-11.46-25.6-25.6s11.46-25.6 25.6-25.6 25.6 11.46 25.6 25.6-11.46 25.6-25.6 25.6zm0-34.134a8.54 8.54 0 00-8.533 8.533 8.54 8.54 0 008.533 8.533 8.54 8.54 0 008.533-8.533 8.54 8.54 0 00-8.533-8.533z"/></defs></svg>