<svg xmlns="http://www.w3.org/2000/svg" width="468.33" height="67.25"><path d="M117.56 65.92h-11.2l.75-4.07h-.17c-2.57 3.65-7.55 5.4-12 5.4-11.87 0-17.1-9.38-15.1-20.26 2.24-12.37 12.53-20.17 22.58-20.17 6.14 0 9 3 10 5.3h.17l.75-4h11.2l-7 37.78zM98.63 56.7c7.06 0 10.54-6 11.2-9.63.83-4.56-1.33-9.63-7.72-9.63s-10.3 5.48-11 9.72c-.7 3.57.8 9.54 7.5 9.54zm31.97-28.56h10.55l-.75 4h.17c1.24-1.83 3.9-5.3 10.37-5.3l-2.07 11.37c-5.23.17-9.05 1.25-10.13 7l-3.82 20.76h-11.2zm27.9-14.7h11.2l-5.23 28.4h.16l12.95-13.7h13.3l-17.2 16.6 9.8 21.17h-12.7l-7.23-18.18h-.16l-3.32 18.18h-11.2l9.63-52.47zm64.33 40.68a28.23 28.23 0 01-9.38 9.63 21.11 21.11 0 01-11.29 3.41c-10.8 0-18.27-8.8-16.2-20 1.9-10.55 11.95-20.26 23.4-20.26s18.1 9.13 16 20.67a13.47 13.47 0 01-.83 3H196.4c-.17 4.48 3.07 7.14 7.47 7.14 3.5 0 5.57-1.58 7.47-3.57zm-7.9-11.3c-.08-2.24-1.5-6.48-7.3-6.48a10.52 10.52 0 00-9.72 6.48z" fill="#333" fill-rule="evenodd"/><path d="M356.08 65.92h-11.2l.75-4.07h-.16c-2.58 3.65-7.56 5.4-12 5.4-11.87 0-17.1-9.38-15.1-20.26 2.24-12.37 12.54-20.17 22.58-20.17 6.15 0 9 3 10 5.3h.17l.75-4h11.2l-7 37.78zm-18.93-9.22c7.06 0 10.55-6 11.2-9.63.83-4.56-1.33-9.63-7.72-9.63s-10.3 5.48-11 9.72c-.7 3.57.8 9.54 7.5 9.54zm90.65-5.14c-3.57 8.55-12.37 15.6-22.58 15.6-11.37 0-18.43-9-16.35-20.18s12.28-20.1 23.5-20.1c10 0 16.77 6.64 16.94 15.86h-11.38c-.74-2.58-2.5-5.32-7.14-5.32-5.3-.25-9.7 4.15-10.7 9.63s1.83 9.63 7.14 9.63c4.65 0 7.4-2.74 9-5.06h11.54zm10.56-38.1h11.2l-3.33 18.18h.17c2.5-3.4 6.6-4.73 10.6-4.73 3.57 0 7.64 1.33 9.47 4.15 2.5 3.74 2.24 7.06 1 13.78l-3.9 21.1H452.3l3.82-20.6c.34-1.83 1.42-7.9-4.56-7.9-6.3 0-7.3 5.65-7.64 7.48l-3.82 21h-11.2z" fill-rule="evenodd" fill="#44b549"/><path fill-rule="evenodd" d="M64.6 13.37l-19.92 29.9v-29.9h-9.64L0 65.92h13.53l19.93-29.9v29.9h9.7l19.93-29.9v29.9h11.2V13.37h-9.7zm189.2 14.77h-7.06L248.82 17h-9.88l-.83 4.32c-.92 4.9-3.9 6.4-8.06 6.8h-.16l-1.58 8.56h5.48l-5.4 29.22h11.2l5.4-29.2h7.06z" fill="#333"/><path fill-rule="evenodd" d="M334.5 0l-21.6 13.45h5.98l-19.93 29.8v-29.9h-9.7l-19.93 29.9v-29.9h-11.2V65.9h9.7L287.74 36v29.9h9.64l35.03-52.47h5.48L334.5 0zm56.62 28.14h-7.06L386.14 17h-9.88l-.83 4.32c-.92 4.9-3.9 6.4-8.06 6.8h-.16l-1.58 8.56h5.48l-5.4 29.22h11.2l5.4-29.22h7.05z" fill="#44b549"/></svg>