<svg xmlns="http://www.w3.org/2000/svg" viewBox="0 0 512 512"><path d="M247.467 221.867v68.267c0 28.28 57.3 51.2 128 51.2s128-22.92 128-51.2v-68.267h-256z" fill="#ffc309"/><ellipse cx="375.467" cy="221.867" rx="128" ry="51.2" fill="#911e3f"/><ellipse cx="375.467" cy="221.867" rx="110.933" ry="34.133" fill="#ffd200"/><g fill="#911e3f"><path d="M375.467 273.067c-2.884 0-5.7-.094-8.533-.17l8.533.17zm8.533-.171l-8.533.17 8.533-.17zm-17.067 68.267l8.533.17-8.533-.17zm17.067 0l-8.533.17 8.533-.17z"/><path d="M375.467 273.067c-2.884 0-5.7-.094-8.533-.17v68.267l8.533.17 8.533-.17v-68.267l-8.533.17zm128-51.2a26.73 26.73 0 01-8.533 18.261v68.267a26.73 26.73 0 008.533-18.261v-68.267zm-256 0v68.267A26.73 26.73 0 00256 308.395v-68.267a26.73 26.73 0 01-8.533-18.261zm76.8 46.907zm0 68.293c5.495.964 11.204 1.707 17.067 2.398-5.863-.692-11.572-1.46-17.067-2.398zm0-.027zm17.066-65.868c-5.862-.65-11.57-1.434-17.067-2.398 5.496.965 11.205 1.733 17.067 2.398z"/><path d="M341.333 339.44v-68.267c-5.862-.65-11.57-1.434-17.067-2.398v68.267c5.496.964 11.205 1.732 17.067 2.398zm-51.515-79.6h-.068.068zm-8.218-3.243zm8.218 71.5l8.85 2.918-8.85-2.918zm-.068-.017l-8.15-3.217 8.15 3.217zm0-68.266l-8.15-3.217 8.15 3.217zm-8.15 65.05zm8.218 3.243h-.068.068zm8.85-65.35l-8.85-2.918 8.85 2.918zm-8.918 65.323h.068l8.85 2.918V262.73l-8.85-2.918h-.068l-8.15-3.217v68.267l8.15 3.217zm119.85 11.36c5.862-.65 11.57-1.434 17.067-2.398-5.496.964-11.205 1.732-17.067 2.398zm17.067-70.666zm-17.067 2.398c5.862-.65 11.57-1.434 17.067-2.398-5.496.965-11.205 1.733-17.067 2.398zm17.067 65.868z"/><path d="M426.667 268.8c-5.495.964-11.204 1.707-17.067 2.398v68.267c5.862-.65 11.57-1.434 17.067-2.398V268.8zm42.666-12.203zm-8.14 3.21h-.085.085zm-8.926 71.22l8.84-2.918-8.84 2.918zm8.926-2.952l8.14-3.2-8.14 3.2zm8.14-3.211zm0-68.267l-8.14 3.2 8.14-3.2zm-17.066 6.16l8.84-2.918-8.84 2.918zm8.84 65.35zm8.226-71.51l-8.14 3.21h-.085l-8.84 2.918v68.267l8.84-2.918h.085l8.14-3.21v-68.267z"/></g><path d="M8.533 384v68.267c0 28.28 57.3 51.2 128 51.2s128-22.92 128-51.2V384h-256z" fill="#ffc309"/><ellipse cx="136.533" cy="384" rx="128" ry="51.2" fill="#911e3f"/><ellipse cx="136.533" cy="384" rx="110.933" ry="34.133" fill="#ffd200"/><g fill="#911e3f"><path d="M136.533 435.2c-2.884 0-5.7-.094-8.533-.17l8.533.17zm8.534-.17l-8.533.17 8.533-.17zM128 503.296l8.533.17c-2.884 0-5.7-.094-8.533-.17zm17.067 0l-8.533.17 8.533-.17z"/><path d="M136.533 435.2c-2.884 0-5.7-.094-8.533-.17v68.267l8.533.17 8.533-.17V435.03l-8.533.17zm128-51.2A26.73 26.73 0 01256 402.261v68.267a26.73 26.73 0 008.533-18.261V384zm-256 0v68.267a26.73 26.73 0 008.533 18.261V402.26A26.73 26.73 0 018.533 384zm76.8 46.908zm0 68.292c5.495.964 11.204 1.707 17.067 2.398-5.862-.7-11.57-1.46-17.067-2.398zm0-.026zm17.067-65.868c-5.862-.65-11.57-1.434-17.067-2.398 5.496.964 11.205 1.732 17.067 2.398z"/><path d="M102.4 501.572v-68.267c-5.862-.65-11.57-1.434-17.067-2.398v68.267c5.496.965 11.205 1.733 17.067 2.398zm-51.516-79.6h-.068.068zm-8.217-3.243zm8.217 71.5l8.85 2.918-8.85-2.918zm-.068-.015l-8.15-3.217 8.15 3.217zm0-68.266l-8.15-3.217 8.15 3.217zm-8.149 65.049zm8.217 3.243h-.068.068zm8.85-65.348l-8.85-2.918 8.85 2.918zm-8.918 65.322h.068l8.85 2.918v-68.267l-8.85-2.918h-.068l-8.15-3.217v68.267l8.15 3.217zm119.85 11.358c5.862-.65 11.57-1.434 17.067-2.398-5.496.965-11.205 1.733-17.067 2.398zm17.066-70.664zm-17.065 2.398c5.862-.65 11.57-1.434 17.067-2.398-5.496.964-11.205 1.732-17.067 2.398zm17.066 65.868z"/><path d="M187.733 430.933c-5.495.964-11.204 1.707-17.067 2.398v68.267c5.862-.65 11.57-1.434 17.067-2.398v-68.267zM230.4 418.73zm-8.14 3.2h-.085.085zm-8.927 71.218l8.84-2.918-8.84 2.918zm8.927-2.952l8.14-3.2-8.14 3.2zm8.14-3.199zm0-68.267l-8.14 3.2 8.14-3.2zm-17.067 6.162l8.84-2.918-8.84 2.918zm8.84 65.348zm8.227-71.51l-8.14 3.21h-.085l-8.84 2.918v68.267l8.84-2.918h.085l8.14-3.21V418.73z"/></g><g fill="#2069b6"><path d="M136.533 392.533A8.54 8.54 0 01128 384V128C128 57.3 185.3 0 256 0s128 57.3 128 128v93.867h-17.067V128c0-61.27-49.664-110.933-110.933-110.933S145.067 66.73 145.067 128v238.933l20.48-15.36 10.24 13.653-34.133 25.6a8.593 8.593 0 01-5.12 1.707z"/><path d="M141.648 377.18l-10.235 13.646-34.134-25.6 10.235-13.646zm233.82-146.78a8.524 8.524 0 01-5.12-1.707l-34.133-25.6 10.24-13.653 29.013 21.76 29.013-21.76 10.24 13.653-34.133 25.6a8.593 8.593 0 01-5.12 1.707z"/></g><path d="M0 384v68.267C0 486.323 58.7 512 136.533 512s136.533-25.677 136.533-59.733V384c0-32.794-54.477-57.745-128-59.554V128c0-61.27 49.664-110.933 110.933-110.933S366.933 66.73 366.933 128v34.313c-73.523 1.81-128 26.76-128 59.554v68.267c0 34.057 58.7 59.733 136.533 59.733S512 324.2 512 290.133v-68.267c0-32.794-54.477-57.745-128-59.554V128C384 57.3 326.7 0 256 0S128 57.3 128 128v196.446C54.477 326.255 0 351.206 0 384zm281.6-68.267c-16.3-7.612-25.6-16.828-25.6-25.6v-38.528a104.251 104.251 0 0025.6 14.32v49.81zm42.667 12.69a205.762 205.762 0 01-25.6-6.17v-50.415a232.282 232.282 0 0025.6 5.675v50.9zm42.666 4.2a328.865 328.865 0 01-25.6-1.707V279.8c8.226.862 16.76 1.4 25.6 1.62v51.2zm42.667-1.707c-8.115.913-16.666 1.493-25.6 1.707v-51.2c8.832-.213 17.365-.75 25.6-1.62v51.114zm42.667-8.636a207.734 207.734 0 01-25.6 6.17v-50.935a232.053 232.053 0 0025.6-5.675v50.44zm42.666-32.145c0 8.78-9.3 17.997-25.6 25.6v-49.81a104.154 104.154 0 0025.6-14.32v38.528zM375.467 230.4a8.524 8.524 0 005.12-1.707l34.133-25.6-10.24-13.653L384 204.8v-25.43c65.766 1.707 110.933 23.15 110.933 42.496 0 20.18-49.067 42.667-119.467 42.667S256 242.048 256 221.867c0-19.345 45.167-40.764 110.933-42.496v25.43l-20.48-15.36-10.24 13.653 34.133 25.6a8.53 8.53 0 005.121 1.707zM85.333 490.564a205.762 205.762 0 01-25.6-6.17V433.97a232.282 232.282 0 0025.6 5.675v50.918zm42.667 4.2a328.865 328.865 0 01-25.6-1.707v-51.123c8.226.862 16.76 1.4 25.6 1.62v51.21zm42.667-1.707c-8.115.913-16.666 1.493-25.6 1.707v-51.2c8.832-.213 17.365-.75 25.6-1.62v51.114zm42.666-8.636a207.734 207.734 0 01-25.6 6.17v-50.944a232.053 232.053 0 0025.6-5.675v50.45zM256 452.267c0 8.78-9.3 17.997-25.6 25.6v-49.81a104.154 104.154 0 0025.6-14.32v38.528zM128 341.504v25.43l-20.48-15.36-10.24 13.653 34.133 25.6.043-.06a8.4 8.4 0 001.263.853 8.529 8.529 0 008.934-.853l34.133-25.6-10.24-13.653-20.48 15.42v-25.43C210.833 343.21 256 364.655 256 384c0 20.18-49.067 42.667-119.467 42.667S17.067 404.18 17.067 384c0-19.345 45.167-40.764 110.933-42.496zM17.067 413.74a104.251 104.251 0 0025.6 14.32v49.81c-16.3-7.612-25.6-16.828-25.6-25.6v-38.53z"/></svg>