<svg xmlns="http://www.w3.org/2000/svg" width="386.1" height="92.9"><path d="M152.6 65.9h-7.1c-.6 0-.9-.6-1.2-1.2l-8.3-14h-1.3c-1.5 0-6.2-.2-7.5-.2v14.2c0 .6-.5 1.1-1.1 1.2h-5.8c-.6 0-1.2-.5-1.1-1.2V26.8c0-1.2.7-1.6 1.9-1.7 4.5-.5 9.1-.8 13.7-.8 8.9 0 17.1 3.2 17.1 13.1v.5c0 6.1-3.1 9.5-7.8 11.3l9.1 15.5c.1.1.1.3.1.5 0 .4-.2.7-.6.7h-.1m-8.7-28.5c0-4.3-3.4-6.2-9.1-6.2-1.2 0-6.5.1-7.5.2V44c.9.1 6.5.2 7.5.2 6 0 9.1-1.2 9.1-6.2v-.6zm24.8 17.1c0 4.8.2 5 4.6 5h14.6c.6 0 1.2.5 1.2 1.2v3.7c0 .8-.3 1.1-1.2 1.2-4.1.6-8.3.9-12.5.8-9.6 0-14.7.1-14.7-11.8V36.2c0-11.9 5.1-11.9 14.7-11.9 4.2-.1 8.4.2 12.5.8.9.1 1.2.4 1.2 1.2V30c0 .6-.5 1.2-1.2 1.2h-14.6c-4.4 0-4.6.1-4.6 5v5.3h18.5c.6 0 1.2.5 1.2 1.2v4.2c0 .6-.5 1.2-1.2 1.2h-18.5v6.4zM215 66.3c-9.3 0-17.3-4-17.3-16.4v-24a1.11 1.11 0 011.1-1.1h5.7c.6 0 1.1.4 1.2 1V50c0 6.6 3 9.7 9.3 9.7s9.3-3.1 9.3-9.7V25.9a1.11 1.11 0 011.1-1.1h5.7c.6 0 1.1.5 1.2 1.1V50c0 12.3-8 16.4-17.3 16.3m55.4-34.8h-11.5v33.2c0 .6-.5 1.2-1.2 1.2H252c-.6 0-1.2-.5-1.2-1.2V31.5h-11.6c-.6.1-1.1-.4-1.1-.9v-4.7a1.11 1.11 0 011.1-1.1h31.1a1.11 1.11 0 011.1 1.1v4.6c.1.5-.4 1-1 1m78.5 34.3h-7.1c-.6 0-.9-.6-1.2-1.2l-8.3-14H331c-1.5 0-6.2-.2-7.5-.2v14.3c0 .6-.5 1.1-1.1 1.2h-5.8c-.6 0-1.2-.5-1.1-1.2V26.8c0-1.2.7-1.6 1.9-1.7 4.5-.5 9.1-.8 13.7-.8 8.9 0 17.1 3.2 17.1 13.1v.5c0 6.1-3.1 9.5-7.8 11.3l9.1 15.5c.1.1.1.3.1.5 0 .3-.2.7-.6.7 0 0-.1 0-.1-.1m-8.7-28.4c0-4.3-3.4-6.2-9.1-6.2-1.2 0-6.5.1-7.5.2V44c.9.1 6.5.2 7.5.2 6 0 9.1-1.2 9.1-6.2v-.6zm30.8 29c-4.4 0-8.8-.6-13.1-1.5-.6-.1-1.1-.6-1.1-1.2v-4.2a1.11 1.11 0 011.1-1.1h.1c4.3.6 8.7 1 13.1 1 5.1 0 6.7-1.8 6.7-5.2 0-4.3-10.4-6.7-15.4-8.8a10.28 10.28 0 01-6.8-10.1c0-6.4 5.1-11 15.9-11 4.2 0 8.4.6 12.6 1.5.6.1 1 .5 1 1.1v4.3a.94.94 0 01-1 1h-.1c-4.2-.6-8.5-.9-12.8-1-4.3 0-7.5 1.5-7.5 4.1 0 1.9 2.2 3.7 4.7 4.7l9.8 3.9c4.9 2 8 4.8 8 10.4-.1 5.8-3.7 12-15.2 12.1m-85.5-11.9c0 4.8.2 5 4.6 5h14.6c.6 0 1.1.5 1.1 1.2v3.7c0 .8-.3 1.1-1.1 1.2-4.1.6-8.3.9-12.5.8-9.6 0-14.7.1-14.7-11.8V36.2c0-11.9 5.1-11.9 14.7-11.9 4.2-.1 8.4.2 12.5.8.9.1 1.1.4 1.1 1.2V30c0 .6-.5 1.2-1.1 1.2H290c-4.4 0-4.6.1-4.6 5v5.3H304c.6 0 1.2.5 1.2 1.1v4.2c0 .6-.5 1.2-1.1 1.2h-18.5l-.1 6.5z" fill="#5e6163"/><path d="M69.8 29.5c-1.2 1.3-3.3 1.3-4.5.1s-1.3-3.3-.1-4.5c1.2-1.3 3.2-1.3 4.5-.1 1.3 1.1 1.3 3.2.1 4.5m-31.9-7.3c-.6-.6-1.6-.6-2.3.1-.6.6-.6 1.6.1 2.2.6.6 1.6.6 2.2-.1a1.57 1.57 0 000-2.2m8-3.1c-.8-.8-2.1-.7-2.8.1-.8.8-.7 2.1.1 2.8.8.8 2.1.7 2.8-.1l.1-.1c.6-.7.6-1.9-.2-2.7m8.6-.6c-1-1-2.6-.9-3.5 0-1 1-.9 2.6 0 3.5 1 1 2.6.9 3.5 0 1-1 1-2.6 0-3.5m8.1 2.1c-1.2-.9-3-.7-3.9.6-.8 1-.7 2.4.1 3.4 1.1 1.1 2.9 1 4-.1 1-1.1 1-2.9-.2-3.9 0-.1 0-.1 0 0m-31.5 6.9c-.5-.4-1.2-.4-1.7 0-.4.5-.4 1.2 0 1.7.5.4 1.2.4 1.7 0 .5-.5.4-1.2 0-1.7m41 29.1c-.6.6-.6 1.6.1 2.2s1.6.6 2.2-.1c.6-.6.6-1.6-.1-2.2-.6-.6-1.6-.5-2.2.1m2-8.2c-.8.8-.8 2.1 0 2.8s2.1.8 2.8 0 .8-2.1 0-2.8l-.1-.1c-.8-.7-2-.6-2.7.1m-.7-8.6c-.9 1-.9 2.6.1 3.5s2.6.9 3.5-.1.9-2.6-.1-3.5-2.5-.9-3.5.1m-3-8c-1.1 1.1-1 2.9.1 3.9 1.1 1.1 2.9 1 3.9-.1 1.1-1.1 1-2.9-.1-3.9-1-1-2.8-1-3.9.1m-2.7 31.9a1.24 1.24 0 00.1 1.7 1.24 1.24 0 001.7-.1 1.24 1.24 0 00-.1-1.7 1.24 1.24 0 00-1.7.1c0-.1 0-.1 0 0m-34 4.1c1.2-1.3 1.2-3.3-.1-4.5s-3.3-1.2-4.5.1-1.2 3.3.1 4.5 3.3 1.1 4.5-.1m-6.9-31.5c.6-.6.6-1.6-.1-2.2s-1.6-.6-2.2.1a1.57 1.57 0 000 2.2c.7.5 1.7.5 2.3-.1m-2 8.1c.7-.8.7-2-.1-2.8s-2-.7-2.8.1c-.7.8-.7 2 .1 2.8.8.7 2 .7 2.8-.1m.6 8.6c.9-1 .9-2.6-.1-3.5s-2.6-.9-3.5.1-.9 2.6.1 3.5c.9.9 2.5.9 3.5-.1m3 8c1-1.1 1-2.9-.1-3.9s-2.9-1-3.9.1-1 2.9.1 3.9c1 1.1 2.8 1 3.9-.1M61 70.7c.6.6 1.6.6 2.2-.1.6-.6.6-1.6-.1-2.2-.6-.6-1.6-.6-2.2.1-.6.6-.5 1.6.1 2.2m-8 3c.8.8 2 .7 2.8 0 .8-.8.7-2 0-2.8-.8-.8-2-.7-2.8 0 0 0 0 .1-.1.1-.7.8-.6 2 .1 2.7m-8.6.7c1 .9 2.6.9 3.5-.1s.9-2.6-.1-3.5-2.6-.9-3.5.1c-1 .9-.9 2.5.1 3.5m-8.1-2.1c1.1 1.1 2.9 1 3.9-.1s1-2.9-.1-3.9-2.9-1-3.9.1c-1.1 1.1-1 2.8.1 3.9m21.1-44.1c-.4 1.3-1.8 2.1-3.1 1.7s-2.1-1.8-1.7-3.1 1.8-2 3.1-1.7c1.3.4 2.1 1.7 1.7 3.1m-23.9 5.9c-.7-.2-1.3.2-1.5.8s.2 1.3.8 1.5 1.3-.1 1.6-.8-.2-1.3-.9-1.5m4.3-4.8c-.8-.3-1.7.2-1.9 1s.2 1.7 1 1.9c.8.3 1.7-.2 1.9-1s-.2-1.6-1-1.9m5.5-3.3a1.96 1.96 0 00-2.4 1.3 1.96 1.96 0 001.3 2.4 1.96 1.96 0 002.4-1.3c.3-1-.2-2.1-1.3-2.4m6.2-1.4c-1.2-.3-2.4.3-2.7 1.5s.3 2.4 1.5 2.7 2.4-.3 2.7-1.5c.3-1.1-.4-2.3-1.5-2.7M30.7 40c-.5-.1-1 .1-1.1.6-.2.5.1 1 .6 1.2s1-.1 1.2-.6v-.1c.1-.4-.2-1-.7-1.1M68 45.5c-.2.7.2 1.3.8 1.5.7.2 1.3-.2 1.5-.8.2-.7-.2-1.3-.8-1.5s-1.3.2-1.5.8m-1.4-6.1c-.2.8.2 1.7 1 1.9s1.7-.2 1.9-1c.2-.8-.2-1.7-1-1.9s-1.7.2-1.9 1m-3.4-5.6c-.3 1 .2 2.1 1.2 2.4s2.1-.2 2.4-1.2v-.1a1.96 1.96 0 00-1.3-2.4c-.9-.2-1.9.3-2.3 1.3m-4.7-4.3c-.3 1.2.3 2.4 1.5 2.7s2.4-.3 2.7-1.5c.3-1.1-.3-2.3-1.5-2.7-1.1-.3-2.4.4-2.7 1.5m9 22.3c-.1.5.1 1 .6 1.1s1-.1 1.1-.6-.1-1-.6-1.1c-.4-.2-1 .1-1.1.6M46.3 66.1c.4-1.3-.4-2.7-1.7-3.1s-2.7.4-3.1 1.7.4 2.7 1.7 3.1 2.7-.4 3.1-1.7M30.9 47.3c.2-.6-.2-1.3-.8-1.5-.7-.2-1.3.2-1.5.8-.2.7.3 1.3.9 1.5.5.2 1.1-.2 1.4-.8m1.4 6.2c.2-.8-.2-1.6-1-1.9s-1.6.2-1.9 1c-.2.8.2 1.7 1 1.9s1.7-.2 1.9-1m3.3 5.5a1.96 1.96 0 00-1.3-2.4 1.96 1.96 0 00-2.4 1.3 1.96 1.96 0 001.3 2.4c1.1.4 2.1-.2 2.4-1.3 0 .1 0 .1 0 0m4.8 4.4c.3-1.2-.3-2.4-1.5-2.7-1.1-.3-2.3.3-2.7 1.4-.3 1.2.3 2.4 1.5 2.7s2.3-.2 2.7-1.4m25-4.6c.6.2 1.3-.2 1.5-.8s-.1-1.3-.8-1.6c-.6-.2-1.3.1-1.6.8v.1c-.2.6.2 1.3.9 1.5M61 63.6c.8.2 1.7-.2 1.9-1s-.2-1.7-1-1.9-1.7.2-1.9 1 .2 1.6 1 1.9m-5.5 3.3a1.96 1.96 0 002.4-1.3 1.96 1.96 0 00-1.3-2.4 1.96 1.96 0 00-2.4 1.3 1.96 1.96 0 001.3 2.4m-6.1 1.4c1.2.3 2.4-.3 2.7-1.5s-.3-2.4-1.5-2.7-2.4.3-2.7 1.5c-.3 1.1.3 2.3 1.5 2.7m-5.1-35.5c.6.9.3 2.1-.6 2.7s-2.1.3-2.7-.6c0-.1-.1-.2-.1-.2-.6-.9-.3-2.1.6-2.7s2.1-.3 2.7.6c0 .1.1.2.1.2M34.7 48c-.5.3-.7 1-.5 1.5.3.5 1 .7 1.6.4.5-.3.7-.9.4-1.5-.3-.5-.9-.7-1.5-.4m-.2-4.7c-.6.4-.9 1.2-.5 1.8s1.2.9 1.8.5.9-1.2.5-1.8c-.3-.6-1.1-.8-1.8-.5m1.2-4.5c-.7.4-1 1.3-.6 2.1.4.7 1.3 1 2.1.6.7-.4 1-1.3.6-2.1-.4-.7-1.3-.9-2.1-.6m2.5-3.8c-.8.4-1.1 1.5-.7 2.3s1.5 1.1 2.3.7 1.1-1.5.7-2.3-1.5-1.1-2.3-.7m-1.9 17.4c-.5.2-.7.8-.5 1.3s.8.7 1.3.5.7-.8.5-1.3v-.1c-.3-.4-.8-.6-1.3-.4m22-15.9c.3.6 1 .8 1.5.5.6-.3.8-1 .5-1.5v-.1c-.3-.5-.9-.7-1.5-.5-.5.4-.7 1.1-.5 1.6m-3.8-2.4c.4.6 1.2.9 1.8.5s.9-1.2.5-1.8-1.2-.9-1.8-.5c-.6.3-.9 1.1-.5 1.8M50 32.9c.4.7 1.3 1 2 .6s1-1.3.6-2.1c-.4-.7-1.3-1-2-.6s-1 1.4-.6 2.1m-4.7.2c.5.8 1.5 1.1 2.3.7.8-.5 1.1-1.5.7-2.3-.5-.8-1.5-1.1-2.3-.7s-1.1 1.4-.7 2.3m15.9 7c.3.5.8.6 1.3.4s.6-.8.4-1.3c-.3-.5-.8-.6-1.3-.4-.4.2-.6.8-.4 1.3M58 58.2c-.5-.9-1.7-1.3-2.6-.8s-1.3 1.7-.8 2.6 1.7 1.3 2.6.8 1.3-1.7.8-2.6m-17.5-1.9c-.3-.5-1-.7-1.6-.3-.5.3-.7.9-.4 1.4s1 .8 1.5.5c.6-.4.8-1 .5-1.6m3.9 2.5c-.4-.6-1.2-.9-1.8-.5s-.9 1.2-.5 1.8 1.1.9 1.8.5c.6-.4.8-1.2.5-1.8m4.4 1.2c-.4-.8-1.3-1.1-2-.7-.8.4-1.1 1.3-.7 2 .4.8 1.3 1.1 2 .7h.1c.7-.4 1-1.3.6-2m4.7-.2c-.5-.8-1.5-1.1-2.3-.7-.8.5-1.1 1.5-.7 2.3.5.8 1.5 1.1 2.3.7.9-.4 1.2-1.5.7-2.3m10.6-14.9c.6-.3.8-1 .5-1.6-.3-.5-1-.8-1.5-.5a1.25 1.25 0 00-.3 1.6c.3.5.8.6 1.3.5m.2 4.6c.6-.4.9-1.2.5-1.8s-1.2-.9-1.8-.5c-.6.4-.9 1.2-.5 1.8s1.2.9 1.8.5M63.1 54c.7-.4 1-1.3.6-2.1-.4-.7-1.3-1-2.1-.6s-1 1.3-.6 2.1c.5.7 1.4 1 2.1.6m-2.4 3.9c.8-.5 1.1-1.5.7-2.3-.5-.8-1.5-1.1-2.3-.7s-1.1 1.5-.7 2.3 1.4 1.1 2.3.7m33.2-6.5a4.95 4.95 0 01-5-5 4.95 4.95 0 015-5 4.95 4.95 0 015 5c0 2.8-2.3 5-5 5M74.3 8.5c.3-1.5-.6-2.9-2.1-3.3s-2.9.7-3.2 2.2.6 2.9 2.1 3.3c1.5.2 2.9-.7 3.2-2.2m9.8 7c.3-1.8-1-3.5-2.8-3.8s-3.5 1-3.8 2.8 1 3.5 2.8 3.8 3.5-1 3.8-2.8m7.9 9.1c.2-2.3-1.4-4.3-3.7-4.5s-4.3 1.4-4.5 3.7 1.4 4.3 3.7 4.5c2.2.3 4.3-1.4 4.5-3.7m4.9 10.6c.1-2.5-1.8-4.7-4.3-4.8s-4.7 1.8-4.8 4.3 1.8 4.7 4.3 4.8 4.7-1.8 4.8-4.3M51.4 2c0-1.1-.9-2-2-2s-2 .9-2 2 .9 2 2 2 2-.9 2-2m19.7 80.3c-1.5.3-2.4 1.8-2.1 3.3s1.8 2.4 3.3 2.1 2.4-1.8 2.1-3.3c-.4-1.5-1.8-2.5-3.3-2.1m9.2-7.7c-1.8.3-3.1 2-2.8 3.8s2 3.1 3.8 2.8 3.1-2 2.8-3.8c-.3-1.9-2-3.1-3.8-2.8m7.2-10c-2.3.2-3.9 2.3-3.7 4.5s2.3 3.9 4.5 3.7 3.9-2.3 3.7-4.5v-.1c-.2-2.2-2.3-3.9-4.5-3.6m4.6-11.2c-2.5.1-4.5 2.3-4.3 4.8.1 2.5 2.3 4.5 4.8 4.3 2.5-.1 4.5-2.3 4.3-4.8-.1-2.5-2.3-4.4-4.8-4.3M49.4 88.9c-1.1 0-2 .9-2 2s.9 2 2 2 2-.9 2-2-.9-2-2-2M5 51.4a4.95 4.95 0 005-5 4.95 4.95 0 00-5-5 4.95 4.95 0 00-5 5 4.95 4.95 0 005 5m22.8-40.8c1.5-.3 2.4-1.8 2.1-3.3s-1.8-2.4-3.3-2.1-2.4 1.8-2.1 3.2c.3 1.6 1.8 2.5 3.3 2.2m-9.3 7.7c1.8-.2 3.2-1.8 3-3.6s-1.8-3.2-3.6-3c-.1 0-.3 0-.4.1-1.8.3-3 2-2.8 3.8.3 1.7 2 3 3.8 2.7m-7.1 10c2.3-.2 3.9-2.3 3.7-4.6s-2.3-3.9-4.6-3.7-3.9 2.3-3.7 4.6c.3 2.3 2.3 3.9 4.6 3.7M6.7 39.5c2.5-.1 4.5-2.3 4.3-4.8s-2.3-4.5-4.8-4.3c-2.5.1-4.4 2.3-4.3 4.8s2.3 4.4 4.8 4.3m17.8 44.9c-.3 1.5.6 2.9 2.1 3.2s2.9-.6 3.2-2.1-.6-2.9-2.1-3.2c-1.4-.4-2.9.6-3.2 2.1m-9.8-7c-.3 1.8 1 3.5 2.8 3.8s3.5-1 3.8-2.8-1-3.5-2.8-3.8-3.5.9-3.8 2.8m-7.9-9.2c-.2 2.3 1.4 4.3 3.7 4.5s4.3-1.4 4.5-3.7-1.4-4.3-3.7-4.5c-2.2-.2-4.2 1.4-4.5 3.7M1.9 57.7c-.1 2.5 1.8 4.7 4.3 4.8s4.7-1.8 4.8-4.3-1.8-4.7-4.3-4.8c-2.5-.2-4.7 1.8-4.8 4.3m58.5 29.6c-1.1.3-1.8 1.5-1.5 2.6s1.5 1.8 2.6 1.5c1.1-.3 1.8-1.5 1.5-2.6s-1.5-1.8-2.6-1.5m-21.9 0c-1.1-.3-2.3.4-2.6 1.5s.4 2.3 1.5 2.6 2.3-.4 2.6-1.5-.4-2.3-1.5-2.6M63 4.1a2.16 2.16 0 00-1.8-2.5c-1-.2-2 .4-2.4 1.4-.4 1.1.2 2.3 1.3 2.7s2.3-.2 2.7-1.3c.1-.1.2-.2.2-.3M40 3c-.3-1.1-1.5-1.8-2.6-1.5S35.5 3 35.8 4.1s1.5 1.8 2.6 1.5c1.2-.3 1.9-1.4 1.6-2.6m42.8 33.3c-2 .9-4.3 0-5.1-2s0-4.3 2-5.1c2-.9 4.3 0 5.1 2 .9 1.9 0 4.2-2 5.1M55.5 11.6c-.2-1.2-1.4-1.9-2.5-1.7s-1.9 1.4-1.7 2.5 1.4 1.9 2.5 1.7 2-1.4 1.7-2.5m9.3 2c-.3-1.4-1.8-2.2-3.2-1.9s-2.2 1.8-1.9 3.2 1.8 2.2 3.2 1.9c1.4-.5 2.2-1.9 1.9-3.2m8.4 4c-.5-1.7-2.4-2.7-4.1-2.1-1.7.5-2.7 2.4-2.1 4.1.5 1.7 2.3 2.7 4.1 2.1 1.7-.5 2.7-2.3 2.1-4.1 0 .1 0 .1 0 0m6.8 6c-.7-1.8-2.7-2.8-4.6-2.1-1.8.7-2.8 2.7-2.1 4.6.7 1.8 2.7 2.8 4.6 2.1 1.8-.6 2.8-2.7 2.1-4.6M37.1 14c-.3-.8-1.2-1.1-2-.8-.8.2-1.4 1-1.2 1.8s1 1.4 1.8 1.2c.2 0 .4-.1.6-.2.8-.3 1.1-1.2.8-2M76 65.4c-1 .7-1.2 2-.5 3s2 1.2 3 .5 1.2-2 .5-3c-.7-.9-2-1.2-3-.5m4.3-8.3c-1.2.8-1.6 2.4-.8 3.6s2.4 1.6 3.6.8 1.6-2.4.8-3.6-2.4-1.6-3.6-.8m2-9.5c-1.6.9-2.1 2.8-1.2 4.4s2.8 2.1 4.4 1.2c1.5-.9 2.1-2.8 1.2-4.4-.9-1.5-2.9-2-4.4-1.2m-.2-9.4c-1.8.9-2.4 3.1-1.5 4.8.9 1.8 3.1 2.4 4.8 1.5s2.4-3 1.6-4.7c-.9-1.7-3-2.5-4.9-1.6M62.5 76.9c-.8.3-1.2 1.2-.9 2s1.2 1.2 2 .9 1.2-1.2.9-2v-.1c-.3-.8-1.2-1.1-2-.8M19.1 63.8c2-.9 2.9-3.1 2-5.1s-3.1-2.9-5.1-2-2.9 3.1-2 5.1c.8 1.9 3.1 2.8 5.1 2m3.7-36.3c1-.7 1.2-2 .5-3s-2-1.2-3-.5-1.2 2-.5 3c.7.9 2 1.1 3 .5m-4.2 8.3c1.2-.8 1.6-2.4.8-3.6s-2.4-1.6-3.6-.8-1.6 2.4-.8 3.6 2.4 1.6 3.6.8m-2 9.4c1.5-.9 2.1-2.9 1.2-4.4s-2.9-2.1-4.4-1.2-2.1 2.8-1.2 4.4c.8 1.6 2.8 2.1 4.4 1.2m.1 9.5a3.53 3.53 0 001.6-4.8 3.53 3.53 0 00-4.8-1.6 3.53 3.53 0 00-1.6 4.8c.8 1.7 3 2.5 4.8 1.6m26.6 26.6c.2 1.2 1.4 1.9 2.5 1.7s1.9-1.4 1.7-2.5-1.3-1.9-2.5-1.7-1.9 1.4-1.7 2.5m-9.2-2c.4 1.4 1.8 2.2 3.2 1.9 1.4-.4 2.2-1.8 1.9-3.2-.4-1.4-1.8-2.2-3.2-1.9-1.4.4-2.2 1.8-1.9 3.2m-8.5-4.1c.5 1.7 2.4 2.7 4.1 2.1s2.7-2.4 2.1-4.1c-.5-1.7-2.3-2.7-4.1-2.1-1.6.6-2.6 2.4-2.1 4.1m-6.7-6c.7 1.8 2.8 2.8 4.6 2.1s2.8-2.8 2.1-4.6-2.7-2.8-4.6-2.1c-1.8.7-2.8 2.7-2.1 4.6m51 3.1c-.7.6-.8 1.6-.3 2.3.6.7 1.6.8 2.3.3.7-.6.8-1.6.3-2.3s-1.6-.8-2.3-.3m-15.7 6.8c-.9.1-1.5 1-1.4 1.9s1 1.5 1.9 1.4 1.5-1 1.4-1.9-1-1.5-1.9-1.4M46 11.9c-.1-.9-1-1.5-1.9-1.4s-1.5 1-1.4 1.9 1 1.5 1.9 1.4c1-.2 1.6-1 1.4-1.9m-16.8 6.3c-.6-.7-1.6-.8-2.3-.3-.7.6-.8 1.6-.3 2.3.6.7 1.6.8 2.3.3.8-.5.9-1.6.3-2.3" fill="#f5832b"/></svg>