<svg xmlns="http://www.w3.org/2000/svg" width="256" height="256" preserveAspectRatio="xMidYMid" fill="#122941"><path d="M127.756 62.666c-21.28 19.3-33.855 55.208-35.954 77.912 5.968 4.7 11.74 10.008 17.684 16.17 1.44 1.3 10.175 9.506 18.28 23.03 8.113-13.52 16.84-21.72 18.28-23.03 5.944-6.163 11.712-11.48 17.68-16.17-2.104-22.7-14.68-58.616-35.968-77.912m25.628 101.41l-.293.28c-.274.246-26.94 24.497-29.42 60.743 19.77-1.347 40.84-8.865 43.273-9.757 45.14-22.523 54.86-60.97 54.27-91.52-30.664 9.367-48.32 19.974-67.83 40.254"/><path d="M121.97 190.8c-8.517-16.468-19.356-26.27-19.533-26.434l-.293-.28c-19.5-20.28-37.17-30.887-67.83-40.254-.594 30.548 9.13 68.996 54.265 91.52 1.667.608 12.12 4.347 24.9 7.068 1.06-11.93 4.365-22.56 8.5-31.62m5.796-171.74c-60.2 0-109.2 48.98-109.2 109.185s48.98 109.2 109.2 109.2 109.185-48.98 109.185-109.2S187.97 19.05 127.765 19.05zm0 236.95C57.316 256 0 198.684 0 128.235S57.316.474 127.765.474s127.76 57.3 127.76 127.76S198.215 256 127.765 256z"/></svg>