<svg xmlns="http://www.w3.org/2000/svg" xmlns:xlink="http://www.w3.org/1999/xlink" width="256" height="256" preserveAspectRatio="xMidYMid"><defs><linearGradient x1="8.59%" y1="1.954%" x2="77.471%" y2="73.896%" id="B"><stop stop-color="#4cb36b" offset="0%"/><stop stop-color="#3ea16f" offset="100%"/></linearGradient><path id="A" d="M256 128c0 70.692-57.308 128-128 128S0 198.692 0 128 57.308 0 128 0s128 57.308 128 128"/></defs><mask id="C" fill="#fff"><use xlink:href="#A"/></mask><g fill="#67bf79"><use xlink:href="#A"/><path d="M256 128c0 70.692-57.308 128-128 128S0 198.692 0 128 57.308 0 128 0s128 57.308 128 128" mask="url(#C)"/></g><path d="M63.1 187.022L96.178 72l64.533 60.978L200 90.133l87.533 86.3L176.7 301.3 63.1 187.022" fill="url(#B)" mask="url(#C)"/><path d="M77 189.6c-16.733 0-16.733 0-16.733-16.733V81c0-16.733 0-16.733 16.733-16.733h3.334c16.733 0 16.733 0 16.733 16.733v91.867c0 16.733 0 16.733-16.733 16.733H77zm44.04 0c-5.7 0-8.508-2.8-8.508-8.508V72.774c0-5.698 2.8-8.507 8.508-8.507h37.537c32.178 0 52.628 32.273 52.628 63.025S190.578 189.6 158.578 189.6H121.04z" mask="url(#C)" fill="#fff"/></svg>