<svg xmlns="http://www.w3.org/2000/svg" width="3511.6" height="574.4"><path d="M1449.9 263c-9.2-44.6-45.8-56.5-86.9-60.3-132.5-12.2-155.9 86.7-155.9 128.5 0 71.4 20.9 130.5 150.9 130.5 24 0 90.2-24.7 90.2-64.7h187c-7.6 118.9-207.6 147.4-294.8 147.4-180.7 0-335.5-33.6-328-211.5 5.3-127 125.4-216.1 364.3-210.6 133.1 3.2 261.1 44.6 261.6 140.8l-188.4-.1zm1873.2 0c-9.2-44.6-45.8-56.5-86.8-60.3-132.5-12.2-155.9 86.7-155.9 128.5 0 71.4 20.9 130.5 151 130.5 24 0 90.1-24.7 90.1-64.7h187c-7.6 118.9-207.5 147.4-294.8 147.4-180.7 0-335.4-33.6-328-211.5 5.3-127 125.4-216.1 364.3-210.6 133.1 3.2 261 44.6 261.6 140.8l-188.5-.1zM1671.8 130.7h242.8l207.1 290.2h1.6V130.7H2279v403h-232.6L1829 243.4h-1.6v290.3h-155.6v-403zm655.2 0h294.9c141.7 0 225.1 39.5 225.1 99.3 0 35.3-34.9 78.9-112.7 91.7v1.2c93.7 5.6 128.2 64.7 128.2 100.2 0 71-81.2 110.6-239.8 110.6H2327v-403zm170.7 156.5h48.9c75.3 0 115.2-5.9 115.2-37.1 0-33.5-33.3-44.6-101.1-44.6h-63.2l.2 81.7zm0 161.9h48.9c90.8 0 124-9.5 124-40.7 0-33.5-42-44.7-109.8-44.7h-63.2v85.4h.1z"/><path d="M290.2 213.1l136 310.9-280.5-192.1c-70.4-46.6-56.1-126.4-17.1-161.6 55.1-46.6 133.1-30.4 161.6 42.8z" fill="#d9782d"/><path d="M476.6 139.9l-49.4 348L286.4 157c-30.4-82.7 38-136.9 83.7-137.9 52.3-5.7 117.9 34.3 106.5 120.8z" fill="#b01842"/><path d="M690.5 156.1L550.7 487.9 506 188.4c-3.8-45.6 24.7-46.6 35.2-55.1-1.9-6.7-16.2-6.7-16.2-6.7h-26.6c-2.8-78 58-112.2 107.4-108.4 53.3 1.9 113.2 63.7 84.7 137.9z" fill="#543b92"/><path d="M833.1 330L552.6 523l132.2-307c39.9-97 133.1-78 166.4-40.9 36.1 36.1 46.6 109.3-18.1 154.9z" fill="#397db7"/><path d="M862.6 557.3H538.4l263.4-183.5C866.5 331 934.9 370 953 426.1c18.9 62.7-23.9 131.2-90.4 131.2z" fill="#6cb35d"/><path d="M23 422.3c24.7-64.7 93.2-87.5 154-48.5l263.4 183.5H121c-66.6 0-118.9-60.9-98-135z" fill="#ecb73b"/></svg>