<svg xmlns="http://www.w3.org/2000/svg" width="71.32" height="58.17" fill="#c99c3b"><path d="M29.07 57.2a39.53 39.53 0 01-7.39-3.33c.72-.88 2.05-3.18-.36-6.17 0 0-1.85 3.1-.73 5.52a35.83 35.83 0 01-4.28-3.09c.42-.4 2.78-3-.06-6.5 0 0-2.2 3.66-.36 6.15A25.79 25.79 0 0111 44.05c.7-.3 3.57-1.9 2.25-6.06 0 0-3.27 2.54-2.6 5.46A19.57 19.57 0 018.78 39l-.43-1.75c.9-.2 3.8-1.1 3.58-5.27 0 0-3.3 1.4-3.83 4a28.88 28.88 0 01-.41-6.6c1 .14 3.4.08 4.6-3.13 0 0-3.06 0-4.5 1.8a32.18 32.18 0 011.1-5.84c.84.33 3.4 1 5.3-2.15 0 0-3.32-.63-5 1.2a36.55 36.55 0 012.48-5.94c.9.52 3.13 1.35 5.44-1.2 0 0-2.76-1.1-4.76 0a30.41 30.41 0 012.66-4l1.1-1.23c.56.4 3.1 1.9 5.74-1 0 0-2.58-1-4.56-.13a28.39 28.39 0 013.83-2.88c.82.5 3.13 1.52 5.55-1.14A8.26 8.26 0 0024 3.27l2.26-1-.35-.95a32 32 0 00-8.84 5.29c.7-1.2 1.56-3.74-1.3-6.6 0 0-2.52 5.38.6 7.22a21.9 21.9 0 00-2.18 2.29 26.47 26.47 0 00-1.85 2.54c.4-1.6.22-3.8-2.2-6.2 0 0-3 6.44.8 8.58a32.6 32.6 0 00-1.83 3.9C9 16.8 8.26 15 5.78 13.28c0 0-1.68 6.72 2.26 8.2a33.73 33.73 0 00-1 4.36c-.3-1.58-1.32-3.44-4.3-4.72 0 0-.44 7.17 4 7.7a31.21 31.21 0 00.14 5.78c-.84-1.7-2.7-3.7-6.9-3.7 0 0 2.64 7.33 7.26 6.13l.54 2.24c.2.75.4 1.3.66 1.93-1.3-1.2-3.44-2.14-7-1.2 0 0 4.3 6.26 8.43 4.16a24.23 24.23 0 003.18 4.26C11.4 47.73 9 47.58 6 49.77c0 0 6.27 4.23 9.34.82a33.86 33.86 0 003 2.35c-1.76-.3-4.12.08-6.58 2.75 0 0 7 2.9 9.3-1a40.45 40.45 0 007.71 3.49zm13.18 0a39.53 39.53 0 007.39-3.33c-.72-.88-2-3.18.36-6.17 0 0 1.85 3.1.73 5.52a35 35 0 004.27-3.1c-.4-.4-2.77-3 .07-6.5 0 0 2.2 3.66.36 6.15a25.49 25.49 0 004.87-5.71c-.68-.3-3.56-1.9-2.24-6.06 0 0 3.26 2.54 2.6 5.46A19.57 19.57 0 0062.54 39l.43-1.75c-.9-.2-3.8-1.1-3.58-5.27 0 0 3.3 1.4 3.83 4a28.88 28.88 0 00.41-6.6c-1 .14-3.4.08-4.6-3.13 0 0 3.06 0 4.5 1.8a32.18 32.18 0 00-1.1-5.84c-.84.33-3.4 1-5.3-2.15 0 0 3.32-.63 5 1.2a36.55 36.55 0 00-2.48-5.94c-.9.52-3.13 1.35-5.44-1.2 0 0 2.76-1.1 4.76 0a30.41 30.41 0 00-2.66-4L55.2 8.9c-.56.4-3.1 1.9-5.74-1 0 0 2.58-1 4.56-.13a28.39 28.39 0 00-3.83-2.88c-.82.5-3.13 1.52-5.55-1.14a8.18 8.18 0 012.65-.5l-2.26-1 .35-.95a31.9 31.9 0 018.83 5.29c-.7-1.2-1.55-3.74 1.3-6.6 0 0 2.52 5.38-.6 7.22a21.9 21.9 0 012.19 2.31 26.47 26.47 0 011.9 2.55c-.4-1.6-.22-3.8 2.2-6.2 0 0 3 6.44-.8 8.58a36 36 0 011.83 3.9c.1-1.54.86-3.4 3.34-5.06 0 0 1.68 6.72-2.26 8.2a33.73 33.73 0 011 4.36c.3-1.58 1.32-3.44 4.3-4.72 0 0 .44 7.17-4 7.7a31.21 31.21 0 01-.14 5.78c.82-1.7 2.67-3.7 6.87-3.7 0 0-2.64 7.33-7.26 6.13l-.54 2.24c-.2.75-.42 1.3-.66 1.93 1.32-1.2 3.5-2.16 7-1.24 0 0-4.3 6.26-8.43 4.16a24.23 24.23 0 01-3.18 4.26c1.67-.67 4.1-.82 7.1 1.37 0 0-6.27 4.23-9.35.82a32.38 32.38 0 01-3 2.35c1.76-.3 4.12.08 6.58 2.75 0 0-7 2.9-9.3-1a40.76 40.76 0 01-7.71 3.49z"/></svg>