<svg xmlns="http://www.w3.org/2000/svg" width="167.5" height="31.5" fill="#231f20"><path d="M4.1 1h11.7c5.6 0 6.8 3.5 6.8 6 .1 1.9-.9 3.8-2.6 4.7 1.9.7 3.7 2.4 3.7 5.9 0 4.7-3.7 7.2-7.5 7.2H4.1V1zm6.7 9.3h3.5c1.4 0 2.2-.4 2.2-2 0-1.2-.9-1.6-2.2-1.6h-3.4v3.6zm0 8.8h3.9c1.4 0 2.6-.4 2.6-2.3 0-1.4-.7-2.2-2.3-2.2h-4.1v4.5zM24.4 1h5.9v23.8h-5.9V1zm15.7 24.2c-5.9 0-8.5-4.3-8.5-9.1S34.2 7 40.1 7s8.5 4.3 8.5 9.1-2.7 9.1-8.5 9.1zm0-13.3c-2.3 0-2.6 2.4-2.6 4.3 0 1.8.3 4.3 2.6 4.3s2.5-2.5 2.5-4.3-.3-4.3-2.5-4.3zm18.4 13.3c-5.9 0-8.5-4.3-8.5-9.1S52.6 7 58.5 7s8.5 4.3 8.5 9.1-2.7 9.1-8.5 9.1zm0-13.3c-2.3 0-2.5 2.4-2.5 4.3 0 1.8.3 4.3 2.5 4.3S61 18 61 16.1s-.3-4.2-2.5-4.2zM69 7.5h5.7v2.3h.1c1-1.8 3-2.9 5.1-2.7 1.8 0 3.5 1 4.2 2.7C85.3 8 87.3 7 89.4 7.1c4 0 5.3 3.1 5.3 5.9v11.9h-5.9v-9.4c0-1.6-.1-3.1-2-3.1-1.5 0-2 1.3-2 3.1v9.4H79v-9.4c0-1.6-.2-3.1-2-3.1-1.5 0-2 1.3-2 3.1v9.4h-6V7.5zM97 1h5.9v8.4h.1c.9-1.5 2.5-2.4 4.3-2.3 5.2 0 6.6 4.9 6.6 9 0 4.3-2.1 9.2-6.5 9.2-2.9 0-3.8-1.2-4.6-2.3h-.1v1.9H97V1zm8.3 10.9c-2.1 0-2.6 2.2-2.6 4.3s.5 4.3 2.6 4.3 2.6-2.2 2.6-4.3-.5-4.3-2.6-4.3zm15.5 5.7c.2 2 1.2 3.4 3 3.4 1 .1 1.9-.4 2.5-1.2h5.6c-1.2 3.7-4.5 5.5-8 5.5-5 0-8.7-3.3-8.7-9 0-5 3.3-9.1 8.2-9.1 6.2 0 8.9 3.8 8.9 10.6h-11.5zm5.7-3.4c.1-1.5-1-2.8-2.5-2.9h-.1c-1.8 0-2.8 1-3.1 2.9h5.7zm7-6.7h5.7v2.8h.1c.9-2.1 2.2-3.2 4.4-3.2.6 0 1.2.1 1.7.3v5.8c-.7-.3-1.5-.5-2.3-.4-2.3 0-3.6 1.5-3.6 5.2v6.8h-5.9l-.1-17.3zm29.3 15.1c0 3.4-.8 8.3-8.1 8.3-3.7 0-7.6-1.1-8.1-5.8h5.9l.3.6c.3.7 1 1.2 1.7 1.3 1.9 0 2.3-2.5 2.3-4v-1.6h-.1c-.9 1.5-2.4 2.4-4.2 2.4-4.6 0-6.6-3.8-6.6-8.4s2.3-8.3 6.8-8.3c1.8-.1 3.4.9 4.1 2.5h.1V7.5h5.9v15.1zm-8.2-3.1c2.2 0 2.4-2.3 2.4-4.3s-.8-3.4-2.6-3.4-2.5 1.6-2.5 3.4.6 4.3 2.7 4.3z"/></svg>